G75*
G70*
%OFA0B0*%
%FSLAX25Y25*%
%IPPOS*%
%LPD*%
%AMOC8*
5,1,8,0,0,1.08239X$1,22.5*
%
%ADD103C,0.03900*%
%ADD11O,0.06693X0.07677*%
%ADD15C,0.06693*%
%ADD16C,0.07874*%
%ADD18R,0.06693X0.06693*%
%ADD31C,0.02913*%
%ADD33C,0.15748*%
%ADD37R,0.07500X0.07874*%
%ADD44C,0.02362*%
%ADD45C,0.06496*%
%ADD49C,0.13780*%
%ADD50C,0.09744*%
%ADD53O,0.06693X0.06693*%
%ADD59C,0.21654*%
%ADD64O,0.07500X0.07874*%
%ADD68C,0.13000*%
%ADD70C,0.13878*%
%ADD79C,0.09449*%
%ADD80C,0.06000*%
%ADD92C,0.22736*%
%ADD97C,0.17717*%
%ADD98C,0.07382*%
X0000000Y0000000D02*
%LPD*%
G01*
D15*
X0494094Y0511811D03*
X0485118Y0316630D03*
X0275591Y0494094D03*
X0690118Y0395000D03*
X0690118Y0405000D03*
X0690118Y0415000D03*
X0690118Y0425000D03*
X0690118Y0435000D03*
X0700118Y0395000D03*
X0700118Y0405000D03*
X0700118Y0415000D03*
X0700118Y0425000D03*
X0700118Y0435000D03*
X0710118Y0395000D03*
X0710118Y0405000D03*
X0710118Y0415000D03*
X0710118Y0425000D03*
X0710118Y0435000D03*
X0275591Y0476378D03*
X0375118Y0128000D03*
X0338583Y0511811D03*
X0232677Y0246063D03*
X0228346Y0511811D03*
X0233118Y0278000D03*
X0690118Y0445000D03*
X0690118Y0455000D03*
X0690118Y0465000D03*
X0690118Y0475000D03*
X0690118Y0485000D03*
X0700118Y0445000D03*
X0700118Y0455000D03*
X0700118Y0465000D03*
X0700118Y0475000D03*
X0700118Y0485000D03*
X0710118Y0445000D03*
X0710118Y0455000D03*
X0710118Y0465000D03*
X0710118Y0475000D03*
X0710118Y0485000D03*
D59*
X0106299Y0025591D03*
D18*
X0523425Y0125000D03*
D53*
X0533425Y0125000D03*
X0543425Y0125000D03*
X0553425Y0125000D03*
X0563425Y0125000D03*
X0573425Y0125000D03*
D45*
X0181102Y0488346D03*
X0181102Y0468346D03*
D15*
X0287402Y0511811D03*
X0233118Y0328000D03*
X0233118Y0340000D03*
X0403118Y0128000D03*
X0263780Y0494094D03*
X0486220Y0262598D03*
X0415354Y0464567D03*
X0228346Y0476378D03*
X0312992Y0440945D03*
X0415354Y0494094D03*
X0161417Y0511811D03*
X0458661Y0511811D03*
D50*
X0577559Y0581496D03*
X0557874Y0581496D03*
X0538189Y0581496D03*
X0577559Y0559055D03*
X0557874Y0559055D03*
X0538189Y0559055D03*
X0577559Y0536614D03*
X0557874Y0536614D03*
X0537559Y0536614D03*
D98*
X0510630Y0583858D03*
X0500630Y0583858D03*
X0490630Y0583858D03*
X0480630Y0583858D03*
X0470630Y0583858D03*
X0460630Y0583858D03*
X0510630Y0573858D03*
X0500630Y0573858D03*
X0490630Y0573858D03*
X0480630Y0573858D03*
X0470630Y0573858D03*
X0460630Y0573858D03*
X0510630Y0550039D03*
X0500630Y0550039D03*
X0490630Y0550039D03*
X0480630Y0550039D03*
X0470630Y0550039D03*
X0460630Y0550039D03*
X0510630Y0540039D03*
X0500630Y0540039D03*
X0490630Y0540039D03*
X0480630Y0540039D03*
X0470630Y0540039D03*
X0460630Y0540039D03*
X0438189Y0583858D03*
X0428189Y0583858D03*
X0418189Y0583858D03*
X0408189Y0583858D03*
X0398189Y0583858D03*
X0388189Y0583858D03*
X0378189Y0583858D03*
X0368189Y0583858D03*
X0358189Y0583858D03*
X0348189Y0583858D03*
X0338189Y0583858D03*
X0328189Y0583858D03*
X0318189Y0583858D03*
X0438189Y0573858D03*
X0428189Y0573858D03*
X0418189Y0573858D03*
X0408189Y0573858D03*
X0398189Y0573858D03*
X0388189Y0573858D03*
X0378189Y0573858D03*
X0368189Y0573858D03*
X0358189Y0573858D03*
X0348189Y0573858D03*
X0338189Y0573858D03*
X0328189Y0573858D03*
X0318189Y0573858D03*
X0438189Y0550039D03*
X0428189Y0550039D03*
X0418189Y0550039D03*
X0408189Y0550039D03*
X0398189Y0550039D03*
X0388189Y0550039D03*
X0378189Y0550039D03*
X0368189Y0550039D03*
X0358189Y0550039D03*
X0348189Y0550039D03*
X0338189Y0550039D03*
X0328189Y0550039D03*
X0318189Y0550039D03*
X0438189Y0540039D03*
X0428189Y0540039D03*
X0418189Y0540039D03*
X0408189Y0540039D03*
X0398189Y0540039D03*
X0388189Y0540039D03*
X0378189Y0540039D03*
X0368189Y0540039D03*
X0358189Y0540039D03*
X0348189Y0540039D03*
X0338189Y0540039D03*
X0328189Y0540039D03*
X0318189Y0540039D03*
X0295669Y0583858D03*
X0285669Y0583858D03*
X0275669Y0583858D03*
X0265669Y0583858D03*
X0255669Y0583858D03*
X0245669Y0583858D03*
X0235669Y0583858D03*
X0225669Y0583858D03*
X0215669Y0583858D03*
X0205669Y0583858D03*
X0295669Y0573858D03*
X0285669Y0573858D03*
X0275669Y0573858D03*
X0265669Y0573858D03*
X0255669Y0573858D03*
X0245669Y0573858D03*
X0235669Y0573858D03*
X0225669Y0573858D03*
X0215669Y0573858D03*
X0205669Y0573858D03*
X0295669Y0550039D03*
X0285669Y0550039D03*
X0275669Y0550039D03*
X0265669Y0550039D03*
X0255669Y0550039D03*
X0245669Y0550039D03*
X0235669Y0550039D03*
X0225669Y0550039D03*
X0215669Y0550039D03*
X0205669Y0550039D03*
X0295669Y0540039D03*
X0285669Y0540039D03*
X0275669Y0540039D03*
X0265669Y0540039D03*
X0255669Y0540039D03*
X0245669Y0540039D03*
X0235669Y0540039D03*
X0225669Y0540039D03*
X0215669Y0540039D03*
X0205669Y0540039D03*
D50*
X0178346Y0581496D03*
X0158661Y0581496D03*
X0138976Y0581496D03*
X0178346Y0559055D03*
X0158661Y0559055D03*
X0138976Y0559055D03*
X0178346Y0536614D03*
X0158661Y0536614D03*
X0138976Y0536614D03*
D70*
X0615748Y0590157D03*
X0100787Y0590157D03*
D92*
X0607677Y0609449D03*
X0108858Y0609449D03*
D15*
X0566929Y0511811D03*
X0630118Y0395000D03*
X0630118Y0405000D03*
X0630118Y0415000D03*
X0630118Y0425000D03*
X0630118Y0435000D03*
X0640118Y0395000D03*
X0640118Y0405000D03*
X0640118Y0415000D03*
X0640118Y0425000D03*
X0640118Y0435000D03*
X0650118Y0395000D03*
X0650118Y0405000D03*
X0650118Y0415000D03*
X0650118Y0425000D03*
X0650118Y0435000D03*
X0505906Y0511811D03*
D97*
X0358268Y0295276D03*
D15*
X0415118Y0128000D03*
X0312992Y0464567D03*
D68*
X0194764Y0076417D03*
X0284764Y0076417D03*
D80*
X0264764Y0126417D03*
X0254764Y0126417D03*
X0244764Y0126417D03*
X0234764Y0126417D03*
X0224764Y0126417D03*
X0214764Y0126417D03*
D15*
X0505906Y0476378D03*
D45*
X0122047Y0488346D03*
X0122047Y0468346D03*
D15*
X0517717Y0494094D03*
X0660118Y0395000D03*
X0660118Y0405000D03*
X0660118Y0415000D03*
X0660118Y0425000D03*
X0660118Y0435000D03*
X0670118Y0395000D03*
X0670118Y0405000D03*
X0670118Y0415000D03*
X0670118Y0425000D03*
X0670118Y0435000D03*
X0680118Y0395000D03*
X0680118Y0405000D03*
X0680118Y0415000D03*
X0680118Y0425000D03*
X0680118Y0435000D03*
X0415354Y0476378D03*
X0351118Y0128000D03*
X0470472Y0494094D03*
X0458661Y0476378D03*
X0263780Y0511811D03*
X0299213Y0476378D03*
D80*
X0240157Y0513406D03*
X0240157Y0498406D03*
D15*
X0263780Y0464567D03*
D44*
X0617375Y0086368D03*
X0615308Y0082923D03*
X0612356Y0087549D03*
X0598379Y0087254D03*
D15*
X0389764Y0480315D03*
X0537402Y0511811D03*
X0537402Y0494094D03*
D80*
X0553150Y0515551D03*
X0553150Y0496260D03*
D15*
X0216535Y0494094D03*
X0486220Y0245276D03*
X0216535Y0511811D03*
X0228346Y0494094D03*
D49*
X0641732Y0503937D03*
D15*
X0240157Y0482283D03*
X0486220Y0192520D03*
X0470472Y0476378D03*
X0485039Y0280315D03*
X0216535Y0476378D03*
X0299213Y0511811D03*
D45*
X0161417Y0488346D03*
X0161417Y0468346D03*
D15*
X0494094Y0494094D03*
X0660118Y0445000D03*
X0660118Y0455000D03*
X0660118Y0465000D03*
X0660118Y0475000D03*
X0660118Y0485000D03*
X0670118Y0445000D03*
X0670118Y0455000D03*
X0670118Y0465000D03*
X0670118Y0475000D03*
X0670118Y0485000D03*
X0680118Y0445000D03*
X0680118Y0455000D03*
X0680118Y0465000D03*
X0680118Y0475000D03*
X0680118Y0485000D03*
X0299213Y0494094D03*
X0188583Y0511811D03*
D49*
X0074803Y0503937D03*
D15*
X0517717Y0511811D03*
X0485039Y0293307D03*
X0458661Y0494094D03*
X0486220Y0227559D03*
X0386614Y0127953D03*
X0517717Y0464567D03*
X0233118Y0316000D03*
X0326772Y0511811D03*
X0287402Y0476378D03*
X0326772Y0494094D03*
D80*
X0251969Y0517520D03*
X0251969Y0498228D03*
D15*
X0690118Y0365000D03*
X0680118Y0365000D03*
X0670118Y0365000D03*
X0660118Y0365000D03*
X0650118Y0365000D03*
X0690118Y0375000D03*
X0680118Y0375000D03*
X0670118Y0375000D03*
X0660118Y0375000D03*
X0650118Y0375000D03*
X0690118Y0385000D03*
X0680118Y0385000D03*
X0670118Y0385000D03*
X0660118Y0385000D03*
X0650118Y0385000D03*
X0299213Y0464567D03*
X0251969Y0446850D03*
X0486220Y0209843D03*
X0240157Y0464567D03*
D45*
X0141732Y0488346D03*
X0141732Y0468346D03*
X0200787Y0488346D03*
X0200787Y0468346D03*
D15*
X0287402Y0494094D03*
X0444882Y0480315D03*
X0275591Y0511811D03*
X0415354Y0511811D03*
X0233071Y0303937D03*
X0630118Y0445000D03*
X0630118Y0455000D03*
X0630118Y0465000D03*
X0630118Y0475000D03*
X0630118Y0485000D03*
X0640118Y0445000D03*
X0640118Y0455000D03*
X0640118Y0465000D03*
X0640118Y0475000D03*
X0640118Y0485000D03*
X0650118Y0445000D03*
X0650118Y0455000D03*
X0650118Y0465000D03*
X0650118Y0475000D03*
X0650118Y0485000D03*
X0338583Y0494094D03*
X0578740Y0511811D03*
D16*
X0458465Y0231398D03*
X0119882Y0425886D03*
X0598622Y0425886D03*
X0260039Y0231398D03*
X0527362Y0170374D03*
X0119882Y0176280D03*
X0191142Y0431791D03*
X0452559Y0160138D03*
X0598622Y0176280D03*
X0191142Y0170374D03*
X0265945Y0160138D03*
X0527362Y0431791D03*
D79*
X0571850Y0214469D03*
X0571850Y0230217D03*
X0571850Y0245965D03*
X0571850Y0261713D03*
X0571850Y0277461D03*
X0571850Y0293209D03*
X0571850Y0308957D03*
X0571850Y0324705D03*
X0571850Y0340453D03*
X0571850Y0356201D03*
X0571850Y0371949D03*
X0571850Y0387697D03*
X0556102Y0222343D03*
X0556102Y0238091D03*
X0556102Y0253839D03*
X0556102Y0269587D03*
X0556102Y0285335D03*
X0556102Y0301083D03*
X0556102Y0316831D03*
X0556102Y0332579D03*
X0556102Y0348327D03*
X0556102Y0364075D03*
X0556102Y0379823D03*
X0540354Y0214469D03*
X0540354Y0230217D03*
X0540354Y0245965D03*
X0540354Y0261713D03*
X0540354Y0277461D03*
X0540354Y0293209D03*
X0540354Y0308957D03*
X0540354Y0324705D03*
X0540354Y0340453D03*
X0540354Y0356201D03*
X0540354Y0371949D03*
X0540354Y0387697D03*
X0304134Y0186909D03*
X0319882Y0186909D03*
X0335630Y0186909D03*
X0351378Y0186909D03*
X0367126Y0186909D03*
X0382874Y0186909D03*
X0398622Y0186909D03*
X0414370Y0186909D03*
X0312008Y0202657D03*
X0327756Y0202657D03*
X0343504Y0202657D03*
X0359252Y0202657D03*
X0375000Y0202657D03*
X0390748Y0202657D03*
X0406496Y0202657D03*
X0304134Y0218406D03*
X0319882Y0218406D03*
X0335630Y0218406D03*
X0351378Y0218406D03*
X0367126Y0218406D03*
X0382874Y0218406D03*
X0398622Y0218406D03*
X0414370Y0218406D03*
X0146654Y0387697D03*
X0146654Y0371949D03*
X0146654Y0356201D03*
X0146654Y0340453D03*
X0146654Y0324705D03*
X0146654Y0308957D03*
X0146654Y0293209D03*
X0146654Y0277461D03*
X0146654Y0261713D03*
X0146654Y0245965D03*
X0146654Y0230217D03*
X0146654Y0214469D03*
X0162402Y0379823D03*
X0162402Y0364075D03*
X0162402Y0348327D03*
X0162402Y0332579D03*
X0162402Y0316831D03*
X0162402Y0301083D03*
X0162402Y0285335D03*
X0162402Y0269587D03*
X0162402Y0253839D03*
X0162402Y0238091D03*
X0162402Y0222343D03*
X0178150Y0387697D03*
X0178150Y0371949D03*
X0178150Y0356201D03*
X0178150Y0340453D03*
X0178150Y0324705D03*
X0178150Y0308957D03*
X0178150Y0293209D03*
X0178150Y0277461D03*
X0178150Y0261713D03*
X0178150Y0245965D03*
X0178150Y0230217D03*
X0178150Y0214469D03*
D15*
X0363118Y0128000D03*
G36*
G01*
X0312205Y0069390D02*
X0312205Y0075098D01*
G75*
G02*
X0313189Y0076083I0000984J0000000D01*
G01*
X0317913Y0076083D01*
G75*
G02*
X0318898Y0075098I0000000J-000984D01*
G01*
X0318898Y0069390D01*
G75*
G02*
X0317913Y0068406I-000984J0000000D01*
G01*
X0313189Y0068406D01*
G75*
G02*
X0312205Y0069390I0000000J0000984D01*
G01*
G37*
D11*
X0325394Y0072244D03*
X0335236Y0072244D03*
X0345079Y0072244D03*
X0354921Y0072244D03*
X0364764Y0072244D03*
X0374606Y0072244D03*
X0384449Y0072244D03*
X0394291Y0072244D03*
X0404134Y0072244D03*
D59*
X0610236Y0025591D03*
D45*
X0102362Y0488346D03*
X0102362Y0468346D03*
D15*
X0482283Y0494094D03*
X0482283Y0511811D03*
X0251969Y0482283D03*
X0485118Y0304630D03*
X0505906Y0494094D03*
X0312992Y0476378D03*
X0263780Y0476378D03*
X0251969Y0464567D03*
X0517717Y0476378D03*
X0470472Y0511811D03*
X0366142Y0511811D03*
D33*
X0605118Y0480000D03*
X0622789Y0056053D02*
G01*
G75*
D31*
X0598380Y0087254D02*
D03*
X0612356Y0087549D02*
D03*
X0617376Y0086368D02*
D03*
X0615309Y0082923D02*
D03*
X0581181Y0113484D02*
%LPD*%
G01*
D37*
X0440472Y0061909D03*
D64*
X0450472Y0061909D03*
X0460472Y0061909D03*
D103*
X0577008Y0102657D03*
X0557008Y0106657D03*
X0557008Y0098657D03*
M02*
