G75*
G70*
%OFA0B0*%
%FSLAX25Y25*%
%IPPOS*%
%LPD*%
%AMOC8*
5,1,8,0,0,1.08239X$1,22.5*
%
%AMM7*
21,1,0.035430,0.030320,-0.000000,0.000000,270.000000*
21,1,0.028350,0.037400,-0.000000,0.000000,270.000000*
1,1,0.007090,-0.015160,-0.014170*
1,1,0.007090,-0.015160,0.014170*
1,1,0.007090,0.015160,0.014170*
1,1,0.007090,0.015160,-0.014170*
%
%AMM8*
21,1,0.033470,0.026770,-0.000000,0.000000,90.000000*
21,1,0.026770,0.033470,-0.000000,0.000000,90.000000*
1,1,0.006690,0.013390,0.013390*
1,1,0.006690,0.013390,-0.013390*
1,1,0.006690,-0.013390,-0.013390*
1,1,0.006690,-0.013390,0.013390*
%
%AMM9*
21,1,0.027560,0.030710,-0.000000,0.000000,270.000000*
21,1,0.022050,0.036220,-0.000000,0.000000,270.000000*
1,1,0.005510,-0.015350,-0.011020*
1,1,0.005510,-0.015350,0.011020*
1,1,0.005510,0.015350,0.011020*
1,1,0.005510,0.015350,-0.011020*
%
%ADD104M7*%
%ADD105O,0.02362X0.08661*%
%ADD106M8*%
%ADD107M9*%
%ADD24R,0.07087X0.09843*%
%ADD30R,0.07874X0.14961*%
%ADD34R,0.03543X0.03150*%
%ADD39R,0.17913X0.20669*%
%ADD40R,0.04724X0.08661*%
%ADD41R,0.05709X0.01772*%
%ADD43R,0.10827X0.12008*%
%ADD44C,0.02362*%
%ADD56R,0.18110X0.04331*%
%ADD57O,0.00000X0.00000*%
%ADD61R,0.04803X0.02559*%
%ADD65R,0.05315X0.02717*%
%ADD66R,0.07874X0.05906*%
%ADD71R,0.10000X0.05984*%
%ADD95R,0.03150X0.03543*%
X0000000Y0000000D02*
%LPD*%
G01*
D24*
X0429134Y0498031D03*
X0429134Y0513780D03*
D39*
X0066929Y0348228D03*
X0066929Y0370079D03*
X0047835Y0348228D03*
X0047835Y0370079D03*
D56*
X0021358Y0369154D03*
X0021358Y0349154D03*
D39*
X0066929Y0096260D03*
X0066929Y0118110D03*
X0047835Y0118110D03*
X0047835Y0096260D03*
D56*
X0021358Y0117185D03*
X0021358Y0097185D03*
G36*
G01*
X0014272Y0448031D02*
X0014272Y0459252D01*
G75*
G02*
X0015256Y0460236I0000984J0000000D01*
G01*
X0018110Y0460236D01*
G75*
G02*
X0019094Y0459252I0000000J-000984D01*
G01*
X0019094Y0448031D01*
G75*
G02*
X0018110Y0447047I-000984J0000000D01*
G01*
X0015256Y0447047D01*
G75*
G02*
X0014272Y0448031I0000000J0000984D01*
G01*
G37*
G36*
G01*
X0037598Y0448031D02*
X0037598Y0459252D01*
G75*
G02*
X0038583Y0460236I0000984J0000000D01*
G01*
X0041437Y0460236D01*
G75*
G02*
X0042421Y0459252I0000000J-000984D01*
G01*
X0042421Y0448031D01*
G75*
G02*
X0041437Y0447047I-000984J0000000D01*
G01*
X0038583Y0447047D01*
G75*
G02*
X0037598Y0448031I0000000J0000984D01*
G01*
G37*
G36*
G01*
X0343248Y0479213D02*
X0341791Y0479213D01*
G75*
G02*
X0341260Y0479744I0000000J0000531D01*
G01*
X0341260Y0480807D01*
G75*
G02*
X0341791Y0481339I0000531J0000000D01*
G01*
X0343248Y0481339D01*
G75*
G02*
X0343780Y0480807I0000000J-000531D01*
G01*
X0343780Y0479744D01*
G75*
G02*
X0343248Y0479213I-000531J0000000D01*
G01*
G37*
G36*
G01*
X0343248Y0483228D02*
X0341791Y0483228D01*
G75*
G02*
X0341260Y0483760I0000000J0000531D01*
G01*
X0341260Y0484823D01*
G75*
G02*
X0341791Y0485354I0000531J0000000D01*
G01*
X0343248Y0485354D01*
G75*
G02*
X0343780Y0484823I0000000J-000531D01*
G01*
X0343780Y0483760D01*
G75*
G02*
X0343248Y0483228I-000531J0000000D01*
G01*
G37*
G36*
G01*
X0010197Y0382185D02*
X0007126Y0382185D01*
G75*
G02*
X0006850Y0382461I0000000J0000276D01*
G01*
X0006850Y0384665D01*
G75*
G02*
X0007126Y0384941I0000276J0000000D01*
G01*
X0010197Y0384941D01*
G75*
G02*
X0010472Y0384665I0000000J-000276D01*
G01*
X0010472Y0382461D01*
G75*
G02*
X0010197Y0382185I-000276J0000000D01*
G01*
G37*
G36*
G01*
X0010197Y0388484D02*
X0007126Y0388484D01*
G75*
G02*
X0006850Y0388760I0000000J0000276D01*
G01*
X0006850Y0390965D01*
G75*
G02*
X0007126Y0391240I0000276J0000000D01*
G01*
X0010197Y0391240D01*
G75*
G02*
X0010472Y0390965I0000000J-000276D01*
G01*
X0010472Y0388760D01*
G75*
G02*
X0010197Y0388484I-000276J0000000D01*
G01*
G37*
G36*
G01*
X0302913Y0118839D02*
X0300236Y0118839D01*
G75*
G02*
X0299902Y0119173I0000000J0000335D01*
G01*
X0299902Y0121850D01*
G75*
G02*
X0300236Y0122185I0000335J0000000D01*
G01*
X0302913Y0122185D01*
G75*
G02*
X0303248Y0121850I0000000J-000335D01*
G01*
X0303248Y0119173D01*
G75*
G02*
X0302913Y0118839I-000335J0000000D01*
G01*
G37*
G36*
G01*
X0302913Y0125059D02*
X0300236Y0125059D01*
G75*
G02*
X0299902Y0125394I0000000J0000335D01*
G01*
X0299902Y0128071D01*
G75*
G02*
X0300236Y0128406I0000335J0000000D01*
G01*
X0302913Y0128406D01*
G75*
G02*
X0303248Y0128071I0000000J-000335D01*
G01*
X0303248Y0125394D01*
G75*
G02*
X0302913Y0125059I-000335J0000000D01*
G01*
G37*
D24*
X0389764Y0498031D03*
X0389764Y0513780D03*
G36*
G01*
X0014272Y0259055D02*
X0014272Y0270276D01*
G75*
G02*
X0015256Y0271260I0000984J0000000D01*
G01*
X0018110Y0271260D01*
G75*
G02*
X0019094Y0270276I0000000J-000984D01*
G01*
X0019094Y0259055D01*
G75*
G02*
X0018110Y0258071I-000984J0000000D01*
G01*
X0015256Y0258071D01*
G75*
G02*
X0014272Y0259055I0000000J0000984D01*
G01*
G37*
G36*
G01*
X0037598Y0259055D02*
X0037598Y0270276D01*
G75*
G02*
X0038583Y0271260I0000984J0000000D01*
G01*
X0041437Y0271260D01*
G75*
G02*
X0042421Y0270276I0000000J-000984D01*
G01*
X0042421Y0259055D01*
G75*
G02*
X0041437Y0258071I-000984J0000000D01*
G01*
X0038583Y0258071D01*
G75*
G02*
X0037598Y0259055I0000000J0000984D01*
G01*
G37*
G36*
G01*
X0174457Y0109307D02*
X0177528Y0109307D01*
G75*
G02*
X0177803Y0109032I0000000J-000276D01*
G01*
X0177803Y0106827D01*
G75*
G02*
X0177528Y0106551I-000276J0000000D01*
G01*
X0174457Y0106551D01*
G75*
G02*
X0174181Y0106827I0000000J0000276D01*
G01*
X0174181Y0109032D01*
G75*
G02*
X0174457Y0109307I0000276J0000000D01*
G01*
G37*
G36*
G01*
X0174457Y0103008D02*
X0177528Y0103008D01*
G75*
G02*
X0177803Y0102732I0000000J-000276D01*
G01*
X0177803Y0100528D01*
G75*
G02*
X0177528Y0100252I-000276J0000000D01*
G01*
X0174457Y0100252D01*
G75*
G02*
X0174181Y0100528I0000000J0000276D01*
G01*
X0174181Y0102732D01*
G75*
G02*
X0174457Y0103008I0000276J0000000D01*
G01*
G37*
D65*
X0220472Y0098819D03*
X0220472Y0093819D03*
X0220472Y0088819D03*
X0220472Y0083819D03*
X0259222Y0083819D03*
X0259222Y0098819D03*
X0259222Y0093819D03*
X0259222Y0088819D03*
D66*
X0351772Y0485433D03*
X0351772Y0476378D03*
X0351772Y0467323D03*
D30*
X0376575Y0476378D03*
G36*
G01*
X0010197Y0130217D02*
X0007126Y0130217D01*
G75*
G02*
X0006850Y0130492I0000000J0000276D01*
G01*
X0006850Y0132697D01*
G75*
G02*
X0007126Y0132972I0000276J0000000D01*
G01*
X0010197Y0132972D01*
G75*
G02*
X0010472Y0132697I0000000J-000276D01*
G01*
X0010472Y0130492D01*
G75*
G02*
X0010197Y0130217I-000276J0000000D01*
G01*
G37*
G36*
G01*
X0010197Y0136516D02*
X0007126Y0136516D01*
G75*
G02*
X0006850Y0136791I0000000J0000276D01*
G01*
X0006850Y0138996D01*
G75*
G02*
X0007126Y0139272I0000276J0000000D01*
G01*
X0010197Y0139272D01*
G75*
G02*
X0010472Y0138996I0000000J-000276D01*
G01*
X0010472Y0136791D01*
G75*
G02*
X0010197Y0136516I-000276J0000000D01*
G01*
G37*
D24*
X0444882Y0498031D03*
X0444882Y0513780D03*
G36*
G01*
X0237697Y0511614D02*
X0242618Y0511614D01*
G75*
G02*
X0243012Y0511220I0000000J-000394D01*
G01*
X0243012Y0508071D01*
G75*
G02*
X0242618Y0507677I-000394J0000000D01*
G01*
X0237697Y0507677D01*
G75*
G02*
X0237303Y0508071I0000000J0000394D01*
G01*
X0237303Y0511220D01*
G75*
G02*
X0237697Y0511614I0000394J0000000D01*
G01*
G37*
G36*
G01*
X0237697Y0504134D02*
X0242618Y0504134D01*
G75*
G02*
X0243012Y0503740I0000000J-000394D01*
G01*
X0243012Y0500590D01*
G75*
G02*
X0242618Y0500197I-000394J0000000D01*
G01*
X0237697Y0500197D01*
G75*
G02*
X0237303Y0500590I0000000J0000394D01*
G01*
X0237303Y0503740D01*
G75*
G02*
X0237697Y0504134I0000394J0000000D01*
G01*
G37*
G36*
G01*
X0174654Y0097358D02*
X0177331Y0097358D01*
G75*
G02*
X0177665Y0097024I0000000J-000335D01*
G01*
X0177665Y0094346D01*
G75*
G02*
X0177331Y0094012I-000335J0000000D01*
G01*
X0174654Y0094012D01*
G75*
G02*
X0174319Y0094346I0000000J0000335D01*
G01*
X0174319Y0097024D01*
G75*
G02*
X0174654Y0097358I0000335J0000000D01*
G01*
G37*
G36*
G01*
X0174654Y0091138D02*
X0177331Y0091138D01*
G75*
G02*
X0177665Y0090803I0000000J-000335D01*
G01*
X0177665Y0088126D01*
G75*
G02*
X0177331Y0087791I-000335J0000000D01*
G01*
X0174654Y0087791D01*
G75*
G02*
X0174319Y0088126I0000000J0000335D01*
G01*
X0174319Y0090803D01*
G75*
G02*
X0174654Y0091138I0000335J0000000D01*
G01*
G37*
D39*
X0047835Y0411220D03*
X0066929Y0433071D03*
X0066929Y0411220D03*
X0047835Y0433071D03*
D56*
X0021358Y0432146D03*
X0021358Y0412146D03*
D57*
X0621706Y0081152D03*
G36*
G01*
X0549606Y0510256D02*
X0549606Y0512972D01*
G75*
G02*
X0550512Y0513878I0000906J0000000D01*
G01*
X0555787Y0513878D01*
G75*
G02*
X0556693Y0512972I0000000J-000906D01*
G01*
X0556693Y0510256D01*
G75*
G02*
X0555787Y0509350I-000906J0000000D01*
G01*
X0550512Y0509350D01*
G75*
G02*
X0549606Y0510256I0000000J0000906D01*
G01*
G37*
G36*
G01*
X0549606Y0498839D02*
X0549606Y0501555D01*
G75*
G02*
X0550512Y0502461I0000906J0000000D01*
G01*
X0555787Y0502461D01*
G75*
G02*
X0556693Y0501555I0000000J-000906D01*
G01*
X0556693Y0498839D01*
G75*
G02*
X0555787Y0497933I-000906J0000000D01*
G01*
X0550512Y0497933D01*
G75*
G02*
X0549606Y0498839I0000000J0000906D01*
G01*
G37*
D24*
X0314173Y0498031D03*
X0314173Y0513780D03*
G36*
G01*
X0191504Y0100390D02*
X0188827Y0100390D01*
G75*
G02*
X0188492Y0100724I0000000J0000335D01*
G01*
X0188492Y0103402D01*
G75*
G02*
X0188827Y0103736I0000335J0000000D01*
G01*
X0191504Y0103736D01*
G75*
G02*
X0191839Y0103402I0000000J-000335D01*
G01*
X0191839Y0100724D01*
G75*
G02*
X0191504Y0100390I-000335J0000000D01*
G01*
G37*
G36*
G01*
X0191504Y0106610D02*
X0188827Y0106610D01*
G75*
G02*
X0188492Y0106945I0000000J0000335D01*
G01*
X0188492Y0109622D01*
G75*
G02*
X0188827Y0109957I0000335J0000000D01*
G01*
X0191504Y0109957D01*
G75*
G02*
X0191839Y0109622I0000000J-000335D01*
G01*
X0191839Y0106945D01*
G75*
G02*
X0191504Y0106610I-000335J0000000D01*
G01*
G37*
G36*
G01*
X0014272Y0196063D02*
X0014272Y0207283D01*
G75*
G02*
X0015256Y0208268I0000984J0000000D01*
G01*
X0018110Y0208268D01*
G75*
G02*
X0019094Y0207283I0000000J-000984D01*
G01*
X0019094Y0196063D01*
G75*
G02*
X0018110Y0195079I-000984J0000000D01*
G01*
X0015256Y0195079D01*
G75*
G02*
X0014272Y0196063I0000000J0000984D01*
G01*
G37*
G36*
G01*
X0037598Y0196063D02*
X0037598Y0207283D01*
G75*
G02*
X0038583Y0208268I0000984J0000000D01*
G01*
X0041437Y0208268D01*
G75*
G02*
X0042421Y0207283I0000000J-000984D01*
G01*
X0042421Y0196063D01*
G75*
G02*
X0041437Y0195079I-000984J0000000D01*
G01*
X0038583Y0195079D01*
G75*
G02*
X0037598Y0196063I0000000J0000984D01*
G01*
G37*
G36*
G01*
X0014272Y0133071D02*
X0014272Y0144291D01*
G75*
G02*
X0015256Y0145276I0000984J0000000D01*
G01*
X0018110Y0145276D01*
G75*
G02*
X0019094Y0144291I0000000J-000984D01*
G01*
X0019094Y0133071D01*
G75*
G02*
X0018110Y0132087I-000984J0000000D01*
G01*
X0015256Y0132087D01*
G75*
G02*
X0014272Y0133071I0000000J0000984D01*
G01*
G37*
G36*
G01*
X0037598Y0133071D02*
X0037598Y0144291D01*
G75*
G02*
X0038583Y0145276I0000984J0000000D01*
G01*
X0041437Y0145276D01*
G75*
G02*
X0042421Y0144291I0000000J-000984D01*
G01*
X0042421Y0133071D01*
G75*
G02*
X0041437Y0132087I-000984J0000000D01*
G01*
X0038583Y0132087D01*
G75*
G02*
X0037598Y0133071I0000000J0000984D01*
G01*
G37*
D39*
X0047835Y0307087D03*
X0066929Y0285236D03*
X0066929Y0307087D03*
X0047835Y0285236D03*
D56*
X0021358Y0306161D03*
X0021358Y0286161D03*
G36*
G01*
X0010197Y0445177D02*
X0007126Y0445177D01*
G75*
G02*
X0006850Y0445453I0000000J0000276D01*
G01*
X0006850Y0447657D01*
G75*
G02*
X0007126Y0447933I0000276J0000000D01*
G01*
X0010197Y0447933D01*
G75*
G02*
X0010472Y0447657I0000000J-000276D01*
G01*
X0010472Y0445453D01*
G75*
G02*
X0010197Y0445177I-000276J0000000D01*
G01*
G37*
G36*
G01*
X0010197Y0451476D02*
X0007126Y0451476D01*
G75*
G02*
X0006850Y0451752I0000000J0000276D01*
G01*
X0006850Y0453957D01*
G75*
G02*
X0007126Y0454232I0000276J0000000D01*
G01*
X0010197Y0454232D01*
G75*
G02*
X0010472Y0453957I0000000J-000276D01*
G01*
X0010472Y0451752D01*
G75*
G02*
X0010197Y0451476I-000276J0000000D01*
G01*
G37*
D39*
X0066929Y0244094D03*
X0047835Y0244094D03*
X0047835Y0222244D03*
X0066929Y0222244D03*
D56*
X0021358Y0243169D03*
X0021358Y0223169D03*
G36*
G01*
X0014272Y0385039D02*
X0014272Y0396260D01*
G75*
G02*
X0015256Y0397244I0000984J0000000D01*
G01*
X0018110Y0397244D01*
G75*
G02*
X0019094Y0396260I0000000J-000984D01*
G01*
X0019094Y0385039D01*
G75*
G02*
X0018110Y0384055I-000984J0000000D01*
G01*
X0015256Y0384055D01*
G75*
G02*
X0014272Y0385039I0000000J0000984D01*
G01*
G37*
G36*
G01*
X0037598Y0385039D02*
X0037598Y0396260D01*
G75*
G02*
X0038583Y0397244I0000984J0000000D01*
G01*
X0041437Y0397244D01*
G75*
G02*
X0042421Y0396260I0000000J-000984D01*
G01*
X0042421Y0385039D01*
G75*
G02*
X0041437Y0384055I-000984J0000000D01*
G01*
X0038583Y0384055D01*
G75*
G02*
X0037598Y0385039I0000000J0000984D01*
G01*
G37*
G36*
G01*
X0248425Y0512224D02*
X0248425Y0514941D01*
G75*
G02*
X0249331Y0515846I0000906J0000000D01*
G01*
X0254606Y0515846D01*
G75*
G02*
X0255512Y0514941I0000000J-000906D01*
G01*
X0255512Y0512224D01*
G75*
G02*
X0254606Y0511319I-000906J0000000D01*
G01*
X0249331Y0511319D01*
G75*
G02*
X0248425Y0512224I0000000J0000906D01*
G01*
G37*
G36*
G01*
X0248425Y0500807D02*
X0248425Y0503524D01*
G75*
G02*
X0249331Y0504429I0000906J0000000D01*
G01*
X0254606Y0504429D01*
G75*
G02*
X0255512Y0503524I0000000J-000906D01*
G01*
X0255512Y0500807D01*
G75*
G02*
X0254606Y0499902I-000906J0000000D01*
G01*
X0249331Y0499902D01*
G75*
G02*
X0248425Y0500807I0000000J0000906D01*
G01*
G37*
D39*
X0047835Y0181102D03*
X0066929Y0159252D03*
X0047835Y0159252D03*
X0066929Y0181102D03*
D56*
X0021358Y0180177D03*
X0021358Y0160177D03*
G36*
G01*
X0290394Y0106358D02*
X0293071Y0106358D01*
G75*
G02*
X0293406Y0106024I0000000J-000335D01*
G01*
X0293406Y0103346D01*
G75*
G02*
X0293071Y0103012I-000335J0000000D01*
G01*
X0290394Y0103012D01*
G75*
G02*
X0290059Y0103346I0000000J0000335D01*
G01*
X0290059Y0106024D01*
G75*
G02*
X0290394Y0106358I0000335J0000000D01*
G01*
G37*
G36*
G01*
X0290394Y0100138D02*
X0293071Y0100138D01*
G75*
G02*
X0293406Y0099803I0000000J-000335D01*
G01*
X0293406Y0097126D01*
G75*
G02*
X0293071Y0096791I-000335J0000000D01*
G01*
X0290394Y0096791D01*
G75*
G02*
X0290059Y0097126I0000000J0000335D01*
G01*
X0290059Y0099803D01*
G75*
G02*
X0290394Y0100138I0000335J0000000D01*
G01*
G37*
D65*
X0148921Y0086988D03*
D71*
X0162921Y0079508D03*
X0162921Y0089508D03*
D65*
X0148921Y0091988D03*
D71*
X0162921Y0099508D03*
D65*
X0148921Y0096988D03*
D71*
X0162921Y0109508D03*
D65*
X0148921Y0101988D03*
X0110171Y0101988D03*
D71*
X0096921Y0109508D03*
X0096921Y0099508D03*
D65*
X0110171Y0096988D03*
D71*
X0096921Y0089508D03*
D65*
X0110171Y0091988D03*
X0110171Y0086988D03*
D71*
X0096921Y0079508D03*
G36*
G01*
X0290984Y0128150D02*
X0294055Y0128150D01*
G75*
G02*
X0294331Y0127874I0000000J-000276D01*
G01*
X0294331Y0125669D01*
G75*
G02*
X0294055Y0125394I-000276J0000000D01*
G01*
X0290984Y0125394D01*
G75*
G02*
X0290709Y0125669I0000000J0000276D01*
G01*
X0290709Y0127874D01*
G75*
G02*
X0290984Y0128150I0000276J0000000D01*
G01*
G37*
G36*
G01*
X0290984Y0121850D02*
X0294055Y0121850D01*
G75*
G02*
X0294331Y0121575I0000000J-000276D01*
G01*
X0294331Y0119370D01*
G75*
G02*
X0294055Y0119094I-000276J0000000D01*
G01*
X0290984Y0119094D01*
G75*
G02*
X0290709Y0119370I0000000J0000276D01*
G01*
X0290709Y0121575D01*
G75*
G02*
X0290984Y0121850I0000276J0000000D01*
G01*
G37*
G36*
G01*
X0010197Y0256201D02*
X0007126Y0256201D01*
G75*
G02*
X0006850Y0256476I0000000J0000276D01*
G01*
X0006850Y0258681D01*
G75*
G02*
X0007126Y0258957I0000276J0000000D01*
G01*
X0010197Y0258957D01*
G75*
G02*
X0010472Y0258681I0000000J-000276D01*
G01*
X0010472Y0256476D01*
G75*
G02*
X0010197Y0256201I-000276J0000000D01*
G01*
G37*
G36*
G01*
X0010197Y0262500D02*
X0007126Y0262500D01*
G75*
G02*
X0006850Y0262776I0000000J0000276D01*
G01*
X0006850Y0264980D01*
G75*
G02*
X0007126Y0265256I0000276J0000000D01*
G01*
X0010197Y0265256D01*
G75*
G02*
X0010472Y0264980I0000000J-000276D01*
G01*
X0010472Y0262776D01*
G75*
G02*
X0010197Y0262500I-000276J0000000D01*
G01*
G37*
G36*
G01*
X0010197Y0193209D02*
X0007126Y0193209D01*
G75*
G02*
X0006850Y0193484I0000000J0000276D01*
G01*
X0006850Y0195689D01*
G75*
G02*
X0007126Y0195965I0000276J0000000D01*
G01*
X0010197Y0195965D01*
G75*
G02*
X0010472Y0195689I0000000J-000276D01*
G01*
X0010472Y0193484D01*
G75*
G02*
X0010197Y0193209I-000276J0000000D01*
G01*
G37*
G36*
G01*
X0010197Y0199508D02*
X0007126Y0199508D01*
G75*
G02*
X0006850Y0199783I0000000J0000276D01*
G01*
X0006850Y0201988D01*
G75*
G02*
X0007126Y0202264I0000276J0000000D01*
G01*
X0010197Y0202264D01*
G75*
G02*
X0010472Y0201988I0000000J-000276D01*
G01*
X0010472Y0199783D01*
G75*
G02*
X0010197Y0199508I-000276J0000000D01*
G01*
G37*
G36*
G01*
X0010197Y0319193D02*
X0007126Y0319193D01*
G75*
G02*
X0006850Y0319469I0000000J0000276D01*
G01*
X0006850Y0321673D01*
G75*
G02*
X0007126Y0321949I0000276J0000000D01*
G01*
X0010197Y0321949D01*
G75*
G02*
X0010472Y0321673I0000000J-000276D01*
G01*
X0010472Y0319469D01*
G75*
G02*
X0010197Y0319193I-000276J0000000D01*
G01*
G37*
G36*
G01*
X0010197Y0325492D02*
X0007126Y0325492D01*
G75*
G02*
X0006850Y0325768I0000000J0000276D01*
G01*
X0006850Y0327972D01*
G75*
G02*
X0007126Y0328248I0000276J0000000D01*
G01*
X0010197Y0328248D01*
G75*
G02*
X0010472Y0327972I0000000J-000276D01*
G01*
X0010472Y0325768D01*
G75*
G02*
X0010197Y0325492I-000276J0000000D01*
G01*
G37*
D24*
X0352362Y0498031D03*
X0352362Y0513780D03*
G36*
G01*
X0014272Y0322047D02*
X0014272Y0333268D01*
G75*
G02*
X0015256Y0334252I0000984J0000000D01*
G01*
X0018110Y0334252D01*
G75*
G02*
X0019094Y0333268I0000000J-000984D01*
G01*
X0019094Y0322047D01*
G75*
G02*
X0018110Y0321063I-000984J0000000D01*
G01*
X0015256Y0321063D01*
G75*
G02*
X0014272Y0322047I0000000J0000984D01*
G01*
G37*
G36*
G01*
X0037598Y0322047D02*
X0037598Y0333268D01*
G75*
G02*
X0038583Y0334252I0000984J0000000D01*
G01*
X0041437Y0334252D01*
G75*
G02*
X0042421Y0333268I0000000J-000984D01*
G01*
X0042421Y0322047D01*
G75*
G02*
X0041437Y0321063I-000984J0000000D01*
G01*
X0038583Y0321063D01*
G75*
G02*
X0037598Y0322047I0000000J0000984D01*
G01*
G37*
X0622789Y0056053D02*
G01*
G75*
D104*
X0609777Y0067470D02*
D03*
X0619029Y0063730D02*
D03*
D104*
X0609777Y0059990D02*
D03*
D105*
X0598163Y0075029D02*
D03*
X0603163Y0075029D02*
D03*
X0608163Y0075029D02*
D03*
X0613163Y0075029D02*
D03*
X0598163Y0093927D02*
D03*
X0603163Y0093927D02*
D03*
X0608163Y0093927D02*
D03*
X0613163Y0093927D02*
D03*
D106*
X0618458Y0090738D02*
D03*
X0618458Y0096958D02*
D03*
X0618458Y0082392D02*
D03*
X0618458Y0076171D02*
D03*
D107*
X0604876Y0060580D02*
D03*
X0604876Y0066880D02*
D03*
D44*
X0620919Y0071210D02*
D03*
X0581181Y0113484D02*
%LPD*%
G01*
G36*
G01*
X0512588Y0077185D02*
X0513947Y0077185D01*
G75*
G02*
X0514527Y0076604I0000000J-000581D01*
G01*
X0514527Y0075443D01*
G75*
G02*
X0513947Y0074862I-000581J0000000D01*
G01*
X0512588Y0074862D01*
G75*
G02*
X0512008Y0075443I0000000J0000581D01*
G01*
X0512008Y0076604D01*
G75*
G02*
X0512588Y0077185I0000581J0000000D01*
G01*
G37*
G36*
G01*
X0512588Y0073366D02*
X0513947Y0073366D01*
G75*
G02*
X0514527Y0072785I0000000J-000581D01*
G01*
X0514527Y0071624D01*
G75*
G02*
X0513947Y0071043I-000581J0000000D01*
G01*
X0512588Y0071043D01*
G75*
G02*
X0512008Y0071624I0000000J0000581D01*
G01*
X0512008Y0072785D01*
G75*
G02*
X0512588Y0073366I0000581J0000000D01*
G01*
G37*
G36*
G01*
X0477766Y0101842D02*
X0477766Y0103201D01*
G75*
G02*
X0478346Y0103781I0000581J0000000D01*
G01*
X0479508Y0103781D01*
G75*
G02*
X0480088Y0103201I0000000J-000581D01*
G01*
X0480088Y0101842D01*
G75*
G02*
X0479508Y0101262I-000581J0000000D01*
G01*
X0478346Y0101262D01*
G75*
G02*
X0477766Y0101842I0000000J0000581D01*
G01*
G37*
G36*
G01*
X0481585Y0101842D02*
X0481585Y0103201D01*
G75*
G02*
X0482165Y0103781I0000581J0000000D01*
G01*
X0483327Y0103781D01*
G75*
G02*
X0483907Y0103201I0000000J-000581D01*
G01*
X0483907Y0101842D01*
G75*
G02*
X0483327Y0101262I-000581J0000000D01*
G01*
X0482165Y0101262D01*
G75*
G02*
X0481585Y0101842I0000000J0000581D01*
G01*
G37*
G36*
G01*
X0475157Y0076951D02*
X0475157Y0075592D01*
G75*
G02*
X0474577Y0075012I-000581J0000000D01*
G01*
X0473415Y0075012D01*
G75*
G02*
X0472835Y0075592I0000000J0000581D01*
G01*
X0472835Y0076951D01*
G75*
G02*
X0473415Y0077531I0000581J0000000D01*
G01*
X0474577Y0077531D01*
G75*
G02*
X0475157Y0076951I0000000J-000581D01*
G01*
G37*
G36*
G01*
X0471338Y0076951D02*
X0471338Y0075592D01*
G75*
G02*
X0470758Y0075012I-000581J0000000D01*
G01*
X0469596Y0075012D01*
G75*
G02*
X0469016Y0075592I0000000J0000581D01*
G01*
X0469016Y0076951D01*
G75*
G02*
X0469596Y0077531I0000581J0000000D01*
G01*
X0470758Y0077531D01*
G75*
G02*
X0471338Y0076951I0000000J-000581D01*
G01*
G37*
G36*
G01*
X0575181Y0093332D02*
X0575181Y0091974D01*
G75*
G02*
X0574600Y0091393I-000581J0000000D01*
G01*
X0573439Y0091393D01*
G75*
G02*
X0572858Y0091974I0000000J0000581D01*
G01*
X0572858Y0093332D01*
G75*
G02*
X0573439Y0093913I0000581J0000000D01*
G01*
X0574600Y0093913D01*
G75*
G02*
X0575181Y0093332I0000000J-000581D01*
G01*
G37*
G36*
G01*
X0571362Y0093332D02*
X0571362Y0091974D01*
G75*
G02*
X0570781Y0091393I-000581J0000000D01*
G01*
X0569620Y0091393D01*
G75*
G02*
X0569039Y0091974I0000000J0000581D01*
G01*
X0569039Y0093332D01*
G75*
G02*
X0569620Y0093913I0000581J0000000D01*
G01*
X0570781Y0093913D01*
G75*
G02*
X0571362Y0093332I0000000J-000581D01*
G01*
G37*
G36*
G01*
X0561619Y0079330D02*
X0559601Y0079330D01*
G75*
G02*
X0558740Y0080192I0000000J0000861D01*
G01*
X0558740Y0081914D01*
G75*
G02*
X0559601Y0082775I0000861J0000000D01*
G01*
X0561619Y0082775D01*
G75*
G02*
X0562480Y0081914I0000000J-000861D01*
G01*
X0562480Y0080192D01*
G75*
G02*
X0561619Y0079330I-000861J0000000D01*
G01*
G37*
G36*
G01*
X0561619Y0085531D02*
X0559601Y0085531D01*
G75*
G02*
X0558740Y0086392I0000000J0000861D01*
G01*
X0558740Y0088115D01*
G75*
G02*
X0559601Y0088976I0000861J0000000D01*
G01*
X0561619Y0088976D01*
G75*
G02*
X0562480Y0088115I0000000J-000861D01*
G01*
X0562480Y0086392D01*
G75*
G02*
X0561619Y0085531I-000861J0000000D01*
G01*
G37*
G36*
G01*
X0490909Y0076280D02*
X0490909Y0074263D01*
G75*
G02*
X0490048Y0073401I-000861J0000000D01*
G01*
X0488326Y0073401D01*
G75*
G02*
X0487464Y0074263I0000000J0000861D01*
G01*
X0487464Y0076280D01*
G75*
G02*
X0488326Y0077141I0000861J0000000D01*
G01*
X0490048Y0077141D01*
G75*
G02*
X0490909Y0076280I0000000J-000861D01*
G01*
G37*
G36*
G01*
X0484709Y0076280D02*
X0484709Y0074263D01*
G75*
G02*
X0483847Y0073401I-000861J0000000D01*
G01*
X0482125Y0073401D01*
G75*
G02*
X0481264Y0074263I0000000J0000861D01*
G01*
X0481264Y0076280D01*
G75*
G02*
X0482125Y0077141I0000861J0000000D01*
G01*
X0483847Y0077141D01*
G75*
G02*
X0484709Y0076280I0000000J-000861D01*
G01*
G37*
G36*
G01*
X0485516Y0101842D02*
X0485516Y0103201D01*
G75*
G02*
X0486096Y0103781I0000581J0000000D01*
G01*
X0487258Y0103781D01*
G75*
G02*
X0487838Y0103201I0000000J-000581D01*
G01*
X0487838Y0101842D01*
G75*
G02*
X0487258Y0101262I-000581J0000000D01*
G01*
X0486096Y0101262D01*
G75*
G02*
X0485516Y0101842I0000000J0000581D01*
G01*
G37*
G36*
G01*
X0489335Y0101842D02*
X0489335Y0103201D01*
G75*
G02*
X0489915Y0103781I0000581J0000000D01*
G01*
X0491077Y0103781D01*
G75*
G02*
X0491657Y0103201I0000000J-000581D01*
G01*
X0491657Y0101842D01*
G75*
G02*
X0491077Y0101262I-000581J0000000D01*
G01*
X0489915Y0101262D01*
G75*
G02*
X0489335Y0101842I0000000J0000581D01*
G01*
G37*
G36*
G01*
X0473407Y0085342D02*
X0474766Y0085342D01*
G75*
G02*
X0475346Y0084762I0000000J-000581D01*
G01*
X0475346Y0083600D01*
G75*
G02*
X0474766Y0083019I-000581J0000000D01*
G01*
X0473407Y0083019D01*
G75*
G02*
X0472827Y0083600I0000000J0000581D01*
G01*
X0472827Y0084762D01*
G75*
G02*
X0473407Y0085342I0000581J0000000D01*
G01*
G37*
G36*
G01*
X0473407Y0081523D02*
X0474766Y0081523D01*
G75*
G02*
X0475346Y0080943I0000000J-000581D01*
G01*
X0475346Y0079781D01*
G75*
G02*
X0474766Y0079201I-000581J0000000D01*
G01*
X0473407Y0079201D01*
G75*
G02*
X0472827Y0079781I0000000J0000581D01*
G01*
X0472827Y0080943D01*
G75*
G02*
X0473407Y0081523I0000581J0000000D01*
G01*
G37*
G36*
G01*
X0479695Y0063366D02*
X0478337Y0063366D01*
G75*
G02*
X0477756Y0063947I0000000J0000581D01*
G01*
X0477756Y0065108D01*
G75*
G02*
X0478337Y0065689I0000581J0000000D01*
G01*
X0479695Y0065689D01*
G75*
G02*
X0480275Y0065108I0000000J-000581D01*
G01*
X0480275Y0063947D01*
G75*
G02*
X0479695Y0063366I-000581J0000000D01*
G01*
G37*
G36*
G01*
X0479695Y0067185D02*
X0478337Y0067185D01*
G75*
G02*
X0477756Y0067765I0000000J0000581D01*
G01*
X0477756Y0068927D01*
G75*
G02*
X0478337Y0069508I0000581J0000000D01*
G01*
X0479695Y0069508D01*
G75*
G02*
X0480275Y0068927I0000000J-000581D01*
G01*
X0480275Y0067765D01*
G75*
G02*
X0479695Y0067185I-000581J0000000D01*
G01*
G37*
G36*
G01*
X0484252Y0060029D02*
X0484252Y0058671D01*
G75*
G02*
X0483671Y0058090I-000581J0000000D01*
G01*
X0482510Y0058090D01*
G75*
G02*
X0481929Y0058671I0000000J0000581D01*
G01*
X0481929Y0060029D01*
G75*
G02*
X0482510Y0060610I0000581J0000000D01*
G01*
X0483671Y0060610D01*
G75*
G02*
X0484252Y0060029I0000000J-000581D01*
G01*
G37*
G36*
G01*
X0480433Y0060029D02*
X0480433Y0058671D01*
G75*
G02*
X0479852Y0058090I-000581J0000000D01*
G01*
X0478691Y0058090D01*
G75*
G02*
X0478110Y0058671I0000000J0000581D01*
G01*
X0478110Y0060029D01*
G75*
G02*
X0478691Y0060610I0000581J0000000D01*
G01*
X0479852Y0060610D01*
G75*
G02*
X0480433Y0060029I0000000J-000581D01*
G01*
G37*
G36*
G01*
X0509055Y0058848D02*
X0509055Y0057490D01*
G75*
G02*
X0508474Y0056909I-000581J0000000D01*
G01*
X0507313Y0056909D01*
G75*
G02*
X0506732Y0057490I0000000J0000581D01*
G01*
X0506732Y0058848D01*
G75*
G02*
X0507313Y0059429I0000581J0000000D01*
G01*
X0508474Y0059429D01*
G75*
G02*
X0509055Y0058848I0000000J-000581D01*
G01*
G37*
G36*
G01*
X0505236Y0058848D02*
X0505236Y0057490D01*
G75*
G02*
X0504655Y0056909I-000581J0000000D01*
G01*
X0503494Y0056909D01*
G75*
G02*
X0502913Y0057490I0000000J0000581D01*
G01*
X0502913Y0058848D01*
G75*
G02*
X0503494Y0059429I0000581J0000000D01*
G01*
X0504655Y0059429D01*
G75*
G02*
X0505236Y0058848I0000000J-000581D01*
G01*
G37*
G36*
G01*
X0493266Y0101842D02*
X0493266Y0103201D01*
G75*
G02*
X0493846Y0103781I0000581J0000000D01*
G01*
X0495008Y0103781D01*
G75*
G02*
X0495588Y0103201I0000000J-000581D01*
G01*
X0495588Y0101842D01*
G75*
G02*
X0495008Y0101262I-000581J0000000D01*
G01*
X0493846Y0101262D01*
G75*
G02*
X0493266Y0101842I0000000J0000581D01*
G01*
G37*
G36*
G01*
X0497085Y0101842D02*
X0497085Y0103201D01*
G75*
G02*
X0497665Y0103781I0000581J0000000D01*
G01*
X0498827Y0103781D01*
G75*
G02*
X0499407Y0103201I0000000J-000581D01*
G01*
X0499407Y0101842D01*
G75*
G02*
X0498827Y0101262I-000581J0000000D01*
G01*
X0497665Y0101262D01*
G75*
G02*
X0497085Y0101842I0000000J0000581D01*
G01*
G37*
G36*
G01*
X0501016Y0101842D02*
X0501016Y0103201D01*
G75*
G02*
X0501596Y0103781I0000581J0000000D01*
G01*
X0502758Y0103781D01*
G75*
G02*
X0503338Y0103201I0000000J-000581D01*
G01*
X0503338Y0101842D01*
G75*
G02*
X0502758Y0101262I-000581J0000000D01*
G01*
X0501596Y0101262D01*
G75*
G02*
X0501016Y0101842I0000000J0000581D01*
G01*
G37*
G36*
G01*
X0504835Y0101842D02*
X0504835Y0103201D01*
G75*
G02*
X0505415Y0103781I0000581J0000000D01*
G01*
X0506577Y0103781D01*
G75*
G02*
X0507157Y0103201I0000000J-000581D01*
G01*
X0507157Y0101842D01*
G75*
G02*
X0506577Y0101262I-000581J0000000D01*
G01*
X0505415Y0101262D01*
G75*
G02*
X0504835Y0101842I0000000J0000581D01*
G01*
G37*
G36*
G01*
X0477407Y0077342D02*
X0478766Y0077342D01*
G75*
G02*
X0479346Y0076762I0000000J-000581D01*
G01*
X0479346Y0075600D01*
G75*
G02*
X0478766Y0075019I-000581J0000000D01*
G01*
X0477407Y0075019D01*
G75*
G02*
X0476827Y0075600I0000000J0000581D01*
G01*
X0476827Y0076762D01*
G75*
G02*
X0477407Y0077342I0000581J0000000D01*
G01*
G37*
G36*
G01*
X0477407Y0073523D02*
X0478766Y0073523D01*
G75*
G02*
X0479346Y0072943I0000000J-000581D01*
G01*
X0479346Y0071781D01*
G75*
G02*
X0478766Y0071201I-000581J0000000D01*
G01*
X0477407Y0071201D01*
G75*
G02*
X0476827Y0071781I0000000J0000581D01*
G01*
X0476827Y0072943D01*
G75*
G02*
X0477407Y0073523I0000581J0000000D01*
G01*
G37*
D34*
X0567173Y0087293D03*
X0567173Y0079813D03*
X0575047Y0083553D03*
D41*
X0503701Y0081594D03*
X0503701Y0084153D03*
X0503701Y0086712D03*
X0503701Y0089271D03*
X0503701Y0091830D03*
X0503701Y0094390D03*
X0503701Y0096949D03*
X0480472Y0096949D03*
X0480472Y0094390D03*
X0480472Y0091830D03*
X0480472Y0089271D03*
X0480472Y0086712D03*
X0480472Y0084153D03*
X0480472Y0081594D03*
G36*
G01*
X0469407Y0085342D02*
X0470766Y0085342D01*
G75*
G02*
X0471346Y0084762I0000000J-000581D01*
G01*
X0471346Y0083600D01*
G75*
G02*
X0470766Y0083019I-000581J0000000D01*
G01*
X0469407Y0083019D01*
G75*
G02*
X0468827Y0083600I0000000J0000581D01*
G01*
X0468827Y0084762D01*
G75*
G02*
X0469407Y0085342I0000581J0000000D01*
G01*
G37*
G36*
G01*
X0469407Y0081523D02*
X0470766Y0081523D01*
G75*
G02*
X0471346Y0080943I0000000J-000581D01*
G01*
X0471346Y0079781D01*
G75*
G02*
X0470766Y0079201I-000581J0000000D01*
G01*
X0469407Y0079201D01*
G75*
G02*
X0468827Y0079781I0000000J0000581D01*
G01*
X0468827Y0080943D01*
G75*
G02*
X0469407Y0081523I0000581J0000000D01*
G01*
G37*
G36*
G01*
X0516535Y0062588D02*
X0516535Y0061230D01*
G75*
G02*
X0515955Y0060649I-000581J0000000D01*
G01*
X0514793Y0060649D01*
G75*
G02*
X0514212Y0061230I0000000J0000581D01*
G01*
X0514212Y0062588D01*
G75*
G02*
X0514793Y0063169I0000581J0000000D01*
G01*
X0515955Y0063169D01*
G75*
G02*
X0516535Y0062588I0000000J-000581D01*
G01*
G37*
G36*
G01*
X0512716Y0062588D02*
X0512716Y0061230D01*
G75*
G02*
X0512136Y0060649I-000581J0000000D01*
G01*
X0510974Y0060649D01*
G75*
G02*
X0510394Y0061230I0000000J0000581D01*
G01*
X0510394Y0062588D01*
G75*
G02*
X0510974Y0063169I0000581J0000000D01*
G01*
X0512136Y0063169D01*
G75*
G02*
X0512716Y0062588I0000000J-000581D01*
G01*
G37*
G36*
G01*
X0510394Y0057490D02*
X0510394Y0058848D01*
G75*
G02*
X0510974Y0059429I0000581J0000000D01*
G01*
X0512136Y0059429D01*
G75*
G02*
X0512716Y0058848I0000000J-000581D01*
G01*
X0512716Y0057490D01*
G75*
G02*
X0512136Y0056909I-000581J0000000D01*
G01*
X0510974Y0056909D01*
G75*
G02*
X0510394Y0057490I0000000J0000581D01*
G01*
G37*
G36*
G01*
X0514212Y0057490D02*
X0514212Y0058848D01*
G75*
G02*
X0514793Y0059429I0000581J0000000D01*
G01*
X0515955Y0059429D01*
G75*
G02*
X0516535Y0058848I0000000J-000581D01*
G01*
X0516535Y0057490D01*
G75*
G02*
X0515955Y0056909I-000581J0000000D01*
G01*
X0514793Y0056909D01*
G75*
G02*
X0514212Y0057490I0000000J0000581D01*
G01*
G37*
G36*
G01*
X0513947Y0078523D02*
X0512588Y0078523D01*
G75*
G02*
X0512008Y0079104I0000000J0000581D01*
G01*
X0512008Y0080265D01*
G75*
G02*
X0512588Y0080846I0000581J0000000D01*
G01*
X0513947Y0080846D01*
G75*
G02*
X0514527Y0080265I0000000J-000581D01*
G01*
X0514527Y0079104D01*
G75*
G02*
X0513947Y0078523I-000581J0000000D01*
G01*
G37*
G36*
G01*
X0513947Y0082342D02*
X0512588Y0082342D01*
G75*
G02*
X0512008Y0082923I0000000J0000581D01*
G01*
X0512008Y0084084D01*
G75*
G02*
X0512588Y0084665I0000581J0000000D01*
G01*
X0513947Y0084665D01*
G75*
G02*
X0514527Y0084084I0000000J-000581D01*
G01*
X0514527Y0082923D01*
G75*
G02*
X0513947Y0082342I-000581J0000000D01*
G01*
G37*
G36*
G01*
X0467510Y0068327D02*
X0468868Y0068327D01*
G75*
G02*
X0469449Y0067746I0000000J-000581D01*
G01*
X0469449Y0066584D01*
G75*
G02*
X0468868Y0066004I-000581J0000000D01*
G01*
X0467510Y0066004D01*
G75*
G02*
X0466929Y0066584I0000000J0000581D01*
G01*
X0466929Y0067746D01*
G75*
G02*
X0467510Y0068327I0000581J0000000D01*
G01*
G37*
G36*
G01*
X0467510Y0064508D02*
X0468868Y0064508D01*
G75*
G02*
X0469449Y0063927I0000000J-000581D01*
G01*
X0469449Y0062765D01*
G75*
G02*
X0468868Y0062185I-000581J0000000D01*
G01*
X0467510Y0062185D01*
G75*
G02*
X0466929Y0062765I0000000J0000581D01*
G01*
X0466929Y0063927D01*
G75*
G02*
X0467510Y0064508I0000581J0000000D01*
G01*
G37*
G36*
G01*
X0542067Y0058848D02*
X0542067Y0057490D01*
G75*
G02*
X0541486Y0056909I-000581J0000000D01*
G01*
X0540325Y0056909D01*
G75*
G02*
X0539744Y0057490I0000000J0000581D01*
G01*
X0539744Y0058848D01*
G75*
G02*
X0540325Y0059429I0000581J0000000D01*
G01*
X0541486Y0059429D01*
G75*
G02*
X0542067Y0058848I0000000J-000581D01*
G01*
G37*
G36*
G01*
X0538248Y0058848D02*
X0538248Y0057490D01*
G75*
G02*
X0537667Y0056909I-000581J0000000D01*
G01*
X0536506Y0056909D01*
G75*
G02*
X0535925Y0057490I0000000J0000581D01*
G01*
X0535925Y0058848D01*
G75*
G02*
X0536506Y0059429I0000581J0000000D01*
G01*
X0537667Y0059429D01*
G75*
G02*
X0538248Y0058848I0000000J-000581D01*
G01*
G37*
G36*
G01*
X0518671Y0094665D02*
X0517313Y0094665D01*
G75*
G02*
X0516732Y0095246I0000000J0000581D01*
G01*
X0516732Y0096407D01*
G75*
G02*
X0517313Y0096988I0000581J0000000D01*
G01*
X0518671Y0096988D01*
G75*
G02*
X0519252Y0096407I0000000J-000581D01*
G01*
X0519252Y0095246D01*
G75*
G02*
X0518671Y0094665I-000581J0000000D01*
G01*
G37*
G36*
G01*
X0518671Y0098484D02*
X0517313Y0098484D01*
G75*
G02*
X0516732Y0099065I0000000J0000581D01*
G01*
X0516732Y0100226D01*
G75*
G02*
X0517313Y0100807I0000581J0000000D01*
G01*
X0518671Y0100807D01*
G75*
G02*
X0519252Y0100226I0000000J-000581D01*
G01*
X0519252Y0099065D01*
G75*
G02*
X0518671Y0098484I-000581J0000000D01*
G01*
G37*
G36*
G01*
X0553140Y0065571D02*
X0554498Y0065571D01*
G75*
G02*
X0555079Y0064990I0000000J-000581D01*
G01*
X0555079Y0063828D01*
G75*
G02*
X0554498Y0063248I-000581J0000000D01*
G01*
X0553140Y0063248D01*
G75*
G02*
X0552559Y0063828I0000000J0000581D01*
G01*
X0552559Y0064990D01*
G75*
G02*
X0553140Y0065571I0000581J0000000D01*
G01*
G37*
G36*
G01*
X0553140Y0061752D02*
X0554498Y0061752D01*
G75*
G02*
X0555079Y0061171I0000000J-000581D01*
G01*
X0555079Y0060010D01*
G75*
G02*
X0554498Y0059429I-000581J0000000D01*
G01*
X0553140Y0059429D01*
G75*
G02*
X0552559Y0060010I0000000J0000581D01*
G01*
X0552559Y0061171D01*
G75*
G02*
X0553140Y0061752I0000581J0000000D01*
G01*
G37*
D40*
X0461417Y0072539D03*
X0443464Y0072539D03*
D43*
X0458445Y0103937D03*
X0446437Y0103937D03*
X0458445Y0090748D03*
X0446437Y0090748D03*
G36*
G01*
X0474665Y0106486D02*
X0474665Y0105128D01*
G75*
G02*
X0474085Y0104547I-000581J0000000D01*
G01*
X0472923Y0104547D01*
G75*
G02*
X0472342Y0105128I0000000J0000581D01*
G01*
X0472342Y0106486D01*
G75*
G02*
X0472923Y0107067I0000581J0000000D01*
G01*
X0474085Y0107067D01*
G75*
G02*
X0474665Y0106486I0000000J-000581D01*
G01*
G37*
G36*
G01*
X0470846Y0106486D02*
X0470846Y0105128D01*
G75*
G02*
X0470266Y0104547I-000581J0000000D01*
G01*
X0469104Y0104547D01*
G75*
G02*
X0468524Y0105128I0000000J0000581D01*
G01*
X0468524Y0106486D01*
G75*
G02*
X0469104Y0107067I0000581J0000000D01*
G01*
X0470266Y0107067D01*
G75*
G02*
X0470846Y0106486I0000000J-000581D01*
G01*
G37*
G36*
G01*
X0512785Y0100807D02*
X0514144Y0100807D01*
G75*
G02*
X0514724Y0100226I0000000J-000581D01*
G01*
X0514724Y0099065D01*
G75*
G02*
X0514144Y0098484I-000581J0000000D01*
G01*
X0512785Y0098484D01*
G75*
G02*
X0512205Y0099065I0000000J0000581D01*
G01*
X0512205Y0100226D01*
G75*
G02*
X0512785Y0100807I0000581J0000000D01*
G01*
G37*
G36*
G01*
X0512785Y0096988D02*
X0514144Y0096988D01*
G75*
G02*
X0514724Y0096407I0000000J-000581D01*
G01*
X0514724Y0095246D01*
G75*
G02*
X0514144Y0094665I-000581J0000000D01*
G01*
X0512785Y0094665D01*
G75*
G02*
X0512205Y0095246I0000000J0000581D01*
G01*
X0512205Y0096407D01*
G75*
G02*
X0512785Y0096988I0000581J0000000D01*
G01*
G37*
G36*
G01*
X0476437Y0060226D02*
X0476437Y0058868D01*
G75*
G02*
X0475856Y0058287I-000581J0000000D01*
G01*
X0474695Y0058287D01*
G75*
G02*
X0474114Y0058868I0000000J0000581D01*
G01*
X0474114Y0060226D01*
G75*
G02*
X0474695Y0060807I0000581J0000000D01*
G01*
X0475856Y0060807D01*
G75*
G02*
X0476437Y0060226I0000000J-000581D01*
G01*
G37*
G36*
G01*
X0472618Y0060226D02*
X0472618Y0058868D01*
G75*
G02*
X0472037Y0058287I-000581J0000000D01*
G01*
X0470876Y0058287D01*
G75*
G02*
X0470295Y0058868I0000000J0000581D01*
G01*
X0470295Y0060226D01*
G75*
G02*
X0470876Y0060807I0000581J0000000D01*
G01*
X0472037Y0060807D01*
G75*
G02*
X0472618Y0060226I0000000J-000581D01*
G01*
G37*
G36*
G01*
X0510266Y0093701D02*
X0508907Y0093701D01*
G75*
G02*
X0508327Y0094281I0000000J0000581D01*
G01*
X0508327Y0095443D01*
G75*
G02*
X0508907Y0096023I0000581J0000000D01*
G01*
X0510266Y0096023D01*
G75*
G02*
X0510846Y0095443I0000000J-000581D01*
G01*
X0510846Y0094281D01*
G75*
G02*
X0510266Y0093701I-000581J0000000D01*
G01*
G37*
G36*
G01*
X0510266Y0097519D02*
X0508907Y0097519D01*
G75*
G02*
X0508327Y0098100I0000000J0000581D01*
G01*
X0508327Y0099262D01*
G75*
G02*
X0508907Y0099842I0000581J0000000D01*
G01*
X0510266Y0099842D01*
G75*
G02*
X0510846Y0099262I0000000J-000581D01*
G01*
X0510846Y0098100D01*
G75*
G02*
X0510266Y0097519I-000581J0000000D01*
G01*
G37*
G36*
G01*
X0564370Y0093297D02*
X0564370Y0091939D01*
G75*
G02*
X0563789Y0091358I-000581J0000000D01*
G01*
X0562628Y0091358D01*
G75*
G02*
X0562047Y0091939I0000000J0000581D01*
G01*
X0562047Y0093297D01*
G75*
G02*
X0562628Y0093878I0000581J0000000D01*
G01*
X0563789Y0093878D01*
G75*
G02*
X0564370Y0093297I0000000J-000581D01*
G01*
G37*
G36*
G01*
X0560551Y0093297D02*
X0560551Y0091939D01*
G75*
G02*
X0559970Y0091358I-000581J0000000D01*
G01*
X0558809Y0091358D01*
G75*
G02*
X0558228Y0091939I0000000J0000581D01*
G01*
X0558228Y0093297D01*
G75*
G02*
X0558809Y0093878I0000581J0000000D01*
G01*
X0559970Y0093878D01*
G75*
G02*
X0560551Y0093297I0000000J-000581D01*
G01*
G37*
G36*
G01*
X0525264Y0103263D02*
X0525264Y0105280D01*
G75*
G02*
X0526125Y0106141I0000861J0000000D01*
G01*
X0527847Y0106141D01*
G75*
G02*
X0528709Y0105280I0000000J-000861D01*
G01*
X0528709Y0103263D01*
G75*
G02*
X0527847Y0102401I-000861J0000000D01*
G01*
X0526125Y0102401D01*
G75*
G02*
X0525264Y0103263I0000000J0000861D01*
G01*
G37*
G36*
G01*
X0531464Y0103263D02*
X0531464Y0105280D01*
G75*
G02*
X0532326Y0106141I0000861J0000000D01*
G01*
X0534048Y0106141D01*
G75*
G02*
X0534909Y0105280I0000000J-000861D01*
G01*
X0534909Y0103263D01*
G75*
G02*
X0534048Y0102401I-000861J0000000D01*
G01*
X0532326Y0102401D01*
G75*
G02*
X0531464Y0103263I0000000J0000861D01*
G01*
G37*
G36*
G01*
X0517016Y0103592D02*
X0517016Y0104951D01*
G75*
G02*
X0517596Y0105531I0000581J0000000D01*
G01*
X0518758Y0105531D01*
G75*
G02*
X0519338Y0104951I0000000J-000581D01*
G01*
X0519338Y0103592D01*
G75*
G02*
X0518758Y0103012I-000581J0000000D01*
G01*
X0517596Y0103012D01*
G75*
G02*
X0517016Y0103592I0000000J0000581D01*
G01*
G37*
G36*
G01*
X0520835Y0103592D02*
X0520835Y0104951D01*
G75*
G02*
X0521415Y0105531I0000581J0000000D01*
G01*
X0522577Y0105531D01*
G75*
G02*
X0523157Y0104951I0000000J-000581D01*
G01*
X0523157Y0103592D01*
G75*
G02*
X0522577Y0103012I-000581J0000000D01*
G01*
X0521415Y0103012D01*
G75*
G02*
X0520835Y0103592I0000000J0000581D01*
G01*
G37*
G36*
G01*
X0504516Y0075592D02*
X0504516Y0076951D01*
G75*
G02*
X0505096Y0077531I0000581J0000000D01*
G01*
X0506258Y0077531D01*
G75*
G02*
X0506838Y0076951I0000000J-000581D01*
G01*
X0506838Y0075592D01*
G75*
G02*
X0506258Y0075012I-000581J0000000D01*
G01*
X0505096Y0075012D01*
G75*
G02*
X0504516Y0075592I0000000J0000581D01*
G01*
G37*
G36*
G01*
X0508335Y0075592D02*
X0508335Y0076951D01*
G75*
G02*
X0508915Y0077531I0000581J0000000D01*
G01*
X0510077Y0077531D01*
G75*
G02*
X0510657Y0076951I0000000J-000581D01*
G01*
X0510657Y0075592D01*
G75*
G02*
X0510077Y0075012I-000581J0000000D01*
G01*
X0508915Y0075012D01*
G75*
G02*
X0508335Y0075592I0000000J0000581D01*
G01*
G37*
G36*
G01*
X0498766Y0071201D02*
X0497407Y0071201D01*
G75*
G02*
X0496827Y0071781I0000000J0000581D01*
G01*
X0496827Y0072943D01*
G75*
G02*
X0497407Y0073523I0000581J0000000D01*
G01*
X0498766Y0073523D01*
G75*
G02*
X0499346Y0072943I0000000J-000581D01*
G01*
X0499346Y0071781D01*
G75*
G02*
X0498766Y0071201I-000581J0000000D01*
G01*
G37*
G36*
G01*
X0498766Y0075019D02*
X0497407Y0075019D01*
G75*
G02*
X0496827Y0075600I0000000J0000581D01*
G01*
X0496827Y0076762D01*
G75*
G02*
X0497407Y0077342I0000581J0000000D01*
G01*
X0498766Y0077342D01*
G75*
G02*
X0499346Y0076762I0000000J-000581D01*
G01*
X0499346Y0075600D01*
G75*
G02*
X0498766Y0075019I-000581J0000000D01*
G01*
G37*
G36*
G01*
X0502529Y0071201D02*
X0501171Y0071201D01*
G75*
G02*
X0500590Y0071781I0000000J0000581D01*
G01*
X0500590Y0072943D01*
G75*
G02*
X0501171Y0073523I0000581J0000000D01*
G01*
X0502529Y0073523D01*
G75*
G02*
X0503110Y0072943I0000000J-000581D01*
G01*
X0503110Y0071781D01*
G75*
G02*
X0502529Y0071201I-000581J0000000D01*
G01*
G37*
G36*
G01*
X0502529Y0075019D02*
X0501171Y0075019D01*
G75*
G02*
X0500590Y0075600I0000000J0000581D01*
G01*
X0500590Y0076762D01*
G75*
G02*
X0501171Y0077342I0000581J0000000D01*
G01*
X0502529Y0077342D01*
G75*
G02*
X0503110Y0076762I0000000J-000581D01*
G01*
X0503110Y0075600D01*
G75*
G02*
X0502529Y0075019I-000581J0000000D01*
G01*
G37*
G36*
G01*
X0504516Y0071592D02*
X0504516Y0072951D01*
G75*
G02*
X0505096Y0073531I0000581J0000000D01*
G01*
X0506258Y0073531D01*
G75*
G02*
X0506838Y0072951I0000000J-000581D01*
G01*
X0506838Y0071592D01*
G75*
G02*
X0506258Y0071012I-000581J0000000D01*
G01*
X0505096Y0071012D01*
G75*
G02*
X0504516Y0071592I0000000J0000581D01*
G01*
G37*
G36*
G01*
X0508335Y0071592D02*
X0508335Y0072951D01*
G75*
G02*
X0508915Y0073531I0000581J0000000D01*
G01*
X0510077Y0073531D01*
G75*
G02*
X0510657Y0072951I0000000J-000581D01*
G01*
X0510657Y0071592D01*
G75*
G02*
X0510077Y0071012I-000581J0000000D01*
G01*
X0508915Y0071012D01*
G75*
G02*
X0508335Y0071592I0000000J0000581D01*
G01*
G37*
D61*
X0488425Y0067027D03*
X0488425Y0063287D03*
X0488425Y0059547D03*
X0498740Y0059547D03*
X0498740Y0067027D03*
G36*
G01*
X0494766Y0071201D02*
X0493407Y0071201D01*
G75*
G02*
X0492827Y0071781I0000000J0000581D01*
G01*
X0492827Y0072943D01*
G75*
G02*
X0493407Y0073523I0000581J0000000D01*
G01*
X0494766Y0073523D01*
G75*
G02*
X0495346Y0072943I0000000J-000581D01*
G01*
X0495346Y0071781D01*
G75*
G02*
X0494766Y0071201I-000581J0000000D01*
G01*
G37*
G36*
G01*
X0494766Y0075019D02*
X0493407Y0075019D01*
G75*
G02*
X0492827Y0075600I0000000J0000581D01*
G01*
X0492827Y0076762D01*
G75*
G02*
X0493407Y0077342I0000581J0000000D01*
G01*
X0494766Y0077342D01*
G75*
G02*
X0495346Y0076762I0000000J-000581D01*
G01*
X0495346Y0075600D01*
G75*
G02*
X0494766Y0075019I-000581J0000000D01*
G01*
G37*
G36*
G01*
X0483632Y0064153D02*
X0482274Y0064153D01*
G75*
G02*
X0481693Y0064734I0000000J0000581D01*
G01*
X0481693Y0065895D01*
G75*
G02*
X0482274Y0066476I0000581J0000000D01*
G01*
X0483632Y0066476D01*
G75*
G02*
X0484212Y0065895I0000000J-000581D01*
G01*
X0484212Y0064734D01*
G75*
G02*
X0483632Y0064153I-000581J0000000D01*
G01*
G37*
G36*
G01*
X0483632Y0067972D02*
X0482274Y0067972D01*
G75*
G02*
X0481693Y0068553I0000000J0000581D01*
G01*
X0481693Y0069714D01*
G75*
G02*
X0482274Y0070295I0000581J0000000D01*
G01*
X0483632Y0070295D01*
G75*
G02*
X0484212Y0069714I0000000J-000581D01*
G01*
X0484212Y0068553D01*
G75*
G02*
X0483632Y0067972I-000581J0000000D01*
G01*
G37*
G36*
G01*
X0470266Y0086701D02*
X0468907Y0086701D01*
G75*
G02*
X0468327Y0087281I0000000J0000581D01*
G01*
X0468327Y0088443D01*
G75*
G02*
X0468907Y0089023I0000581J0000000D01*
G01*
X0470266Y0089023D01*
G75*
G02*
X0470846Y0088443I0000000J-000581D01*
G01*
X0470846Y0087281D01*
G75*
G02*
X0470266Y0086701I-000581J0000000D01*
G01*
G37*
G36*
G01*
X0470266Y0090519D02*
X0468907Y0090519D01*
G75*
G02*
X0468327Y0091100I0000000J0000581D01*
G01*
X0468327Y0092262D01*
G75*
G02*
X0468907Y0092842I0000581J0000000D01*
G01*
X0470266Y0092842D01*
G75*
G02*
X0470846Y0092262I0000000J-000581D01*
G01*
X0470846Y0091100D01*
G75*
G02*
X0470266Y0090519I-000581J0000000D01*
G01*
G37*
G36*
G01*
X0472078Y0073094D02*
X0474095Y0073094D01*
G75*
G02*
X0474957Y0072233I0000000J-000861D01*
G01*
X0474957Y0070511D01*
G75*
G02*
X0474095Y0069649I-000861J0000000D01*
G01*
X0472078Y0069649D01*
G75*
G02*
X0471216Y0070511I0000000J0000861D01*
G01*
X0471216Y0072233D01*
G75*
G02*
X0472078Y0073094I0000861J0000000D01*
G01*
G37*
G36*
G01*
X0472078Y0066893D02*
X0474095Y0066893D01*
G75*
G02*
X0474957Y0066032I0000000J-000861D01*
G01*
X0474957Y0064310D01*
G75*
G02*
X0474095Y0063449I-000861J0000000D01*
G01*
X0472078Y0063449D01*
G75*
G02*
X0471216Y0064310I0000000J0000861D01*
G01*
X0471216Y0066032D01*
G75*
G02*
X0472078Y0066893I0000861J0000000D01*
G01*
G37*
G36*
G01*
X0474665Y0098218D02*
X0474665Y0096860D01*
G75*
G02*
X0474085Y0096279I-000581J0000000D01*
G01*
X0472923Y0096279D01*
G75*
G02*
X0472342Y0096860I0000000J0000581D01*
G01*
X0472342Y0098218D01*
G75*
G02*
X0472923Y0098799I0000581J0000000D01*
G01*
X0474085Y0098799D01*
G75*
G02*
X0474665Y0098218I0000000J-000581D01*
G01*
G37*
G36*
G01*
X0470846Y0098218D02*
X0470846Y0096860D01*
G75*
G02*
X0470266Y0096279I-000581J0000000D01*
G01*
X0469104Y0096279D01*
G75*
G02*
X0468524Y0096860I0000000J0000581D01*
G01*
X0468524Y0098218D01*
G75*
G02*
X0469104Y0098799I0000581J0000000D01*
G01*
X0470266Y0098799D01*
G75*
G02*
X0470846Y0098218I0000000J-000581D01*
G01*
G37*
G36*
G01*
X0468524Y0100994D02*
X0468524Y0102352D01*
G75*
G02*
X0469104Y0102933I0000581J0000000D01*
G01*
X0470266Y0102933D01*
G75*
G02*
X0470846Y0102352I0000000J-000581D01*
G01*
X0470846Y0100994D01*
G75*
G02*
X0470266Y0100413I-000581J0000000D01*
G01*
X0469104Y0100413D01*
G75*
G02*
X0468524Y0100994I0000000J0000581D01*
G01*
G37*
G36*
G01*
X0472342Y0100994D02*
X0472342Y0102352D01*
G75*
G02*
X0472923Y0102933I0000581J0000000D01*
G01*
X0474085Y0102933D01*
G75*
G02*
X0474665Y0102352I0000000J-000581D01*
G01*
X0474665Y0100994D01*
G75*
G02*
X0474085Y0100413I-000581J0000000D01*
G01*
X0472923Y0100413D01*
G75*
G02*
X0472342Y0100994I0000000J0000581D01*
G01*
G37*
G36*
G01*
X0546909Y0105280D02*
X0546909Y0103263D01*
G75*
G02*
X0546048Y0102401I-000861J0000000D01*
G01*
X0544326Y0102401D01*
G75*
G02*
X0543464Y0103263I0000000J0000861D01*
G01*
X0543464Y0105280D01*
G75*
G02*
X0544326Y0106141I0000861J0000000D01*
G01*
X0546048Y0106141D01*
G75*
G02*
X0546909Y0105280I0000000J-000861D01*
G01*
G37*
G36*
G01*
X0540709Y0105280D02*
X0540709Y0103263D01*
G75*
G02*
X0539847Y0102401I-000861J0000000D01*
G01*
X0538125Y0102401D01*
G75*
G02*
X0537264Y0103263I0000000J0000861D01*
G01*
X0537264Y0105280D01*
G75*
G02*
X0538125Y0106141I0000861J0000000D01*
G01*
X0539847Y0106141D01*
G75*
G02*
X0540709Y0105280I0000000J-000861D01*
G01*
G37*
G36*
G01*
X0550138Y0109832D02*
X0550138Y0108474D01*
G75*
G02*
X0549557Y0107893I-000581J0000000D01*
G01*
X0548396Y0107893D01*
G75*
G02*
X0547815Y0108474I0000000J0000581D01*
G01*
X0547815Y0109832D01*
G75*
G02*
X0548396Y0110413I0000581J0000000D01*
G01*
X0549557Y0110413D01*
G75*
G02*
X0550138Y0109832I0000000J-000581D01*
G01*
G37*
G36*
G01*
X0546319Y0109832D02*
X0546319Y0108474D01*
G75*
G02*
X0545738Y0107893I-000581J0000000D01*
G01*
X0544577Y0107893D01*
G75*
G02*
X0543996Y0108474I0000000J0000581D01*
G01*
X0543996Y0109832D01*
G75*
G02*
X0544577Y0110413I0000581J0000000D01*
G01*
X0545738Y0110413D01*
G75*
G02*
X0546319Y0109832I0000000J-000581D01*
G01*
G37*
G36*
G01*
X0502913Y0067726D02*
X0502913Y0069084D01*
G75*
G02*
X0503494Y0069665I0000581J0000000D01*
G01*
X0504655Y0069665D01*
G75*
G02*
X0505236Y0069084I0000000J-000581D01*
G01*
X0505236Y0067726D01*
G75*
G02*
X0504655Y0067145I-000581J0000000D01*
G01*
X0503494Y0067145D01*
G75*
G02*
X0502913Y0067726I0000000J0000581D01*
G01*
G37*
G36*
G01*
X0506732Y0067726D02*
X0506732Y0069084D01*
G75*
G02*
X0507313Y0069665I0000581J0000000D01*
G01*
X0508474Y0069665D01*
G75*
G02*
X0509055Y0069084I0000000J-000581D01*
G01*
X0509055Y0067726D01*
G75*
G02*
X0508474Y0067145I-000581J0000000D01*
G01*
X0507313Y0067145D01*
G75*
G02*
X0506732Y0067726I0000000J0000581D01*
G01*
G37*
G36*
G01*
X0516319Y0091338D02*
X0516319Y0092323D01*
G75*
G02*
X0516811Y0092815I0000492J0000000D01*
G01*
X0521732Y0092815D01*
G75*
G02*
X0522224Y0092323I0000000J-000492D01*
G01*
X0522224Y0091338D01*
G75*
G02*
X0521732Y0090846I-000492J0000000D01*
G01*
X0516811Y0090846D01*
G75*
G02*
X0516319Y0091338I0000000J0000492D01*
G01*
G37*
G36*
G01*
X0516319Y0088189D02*
X0516319Y0089173D01*
G75*
G02*
X0516811Y0089665I0000492J0000000D01*
G01*
X0521732Y0089665D01*
G75*
G02*
X0522224Y0089173I0000000J-000492D01*
G01*
X0522224Y0088189D01*
G75*
G02*
X0521732Y0087697I-000492J0000000D01*
G01*
X0516811Y0087697D01*
G75*
G02*
X0516319Y0088189I0000000J0000492D01*
G01*
G37*
G36*
G01*
X0516319Y0085039D02*
X0516319Y0086023D01*
G75*
G02*
X0516811Y0086515I0000492J0000000D01*
G01*
X0521732Y0086515D01*
G75*
G02*
X0522224Y0086023I0000000J-000492D01*
G01*
X0522224Y0085039D01*
G75*
G02*
X0521732Y0084547I-000492J0000000D01*
G01*
X0516811Y0084547D01*
G75*
G02*
X0516319Y0085039I0000000J0000492D01*
G01*
G37*
G36*
G01*
X0516319Y0081890D02*
X0516319Y0082874D01*
G75*
G02*
X0516811Y0083366I0000492J0000000D01*
G01*
X0521732Y0083366D01*
G75*
G02*
X0522224Y0082874I0000000J-000492D01*
G01*
X0522224Y0081890D01*
G75*
G02*
X0521732Y0081397I-000492J0000000D01*
G01*
X0516811Y0081397D01*
G75*
G02*
X0516319Y0081890I0000000J0000492D01*
G01*
G37*
G36*
G01*
X0516319Y0078740D02*
X0516319Y0079724D01*
G75*
G02*
X0516811Y0080216I0000492J0000000D01*
G01*
X0521732Y0080216D01*
G75*
G02*
X0522224Y0079724I0000000J-000492D01*
G01*
X0522224Y0078740D01*
G75*
G02*
X0521732Y0078248I-000492J0000000D01*
G01*
X0516811Y0078248D01*
G75*
G02*
X0516319Y0078740I0000000J0000492D01*
G01*
G37*
G36*
G01*
X0516319Y0075590D02*
X0516319Y0076575D01*
G75*
G02*
X0516811Y0077067I0000492J0000000D01*
G01*
X0521732Y0077067D01*
G75*
G02*
X0522224Y0076575I0000000J-000492D01*
G01*
X0522224Y0075590D01*
G75*
G02*
X0521732Y0075098I-000492J0000000D01*
G01*
X0516811Y0075098D01*
G75*
G02*
X0516319Y0075590I0000000J0000492D01*
G01*
G37*
G36*
G01*
X0516319Y0072441D02*
X0516319Y0073425D01*
G75*
G02*
X0516811Y0073917I0000492J0000000D01*
G01*
X0521732Y0073917D01*
G75*
G02*
X0522224Y0073425I0000000J-000492D01*
G01*
X0522224Y0072441D01*
G75*
G02*
X0521732Y0071949I-000492J0000000D01*
G01*
X0516811Y0071949D01*
G75*
G02*
X0516319Y0072441I0000000J0000492D01*
G01*
G37*
G36*
G01*
X0516319Y0069291D02*
X0516319Y0070275D01*
G75*
G02*
X0516811Y0070767I0000492J0000000D01*
G01*
X0521732Y0070767D01*
G75*
G02*
X0522224Y0070275I0000000J-000492D01*
G01*
X0522224Y0069291D01*
G75*
G02*
X0521732Y0068799I-000492J0000000D01*
G01*
X0516811Y0068799D01*
G75*
G02*
X0516319Y0069291I0000000J0000492D01*
G01*
G37*
G36*
G01*
X0523701Y0061909D02*
X0523701Y0066830D01*
G75*
G02*
X0524193Y0067323I0000492J0000000D01*
G01*
X0525177Y0067323D01*
G75*
G02*
X0525669Y0066830I0000000J-000492D01*
G01*
X0525669Y0061909D01*
G75*
G02*
X0525177Y0061417I-000492J0000000D01*
G01*
X0524193Y0061417D01*
G75*
G02*
X0523701Y0061909I0000000J0000492D01*
G01*
G37*
G36*
G01*
X0526850Y0061909D02*
X0526850Y0066830D01*
G75*
G02*
X0527342Y0067323I0000492J0000000D01*
G01*
X0528327Y0067323D01*
G75*
G02*
X0528819Y0066830I0000000J-000492D01*
G01*
X0528819Y0061909D01*
G75*
G02*
X0528327Y0061417I-000492J0000000D01*
G01*
X0527342Y0061417D01*
G75*
G02*
X0526850Y0061909I0000000J0000492D01*
G01*
G37*
G36*
G01*
X0530000Y0061909D02*
X0530000Y0066830D01*
G75*
G02*
X0530492Y0067323I0000492J0000000D01*
G01*
X0531476Y0067323D01*
G75*
G02*
X0531968Y0066830I0000000J-000492D01*
G01*
X0531968Y0061909D01*
G75*
G02*
X0531476Y0061417I-000492J0000000D01*
G01*
X0530492Y0061417D01*
G75*
G02*
X0530000Y0061909I0000000J0000492D01*
G01*
G37*
G36*
G01*
X0533150Y0061909D02*
X0533150Y0066830D01*
G75*
G02*
X0533642Y0067323I0000492J0000000D01*
G01*
X0534626Y0067323D01*
G75*
G02*
X0535118Y0066830I0000000J-000492D01*
G01*
X0535118Y0061909D01*
G75*
G02*
X0534626Y0061417I-000492J0000000D01*
G01*
X0533642Y0061417D01*
G75*
G02*
X0533150Y0061909I0000000J0000492D01*
G01*
G37*
G36*
G01*
X0536299Y0061909D02*
X0536299Y0066830D01*
G75*
G02*
X0536791Y0067323I0000492J0000000D01*
G01*
X0537775Y0067323D01*
G75*
G02*
X0538268Y0066830I0000000J-000492D01*
G01*
X0538268Y0061909D01*
G75*
G02*
X0537775Y0061417I-000492J0000000D01*
G01*
X0536791Y0061417D01*
G75*
G02*
X0536299Y0061909I0000000J0000492D01*
G01*
G37*
G36*
G01*
X0539449Y0061909D02*
X0539449Y0066830D01*
G75*
G02*
X0539941Y0067323I0000492J0000000D01*
G01*
X0540925Y0067323D01*
G75*
G02*
X0541417Y0066830I0000000J-000492D01*
G01*
X0541417Y0061909D01*
G75*
G02*
X0540925Y0061417I-000492J0000000D01*
G01*
X0539941Y0061417D01*
G75*
G02*
X0539449Y0061909I0000000J0000492D01*
G01*
G37*
G36*
G01*
X0542598Y0061909D02*
X0542598Y0066830D01*
G75*
G02*
X0543090Y0067323I0000492J0000000D01*
G01*
X0544075Y0067323D01*
G75*
G02*
X0544567Y0066830I0000000J-000492D01*
G01*
X0544567Y0061909D01*
G75*
G02*
X0544075Y0061417I-000492J0000000D01*
G01*
X0543090Y0061417D01*
G75*
G02*
X0542598Y0061909I0000000J0000492D01*
G01*
G37*
G36*
G01*
X0545748Y0061909D02*
X0545748Y0066830D01*
G75*
G02*
X0546240Y0067323I0000492J0000000D01*
G01*
X0547224Y0067323D01*
G75*
G02*
X0547716Y0066830I0000000J-000492D01*
G01*
X0547716Y0061909D01*
G75*
G02*
X0547224Y0061417I-000492J0000000D01*
G01*
X0546240Y0061417D01*
G75*
G02*
X0545748Y0061909I0000000J0000492D01*
G01*
G37*
G36*
G01*
X0549193Y0069291D02*
X0549193Y0070275D01*
G75*
G02*
X0549685Y0070767I0000492J0000000D01*
G01*
X0554606Y0070767D01*
G75*
G02*
X0555098Y0070275I0000000J-000492D01*
G01*
X0555098Y0069291D01*
G75*
G02*
X0554606Y0068799I-000492J0000000D01*
G01*
X0549685Y0068799D01*
G75*
G02*
X0549193Y0069291I0000000J0000492D01*
G01*
G37*
G36*
G01*
X0549193Y0072441D02*
X0549193Y0073425D01*
G75*
G02*
X0549685Y0073917I0000492J0000000D01*
G01*
X0554606Y0073917D01*
G75*
G02*
X0555098Y0073425I0000000J-000492D01*
G01*
X0555098Y0072441D01*
G75*
G02*
X0554606Y0071949I-000492J0000000D01*
G01*
X0549685Y0071949D01*
G75*
G02*
X0549193Y0072441I0000000J0000492D01*
G01*
G37*
G36*
G01*
X0549193Y0075590D02*
X0549193Y0076575D01*
G75*
G02*
X0549685Y0077067I0000492J0000000D01*
G01*
X0554606Y0077067D01*
G75*
G02*
X0555098Y0076575I0000000J-000492D01*
G01*
X0555098Y0075590D01*
G75*
G02*
X0554606Y0075098I-000492J0000000D01*
G01*
X0549685Y0075098D01*
G75*
G02*
X0549193Y0075590I0000000J0000492D01*
G01*
G37*
G36*
G01*
X0549193Y0078740D02*
X0549193Y0079724D01*
G75*
G02*
X0549685Y0080216I0000492J0000000D01*
G01*
X0554606Y0080216D01*
G75*
G02*
X0555098Y0079724I0000000J-000492D01*
G01*
X0555098Y0078740D01*
G75*
G02*
X0554606Y0078248I-000492J0000000D01*
G01*
X0549685Y0078248D01*
G75*
G02*
X0549193Y0078740I0000000J0000492D01*
G01*
G37*
G36*
G01*
X0549193Y0081890D02*
X0549193Y0082874D01*
G75*
G02*
X0549685Y0083366I0000492J0000000D01*
G01*
X0554606Y0083366D01*
G75*
G02*
X0555098Y0082874I0000000J-000492D01*
G01*
X0555098Y0081890D01*
G75*
G02*
X0554606Y0081397I-000492J0000000D01*
G01*
X0549685Y0081397D01*
G75*
G02*
X0549193Y0081890I0000000J0000492D01*
G01*
G37*
G36*
G01*
X0549193Y0085039D02*
X0549193Y0086023D01*
G75*
G02*
X0549685Y0086515I0000492J0000000D01*
G01*
X0554606Y0086515D01*
G75*
G02*
X0555098Y0086023I0000000J-000492D01*
G01*
X0555098Y0085039D01*
G75*
G02*
X0554606Y0084547I-000492J0000000D01*
G01*
X0549685Y0084547D01*
G75*
G02*
X0549193Y0085039I0000000J0000492D01*
G01*
G37*
G36*
G01*
X0549193Y0088189D02*
X0549193Y0089173D01*
G75*
G02*
X0549685Y0089665I0000492J0000000D01*
G01*
X0554606Y0089665D01*
G75*
G02*
X0555098Y0089173I0000000J-000492D01*
G01*
X0555098Y0088189D01*
G75*
G02*
X0554606Y0087697I-000492J0000000D01*
G01*
X0549685Y0087697D01*
G75*
G02*
X0549193Y0088189I0000000J0000492D01*
G01*
G37*
G36*
G01*
X0549193Y0091338D02*
X0549193Y0092323D01*
G75*
G02*
X0549685Y0092815I0000492J0000000D01*
G01*
X0554606Y0092815D01*
G75*
G02*
X0555098Y0092323I0000000J-000492D01*
G01*
X0555098Y0091338D01*
G75*
G02*
X0554606Y0090846I-000492J0000000D01*
G01*
X0549685Y0090846D01*
G75*
G02*
X0549193Y0091338I0000000J0000492D01*
G01*
G37*
G36*
G01*
X0545748Y0094783D02*
X0545748Y0099704D01*
G75*
G02*
X0546240Y0100197I0000492J0000000D01*
G01*
X0547224Y0100197D01*
G75*
G02*
X0547716Y0099704I0000000J-000492D01*
G01*
X0547716Y0094783D01*
G75*
G02*
X0547224Y0094291I-000492J0000000D01*
G01*
X0546240Y0094291D01*
G75*
G02*
X0545748Y0094783I0000000J0000492D01*
G01*
G37*
G36*
G01*
X0542598Y0094783D02*
X0542598Y0099704D01*
G75*
G02*
X0543090Y0100197I0000492J0000000D01*
G01*
X0544075Y0100197D01*
G75*
G02*
X0544567Y0099704I0000000J-000492D01*
G01*
X0544567Y0094783D01*
G75*
G02*
X0544075Y0094291I-000492J0000000D01*
G01*
X0543090Y0094291D01*
G75*
G02*
X0542598Y0094783I0000000J0000492D01*
G01*
G37*
G36*
G01*
X0539449Y0094783D02*
X0539449Y0099704D01*
G75*
G02*
X0539941Y0100197I0000492J0000000D01*
G01*
X0540925Y0100197D01*
G75*
G02*
X0541417Y0099704I0000000J-000492D01*
G01*
X0541417Y0094783D01*
G75*
G02*
X0540925Y0094291I-000492J0000000D01*
G01*
X0539941Y0094291D01*
G75*
G02*
X0539449Y0094783I0000000J0000492D01*
G01*
G37*
G36*
G01*
X0536299Y0094783D02*
X0536299Y0099704D01*
G75*
G02*
X0536791Y0100197I0000492J0000000D01*
G01*
X0537775Y0100197D01*
G75*
G02*
X0538268Y0099704I0000000J-000492D01*
G01*
X0538268Y0094783D01*
G75*
G02*
X0537775Y0094291I-000492J0000000D01*
G01*
X0536791Y0094291D01*
G75*
G02*
X0536299Y0094783I0000000J0000492D01*
G01*
G37*
G36*
G01*
X0533150Y0094783D02*
X0533150Y0099704D01*
G75*
G02*
X0533642Y0100197I0000492J0000000D01*
G01*
X0534626Y0100197D01*
G75*
G02*
X0535118Y0099704I0000000J-000492D01*
G01*
X0535118Y0094783D01*
G75*
G02*
X0534626Y0094291I-000492J0000000D01*
G01*
X0533642Y0094291D01*
G75*
G02*
X0533150Y0094783I0000000J0000492D01*
G01*
G37*
G36*
G01*
X0530000Y0094783D02*
X0530000Y0099704D01*
G75*
G02*
X0530492Y0100197I0000492J0000000D01*
G01*
X0531476Y0100197D01*
G75*
G02*
X0531968Y0099704I0000000J-000492D01*
G01*
X0531968Y0094783D01*
G75*
G02*
X0531476Y0094291I-000492J0000000D01*
G01*
X0530492Y0094291D01*
G75*
G02*
X0530000Y0094783I0000000J0000492D01*
G01*
G37*
G36*
G01*
X0526850Y0094783D02*
X0526850Y0099704D01*
G75*
G02*
X0527342Y0100197I0000492J0000000D01*
G01*
X0528327Y0100197D01*
G75*
G02*
X0528819Y0099704I0000000J-000492D01*
G01*
X0528819Y0094783D01*
G75*
G02*
X0528327Y0094291I-000492J0000000D01*
G01*
X0527342Y0094291D01*
G75*
G02*
X0526850Y0094783I0000000J0000492D01*
G01*
G37*
G36*
G01*
X0523701Y0094783D02*
X0523701Y0099704D01*
G75*
G02*
X0524193Y0100197I0000492J0000000D01*
G01*
X0525177Y0100197D01*
G75*
G02*
X0525669Y0099704I0000000J-000492D01*
G01*
X0525669Y0094783D01*
G75*
G02*
X0525177Y0094291I-000492J0000000D01*
G01*
X0524193Y0094291D01*
G75*
G02*
X0523701Y0094783I0000000J0000492D01*
G01*
G37*
G36*
G01*
X0516535Y0066328D02*
X0516535Y0064970D01*
G75*
G02*
X0515955Y0064390I-000581J0000000D01*
G01*
X0514793Y0064390D01*
G75*
G02*
X0514212Y0064970I0000000J0000581D01*
G01*
X0514212Y0066328D01*
G75*
G02*
X0514793Y0066909I0000581J0000000D01*
G01*
X0515955Y0066909D01*
G75*
G02*
X0516535Y0066328I0000000J-000581D01*
G01*
G37*
G36*
G01*
X0512716Y0066328D02*
X0512716Y0064970D01*
G75*
G02*
X0512136Y0064390I-000581J0000000D01*
G01*
X0510974Y0064390D01*
G75*
G02*
X0510394Y0064970I0000000J0000581D01*
G01*
X0510394Y0066328D01*
G75*
G02*
X0510974Y0066909I0000581J0000000D01*
G01*
X0512136Y0066909D01*
G75*
G02*
X0512716Y0066328I0000000J-000581D01*
G01*
G37*
G36*
G01*
X0502913Y0063789D02*
X0502913Y0065147D01*
G75*
G02*
X0503494Y0065728I0000581J0000000D01*
G01*
X0504655Y0065728D01*
G75*
G02*
X0505236Y0065147I0000000J-000581D01*
G01*
X0505236Y0063789D01*
G75*
G02*
X0504655Y0063208I-000581J0000000D01*
G01*
X0503494Y0063208D01*
G75*
G02*
X0502913Y0063789I0000000J0000581D01*
G01*
G37*
G36*
G01*
X0506732Y0063789D02*
X0506732Y0065147D01*
G75*
G02*
X0507313Y0065728I0000581J0000000D01*
G01*
X0508474Y0065728D01*
G75*
G02*
X0509055Y0065147I0000000J-000581D01*
G01*
X0509055Y0063789D01*
G75*
G02*
X0508474Y0063208I-000581J0000000D01*
G01*
X0507313Y0063208D01*
G75*
G02*
X0506732Y0063789I0000000J0000581D01*
G01*
G37*
G36*
G01*
X0508425Y0088986D02*
X0508425Y0090344D01*
G75*
G02*
X0509006Y0090925I0000581J0000000D01*
G01*
X0510167Y0090925D01*
G75*
G02*
X0510748Y0090344I0000000J-000581D01*
G01*
X0510748Y0088986D01*
G75*
G02*
X0510167Y0088405I-000581J0000000D01*
G01*
X0509006Y0088405D01*
G75*
G02*
X0508425Y0088986I0000000J0000581D01*
G01*
G37*
G36*
G01*
X0512244Y0088986D02*
X0512244Y0090344D01*
G75*
G02*
X0512825Y0090925I0000581J0000000D01*
G01*
X0513986Y0090925D01*
G75*
G02*
X0514567Y0090344I0000000J-000581D01*
G01*
X0514567Y0088986D01*
G75*
G02*
X0513986Y0088405I-000581J0000000D01*
G01*
X0512825Y0088405D01*
G75*
G02*
X0512244Y0088986I0000000J0000581D01*
G01*
G37*
G36*
G01*
X0561220Y0070807D02*
X0559862Y0070807D01*
G75*
G02*
X0559281Y0071388I0000000J0000581D01*
G01*
X0559281Y0072549D01*
G75*
G02*
X0559862Y0073130I0000581J0000000D01*
G01*
X0561220Y0073130D01*
G75*
G02*
X0561801Y0072549I0000000J-000581D01*
G01*
X0561801Y0071388D01*
G75*
G02*
X0561220Y0070807I-000581J0000000D01*
G01*
G37*
G36*
G01*
X0561220Y0074626D02*
X0559862Y0074626D01*
G75*
G02*
X0559281Y0075207I0000000J0000581D01*
G01*
X0559281Y0076368D01*
G75*
G02*
X0559862Y0076949I0000581J0000000D01*
G01*
X0561220Y0076949D01*
G75*
G02*
X0561801Y0076368I0000000J-000581D01*
G01*
X0561801Y0075207D01*
G75*
G02*
X0561220Y0074626I-000581J0000000D01*
G01*
G37*
G36*
G01*
X0551939Y0097165D02*
X0550581Y0097165D01*
G75*
G02*
X0550000Y0097746I0000000J0000581D01*
G01*
X0550000Y0098907D01*
G75*
G02*
X0550581Y0099488I0000581J0000000D01*
G01*
X0551939Y0099488D01*
G75*
G02*
X0552520Y0098907I0000000J-000581D01*
G01*
X0552520Y0097746D01*
G75*
G02*
X0551939Y0097165I-000581J0000000D01*
G01*
G37*
G36*
G01*
X0551939Y0100984D02*
X0550581Y0100984D01*
G75*
G02*
X0550000Y0101565I0000000J0000581D01*
G01*
X0550000Y0102726D01*
G75*
G02*
X0550581Y0103307I0000581J0000000D01*
G01*
X0551939Y0103307D01*
G75*
G02*
X0552520Y0102726I0000000J-000581D01*
G01*
X0552520Y0101565D01*
G75*
G02*
X0551939Y0100984I-000581J0000000D01*
G01*
G37*
G36*
G01*
X0575681Y0074832D02*
X0575681Y0073474D01*
G75*
G02*
X0575100Y0072893I-000581J0000000D01*
G01*
X0573939Y0072893D01*
G75*
G02*
X0573358Y0073474I0000000J0000581D01*
G01*
X0573358Y0074832D01*
G75*
G02*
X0573939Y0075413I0000581J0000000D01*
G01*
X0575100Y0075413D01*
G75*
G02*
X0575681Y0074832I0000000J-000581D01*
G01*
G37*
G36*
G01*
X0571862Y0074832D02*
X0571862Y0073474D01*
G75*
G02*
X0571281Y0072893I-000581J0000000D01*
G01*
X0570120Y0072893D01*
G75*
G02*
X0569539Y0073474I0000000J0000581D01*
G01*
X0569539Y0074832D01*
G75*
G02*
X0570120Y0075413I0000581J0000000D01*
G01*
X0571281Y0075413D01*
G75*
G02*
X0571862Y0074832I0000000J-000581D01*
G01*
G37*
D95*
X0574350Y0069090D03*
X0566870Y0069090D03*
X0570610Y0061216D03*
G36*
G01*
X0472907Y0092842D02*
X0474266Y0092842D01*
G75*
G02*
X0474846Y0092262I0000000J-000581D01*
G01*
X0474846Y0091100D01*
G75*
G02*
X0474266Y0090519I-000581J0000000D01*
G01*
X0472907Y0090519D01*
G75*
G02*
X0472327Y0091100I0000000J0000581D01*
G01*
X0472327Y0092262D01*
G75*
G02*
X0472907Y0092842I0000581J0000000D01*
G01*
G37*
G36*
G01*
X0472907Y0089023D02*
X0474266Y0089023D01*
G75*
G02*
X0474846Y0088443I0000000J-000581D01*
G01*
X0474846Y0087281D01*
G75*
G02*
X0474266Y0086701I-000581J0000000D01*
G01*
X0472907Y0086701D01*
G75*
G02*
X0472327Y0087281I0000000J0000581D01*
G01*
X0472327Y0088443D01*
G75*
G02*
X0472907Y0089023I0000581J0000000D01*
G01*
G37*
G36*
G01*
X0561255Y0059173D02*
X0559237Y0059173D01*
G75*
G02*
X0558376Y0060034I0000000J0000861D01*
G01*
X0558376Y0061757D01*
G75*
G02*
X0559237Y0062618I0000861J0000000D01*
G01*
X0561255Y0062618D01*
G75*
G02*
X0562116Y0061757I0000000J-000861D01*
G01*
X0562116Y0060034D01*
G75*
G02*
X0561255Y0059173I-000861J0000000D01*
G01*
G37*
G36*
G01*
X0561255Y0065374D02*
X0559237Y0065374D01*
G75*
G02*
X0558376Y0066235I0000000J0000861D01*
G01*
X0558376Y0067958D01*
G75*
G02*
X0559237Y0068819I0000861J0000000D01*
G01*
X0561255Y0068819D01*
G75*
G02*
X0562116Y0067958I0000000J-000861D01*
G01*
X0562116Y0066235D01*
G75*
G02*
X0561255Y0065374I-000861J0000000D01*
G01*
G37*
M02*
