G04 #@! TF.GenerationSoftware,KiCad,Pcbnew,(5.99.0-13086-gffd1139cfe)*
G04 #@! TF.CreationDate,2021-11-14T02:18:31+03:00*
G04 #@! TF.ProjectId,proteusM54,70726f74-6575-4734-9d35-342e6b696361,a*
G04 #@! TF.SameCoordinates,PX4d3f640PYcfb5d40*
G04 #@! TF.FileFunction,Soldermask,Top*
G04 #@! TF.FilePolarity,Negative*
%FSLAX46Y46*%
G04 Gerber Fmt 4.6, Leading zero omitted, Abs format (unit mm)*
G04 Created by KiCad (PCBNEW (5.99.0-13086-gffd1139cfe)) date 2021-11-14 02:18:31*
%MOMM*%
%LPD*%
G01*
G04 APERTURE LIST*
%ADD10R,1.800000X2.500000*%
%ADD11R,4.600000X1.100000*%
%ADD12R,9.400000X10.800000*%
%ADD13C,1.700000*%
%ADD14C,5.500000*%
%ADD15R,1.700000X1.700000*%
%ADD16O,1.700000X1.700000*%
%ADD17C,1.650000*%
%ADD18C,2.475000*%
%ADD19C,1.875000*%
%ADD20C,3.525000*%
%ADD21C,5.775000*%
%ADD22C,4.500000*%
%ADD23C,3.302000*%
%ADD24R,1.350000X0.690000*%
%ADD25C,1.524000*%
%ADD26R,2.000000X1.500000*%
%ADD27R,2.000000X3.800000*%
%ADD28O,0.250000X0.499999*%
%ADD29O,0.499999X0.250000*%
%ADD30C,0.599999*%
%ADD31C,3.500000*%
%ADD32R,2.540000X1.520000*%
%ADD33C,2.000000*%
%ADD34C,2.400000*%
%ADD35O,1.700000X1.950000*%
G04 APERTURE END LIST*
D10*
G04 #@! TO.C,D2*
X109000000Y126500000D03*
X109000000Y130500000D03*
G04 #@! TD*
D11*
G04 #@! TO.C,Q1*
X5425000Y93765000D03*
D12*
X14575000Y91225000D03*
D11*
X5425000Y88685000D03*
G04 #@! TD*
D13*
G04 #@! TO.C,P17*
X125500000Y130000000D03*
G04 #@! TD*
G04 #@! TO.C,P68*
X123220000Y80424000D03*
G04 #@! TD*
D11*
G04 #@! TO.C,Q3*
X5425000Y29765000D03*
D12*
X14575000Y27225000D03*
D11*
X5425000Y24685000D03*
G04 #@! TD*
D13*
G04 #@! TO.C,P38*
X70000000Y125500000D03*
G04 #@! TD*
G04 #@! TO.C,R11*
G36*
G01*
X3625000Y113800000D02*
X3625000Y116650000D01*
G75*
G02*
X3875000Y116900000I250000J0D01*
G01*
X4600000Y116900000D01*
G75*
G02*
X4850000Y116650000I0J-250000D01*
G01*
X4850000Y113800000D01*
G75*
G02*
X4600000Y113550000I-250000J0D01*
G01*
X3875000Y113550000D01*
G75*
G02*
X3625000Y113800000I0J250000D01*
G01*
G37*
G36*
G01*
X9550000Y113800000D02*
X9550000Y116650000D01*
G75*
G02*
X9800000Y116900000I250000J0D01*
G01*
X10525000Y116900000D01*
G75*
G02*
X10775000Y116650000I0J-250000D01*
G01*
X10775000Y113800000D01*
G75*
G02*
X10525000Y113550000I-250000J0D01*
G01*
X9800000Y113550000D01*
G75*
G02*
X9550000Y113800000I0J250000D01*
G01*
G37*
G04 #@! TD*
G04 #@! TO.C,G2*
X175290000Y100330000D03*
X175290000Y102870000D03*
X175290000Y105410000D03*
X175290000Y107950000D03*
X175290000Y110490000D03*
X177830000Y100330000D03*
X177830000Y102870000D03*
X177830000Y105410000D03*
X177830000Y107950000D03*
X177830000Y110490000D03*
X180370000Y100330000D03*
X180370000Y102870000D03*
X180370000Y105410000D03*
X180370000Y107950000D03*
X180370000Y110490000D03*
G04 #@! TD*
G04 #@! TO.C,P56*
X70000000Y121000000D03*
G04 #@! TD*
G04 #@! TO.C,R16*
G36*
G01*
X87185000Y121720000D02*
X86815000Y121720000D01*
G75*
G02*
X86680000Y121855000I0J135000D01*
G01*
X86680000Y122125000D01*
G75*
G02*
X86815000Y122260000I135000J0D01*
G01*
X87185000Y122260000D01*
G75*
G02*
X87320000Y122125000I0J-135000D01*
G01*
X87320000Y121855000D01*
G75*
G02*
X87185000Y121720000I-135000J0D01*
G01*
G37*
G36*
G01*
X87185000Y122740000D02*
X86815000Y122740000D01*
G75*
G02*
X86680000Y122875000I0J135000D01*
G01*
X86680000Y123145000D01*
G75*
G02*
X86815000Y123280000I135000J0D01*
G01*
X87185000Y123280000D01*
G75*
G02*
X87320000Y123145000I0J-135000D01*
G01*
X87320000Y122875000D01*
G75*
G02*
X87185000Y122740000I-135000J0D01*
G01*
G37*
G04 #@! TD*
G04 #@! TO.C,P72*
X95280000Y32512000D03*
G04 #@! TD*
G04 #@! TO.C,P34*
X86000000Y130000000D03*
G04 #@! TD*
G04 #@! TO.C,R2*
G36*
G01*
X2590000Y97075000D02*
X1810000Y97075000D01*
G75*
G02*
X1740000Y97145000I0J70000D01*
G01*
X1740000Y97705000D01*
G75*
G02*
X1810000Y97775000I70000J0D01*
G01*
X2590000Y97775000D01*
G75*
G02*
X2660000Y97705000I0J-70000D01*
G01*
X2660000Y97145000D01*
G75*
G02*
X2590000Y97075000I-70000J0D01*
G01*
G37*
G36*
G01*
X2590000Y98675000D02*
X1810000Y98675000D01*
G75*
G02*
X1740000Y98745000I0J70000D01*
G01*
X1740000Y99305000D01*
G75*
G02*
X1810000Y99375000I70000J0D01*
G01*
X2590000Y99375000D01*
G75*
G02*
X2660000Y99305000I0J-70000D01*
G01*
X2660000Y98745000D01*
G75*
G02*
X2590000Y98675000I-70000J0D01*
G01*
G37*
G04 #@! TD*
G04 #@! TO.C,P83*
X59100000Y62500000D03*
G04 #@! TD*
G04 #@! TO.C,P59*
X58000000Y130000000D03*
G04 #@! TD*
G04 #@! TO.C,P82*
X59212000Y70612000D03*
G04 #@! TD*
G04 #@! TO.C,G8*
X175290000Y113030000D03*
X175290000Y115570000D03*
X175290000Y118110000D03*
X175290000Y120650000D03*
X175290000Y123190000D03*
X177830000Y113030000D03*
X177830000Y115570000D03*
X177830000Y118110000D03*
X177830000Y120650000D03*
X177830000Y123190000D03*
X180370000Y113030000D03*
X180370000Y115570000D03*
X180370000Y118110000D03*
X180370000Y120650000D03*
X180370000Y123190000D03*
G04 #@! TD*
D14*
G04 #@! TO.C,J5*
X27000000Y6500000D03*
G04 #@! TD*
D15*
G04 #@! TO.C,J3*
X132950000Y31750000D03*
D16*
X135490000Y31750000D03*
X138030000Y31750000D03*
X140570000Y31750000D03*
X143110000Y31750000D03*
X145650000Y31750000D03*
G04 #@! TD*
D17*
G04 #@! TO.C,F7*
X46000000Y124040000D03*
X46000000Y118960000D03*
G04 #@! TD*
D13*
G04 #@! TO.C,P55*
X73000000Y130000000D03*
G04 #@! TD*
G04 #@! TO.C,C4*
G36*
G01*
X76940000Y30184999D02*
X76260000Y30184999D01*
G75*
G02*
X76175000Y30269999I0J85000D01*
G01*
X76175000Y30949999D01*
G75*
G02*
X76260000Y31034999I85000J0D01*
G01*
X76940000Y31034999D01*
G75*
G02*
X77025000Y30949999I0J-85000D01*
G01*
X77025000Y30269999D01*
G75*
G02*
X76940000Y30184999I-85000J0D01*
G01*
G37*
G36*
G01*
X76940000Y31765001D02*
X76260000Y31765001D01*
G75*
G02*
X76175000Y31850001I0J85000D01*
G01*
X76175000Y32530001D01*
G75*
G02*
X76260000Y32615001I85000J0D01*
G01*
X76940000Y32615001D01*
G75*
G02*
X77025000Y32530001I0J-85000D01*
G01*
X77025000Y31850001D01*
G75*
G02*
X76940000Y31765001I-85000J0D01*
G01*
G37*
G04 #@! TD*
G04 #@! TO.C,P80*
X59212000Y83312000D03*
G04 #@! TD*
D10*
G04 #@! TO.C,D3*
X99000000Y126500000D03*
X99000000Y130500000D03*
G04 #@! TD*
D13*
G04 #@! TO.C,P78*
X59212000Y86360000D03*
G04 #@! TD*
G04 #@! TO.C,P76*
X102392000Y32512000D03*
G04 #@! TD*
G04 #@! TO.C,P50*
X67000000Y125500000D03*
G04 #@! TD*
G04 #@! TO.C,P71*
X123500000Y66700000D03*
G04 #@! TD*
G04 #@! TO.C,R13*
G36*
G01*
X3625000Y65800000D02*
X3625000Y68650000D01*
G75*
G02*
X3875000Y68900000I250000J0D01*
G01*
X4600000Y68900000D01*
G75*
G02*
X4850000Y68650000I0J-250000D01*
G01*
X4850000Y65800000D01*
G75*
G02*
X4600000Y65550000I-250000J0D01*
G01*
X3875000Y65550000D01*
G75*
G02*
X3625000Y65800000I0J250000D01*
G01*
G37*
G36*
G01*
X9550000Y65800000D02*
X9550000Y68650000D01*
G75*
G02*
X9800000Y68900000I250000J0D01*
G01*
X10525000Y68900000D01*
G75*
G02*
X10775000Y68650000I0J-250000D01*
G01*
X10775000Y65800000D01*
G75*
G02*
X10525000Y65550000I-250000J0D01*
G01*
X9800000Y65550000D01*
G75*
G02*
X9550000Y65800000I0J250000D01*
G01*
G37*
G04 #@! TD*
G04 #@! TO.C,P23*
X105500000Y118000000D03*
G04 #@! TD*
G04 #@! TO.C,P46*
X58000000Y121000000D03*
G04 #@! TD*
G04 #@! TO.C,R5*
G36*
G01*
X44312000Y27764001D02*
X45092000Y27764001D01*
G75*
G02*
X45162000Y27694001I0J-70000D01*
G01*
X45162000Y27134001D01*
G75*
G02*
X45092000Y27064001I-70000J0D01*
G01*
X44312000Y27064001D01*
G75*
G02*
X44242000Y27134001I0J70000D01*
G01*
X44242000Y27694001D01*
G75*
G02*
X44312000Y27764001I70000J0D01*
G01*
G37*
G36*
G01*
X44312000Y26164001D02*
X45092000Y26164001D01*
G75*
G02*
X45162000Y26094001I0J-70000D01*
G01*
X45162000Y25534001D01*
G75*
G02*
X45092000Y25464001I-70000J0D01*
G01*
X44312000Y25464001D01*
G75*
G02*
X44242000Y25534001I0J70000D01*
G01*
X44242000Y26094001D01*
G75*
G02*
X44312000Y26164001I70000J0D01*
G01*
G37*
G04 #@! TD*
G04 #@! TO.C,P28*
X79500000Y112000000D03*
G04 #@! TD*
G04 #@! TO.C,P30*
X105500000Y125500000D03*
G04 #@! TD*
G04 #@! TO.C,P61*
X41000000Y130000000D03*
G04 #@! TD*
G04 #@! TO.C,P20*
X116500000Y130000000D03*
G04 #@! TD*
D18*
G04 #@! TO.C,J9*
X146700000Y147700000D03*
X141700000Y147700000D03*
X136700000Y147700000D03*
X146700000Y142000000D03*
X141700000Y142000000D03*
X136700000Y142000000D03*
X146700000Y136300000D03*
X141700000Y136300000D03*
X136540000Y136300000D03*
D19*
X129700000Y148300000D03*
X127160000Y148300000D03*
X124620000Y148300000D03*
X122080000Y148300000D03*
X119540000Y148300000D03*
X117000000Y148300000D03*
X129700000Y145760000D03*
X127160000Y145760000D03*
X124620000Y145760000D03*
X122080000Y145760000D03*
X119540000Y145760000D03*
X117000000Y145760000D03*
X129700000Y139710000D03*
X127160000Y139710000D03*
X124620000Y139710000D03*
X122080000Y139710000D03*
X119540000Y139710000D03*
X117000000Y139710000D03*
X129700000Y137170000D03*
X127160000Y137170000D03*
X124620000Y137170000D03*
X122080000Y137170000D03*
X119540000Y137170000D03*
X117000000Y137170000D03*
X111300000Y148300000D03*
X108760000Y148300000D03*
X106220000Y148300000D03*
X103680000Y148300000D03*
X101140000Y148300000D03*
X98600000Y148300000D03*
X96060000Y148300000D03*
X93520000Y148300000D03*
X90980000Y148300000D03*
X88440000Y148300000D03*
X85900000Y148300000D03*
X83360000Y148300000D03*
X80820000Y148300000D03*
X111300000Y145760000D03*
X108760000Y145760000D03*
X106220000Y145760000D03*
X103680000Y145760000D03*
X101140000Y145760000D03*
X98600000Y145760000D03*
X96060000Y145760000D03*
X93520000Y145760000D03*
X90980000Y145760000D03*
X88440000Y145760000D03*
X85900000Y145760000D03*
X83360000Y145760000D03*
X80820000Y145760000D03*
X111300000Y139710000D03*
X108760000Y139710000D03*
X106220000Y139710000D03*
X103680000Y139710000D03*
X101140000Y139710000D03*
X98600000Y139710000D03*
X96060000Y139710000D03*
X93520000Y139710000D03*
X90980000Y139710000D03*
X88440000Y139710000D03*
X85900000Y139710000D03*
X83360000Y139710000D03*
X80820000Y139710000D03*
X111300000Y137170000D03*
X108760000Y137170000D03*
X106220000Y137170000D03*
X103680000Y137170000D03*
X101140000Y137170000D03*
X98600000Y137170000D03*
X96060000Y137170000D03*
X93520000Y137170000D03*
X90980000Y137170000D03*
X88440000Y137170000D03*
X85900000Y137170000D03*
X83360000Y137170000D03*
X80820000Y137170000D03*
X75100000Y148300000D03*
X72560000Y148300000D03*
X70020000Y148300000D03*
X67480000Y148300000D03*
X64940000Y148300000D03*
X62400000Y148300000D03*
X59860000Y148300000D03*
X57320000Y148300000D03*
X54780000Y148300000D03*
X52240000Y148300000D03*
X75100000Y145760000D03*
X72560000Y145760000D03*
X70020000Y145760000D03*
X67480000Y145760000D03*
X64940000Y145760000D03*
X62400000Y145760000D03*
X59860000Y145760000D03*
X57320000Y145760000D03*
X54780000Y145760000D03*
X52240000Y145760000D03*
X75100000Y139710000D03*
X72560000Y139710000D03*
X70020000Y139710000D03*
X67480000Y139710000D03*
X64940000Y139710000D03*
X62400000Y139710000D03*
X59860000Y139710000D03*
X57320000Y139710000D03*
X54780000Y139710000D03*
X52240000Y139710000D03*
X75100000Y137170000D03*
X72560000Y137170000D03*
X70020000Y137170000D03*
X67480000Y137170000D03*
X64940000Y137170000D03*
X62400000Y137170000D03*
X59860000Y137170000D03*
X57320000Y137170000D03*
X54780000Y137170000D03*
X52240000Y137170000D03*
D18*
X45300000Y147700000D03*
X40300000Y147700000D03*
X35300000Y147700000D03*
X45300000Y142000000D03*
X40300000Y142000000D03*
X35300000Y142000000D03*
X45300000Y136300000D03*
X40300000Y136300000D03*
X35300000Y136300000D03*
D20*
X156400000Y149900000D03*
X25600000Y149900000D03*
D21*
X154350000Y154800000D03*
X27650000Y154800000D03*
G04 #@! TD*
D13*
G04 #@! TO.C,P1*
X144000000Y130000000D03*
G04 #@! TD*
G04 #@! TO.C,G4*
X160050000Y100330000D03*
X160050000Y102870000D03*
X160050000Y105410000D03*
X160050000Y107950000D03*
X160050000Y110490000D03*
X162590000Y100330000D03*
X162590000Y102870000D03*
X162590000Y105410000D03*
X162590000Y107950000D03*
X162590000Y110490000D03*
X165130000Y100330000D03*
X165130000Y102870000D03*
X165130000Y105410000D03*
X165130000Y107950000D03*
X165130000Y110490000D03*
G04 #@! TD*
G04 #@! TO.C,P16*
X128500000Y130000000D03*
G04 #@! TD*
D22*
G04 #@! TO.C,J6*
X91000000Y75000000D03*
G04 #@! TD*
D13*
G04 #@! TO.C,P77*
X105440000Y32512000D03*
G04 #@! TD*
G04 #@! TO.C,P31*
X79500000Y118000000D03*
G04 #@! TD*
D23*
G04 #@! TO.C,U2*
X49470000Y19410000D03*
X72330000Y19410000D03*
D24*
X56000000Y25100000D03*
X56000000Y23830000D03*
X56000000Y22560000D03*
X56000000Y21290000D03*
X65842500Y21290000D03*
X65842500Y25100000D03*
D25*
X67250000Y32110000D03*
X64710000Y32110000D03*
D24*
X65842500Y23830000D03*
D25*
X62170000Y32110000D03*
D24*
X65842500Y22560000D03*
D25*
X59630000Y32110000D03*
X57090000Y32110000D03*
X54550000Y32110000D03*
G04 #@! TD*
D13*
G04 #@! TO.C,P6*
X128500000Y121000000D03*
G04 #@! TD*
D17*
G04 #@! TO.C,F3*
X31000000Y124040000D03*
X31000000Y118960000D03*
G04 #@! TD*
D26*
G04 #@! TO.C,Q7*
X89350000Y123300000D03*
X89350000Y121000000D03*
X89350000Y118700000D03*
D27*
X95650000Y121000000D03*
G04 #@! TD*
G04 #@! TO.C,R4*
G36*
G01*
X2590000Y33075000D02*
X1810000Y33075000D01*
G75*
G02*
X1740000Y33145000I0J70000D01*
G01*
X1740000Y33705000D01*
G75*
G02*
X1810000Y33775000I70000J0D01*
G01*
X2590000Y33775000D01*
G75*
G02*
X2660000Y33705000I0J-70000D01*
G01*
X2660000Y33145000D01*
G75*
G02*
X2590000Y33075000I-70000J0D01*
G01*
G37*
G36*
G01*
X2590000Y34675000D02*
X1810000Y34675000D01*
G75*
G02*
X1740000Y34745000I0J70000D01*
G01*
X1740000Y35305000D01*
G75*
G02*
X1810000Y35375000I70000J0D01*
G01*
X2590000Y35375000D01*
G75*
G02*
X2660000Y35305000I0J-70000D01*
G01*
X2660000Y34745000D01*
G75*
G02*
X2590000Y34675000I-70000J0D01*
G01*
G37*
G04 #@! TD*
D13*
G04 #@! TO.C,P15*
X131500000Y125500000D03*
G04 #@! TD*
G04 #@! TO.C,G3*
X167670000Y100330000D03*
X167670000Y102870000D03*
X167670000Y105410000D03*
X167670000Y107950000D03*
X167670000Y110490000D03*
X170210000Y100330000D03*
X170210000Y102870000D03*
X170210000Y105410000D03*
X170210000Y107950000D03*
X170210000Y110490000D03*
X172750000Y100330000D03*
X172750000Y102870000D03*
X172750000Y105410000D03*
X172750000Y107950000D03*
X172750000Y110490000D03*
G04 #@! TD*
G04 #@! TO.C,P22*
X105500000Y121000000D03*
G04 #@! TD*
G04 #@! TO.C,P74*
X89184000Y32512000D03*
G04 #@! TD*
D10*
G04 #@! TO.C,D1*
X113000000Y126500000D03*
X113000000Y130500000D03*
G04 #@! TD*
D13*
G04 #@! TO.C,P13*
X119500000Y125500000D03*
G04 #@! TD*
G04 #@! TO.C,P8*
X116500000Y121000000D03*
G04 #@! TD*
G04 #@! TO.C,P58*
X67000000Y130000000D03*
G04 #@! TD*
G04 #@! TO.C,P41*
X76000000Y121000000D03*
G04 #@! TD*
G04 #@! TO.C,R1*
G36*
G01*
X60375000Y129950001D02*
X61625000Y129950001D01*
G75*
G02*
X61725000Y129850001I0J-100000D01*
G01*
X61725000Y129050001D01*
G75*
G02*
X61625000Y128950001I-100000J0D01*
G01*
X60375000Y128950001D01*
G75*
G02*
X60275000Y129050001I0J100000D01*
G01*
X60275000Y129850001D01*
G75*
G02*
X60375000Y129950001I100000J0D01*
G01*
G37*
D25*
X61000000Y130405000D03*
X61000000Y126595000D03*
G36*
G01*
X60375000Y128049979D02*
X61625000Y128049979D01*
G75*
G02*
X61725000Y127949979I0J-100000D01*
G01*
X61725000Y127149979D01*
G75*
G02*
X61625000Y127049979I-100000J0D01*
G01*
X60375000Y127049979D01*
G75*
G02*
X60275000Y127149979I0J100000D01*
G01*
X60275000Y127949979D01*
G75*
G02*
X60375000Y128049979I100000J0D01*
G01*
G37*
G04 #@! TD*
G04 #@! TO.C,C1*
G36*
G01*
X44362000Y24729002D02*
X45042000Y24729002D01*
G75*
G02*
X45127000Y24644002I0J-85000D01*
G01*
X45127000Y23964002D01*
G75*
G02*
X45042000Y23879002I-85000J0D01*
G01*
X44362000Y23879002D01*
G75*
G02*
X44277000Y23964002I0J85000D01*
G01*
X44277000Y24644002D01*
G75*
G02*
X44362000Y24729002I85000J0D01*
G01*
G37*
G36*
G01*
X44362000Y23149000D02*
X45042000Y23149000D01*
G75*
G02*
X45127000Y23064000I0J-85000D01*
G01*
X45127000Y22384000D01*
G75*
G02*
X45042000Y22299000I-85000J0D01*
G01*
X44362000Y22299000D01*
G75*
G02*
X44277000Y22384000I0J85000D01*
G01*
X44277000Y23064000D01*
G75*
G02*
X44362000Y23149000I85000J0D01*
G01*
G37*
G04 #@! TD*
D13*
G04 #@! TO.C,P39*
X67000000Y118000000D03*
G04 #@! TD*
D11*
G04 #@! TO.C,Q2*
X5425000Y109765000D03*
D12*
X14575000Y107225000D03*
D11*
X5425000Y104685000D03*
G04 #@! TD*
D28*
G04 #@! TO.C,M2*
X157913334Y25237495D03*
D29*
X157863336Y14887501D03*
X157863336Y15387502D03*
D30*
X156813338Y21937499D03*
X156288338Y21062497D03*
X155538340Y22237501D03*
X151988339Y22162498D03*
G04 #@! TD*
D13*
G04 #@! TO.C,P24*
X99000000Y122000000D03*
G04 #@! TD*
G04 #@! TO.C,P4*
X136500000Y130000000D03*
G04 #@! TD*
G04 #@! TO.C,P2*
X136500000Y125500000D03*
G04 #@! TD*
D25*
G04 #@! TO.C,F1*
X140500000Y130950000D03*
G36*
G01*
X139600000Y129605010D02*
X139600000Y130295010D01*
G75*
G02*
X139830000Y130525010I230000J0D01*
G01*
X141170000Y130525010D01*
G75*
G02*
X141400000Y130295010I0J-230000D01*
G01*
X141400000Y129605010D01*
G75*
G02*
X141170000Y129375010I-230000J0D01*
G01*
X139830000Y129375010D01*
G75*
G02*
X139600000Y129605010I0J230000D01*
G01*
G37*
G36*
G01*
X139600000Y126704990D02*
X139600000Y127394990D01*
G75*
G02*
X139830000Y127624990I230000J0D01*
G01*
X141170000Y127624990D01*
G75*
G02*
X141400000Y127394990I0J-230000D01*
G01*
X141400000Y126704990D01*
G75*
G02*
X141170000Y126474990I-230000J0D01*
G01*
X139830000Y126474990D01*
G75*
G02*
X139600000Y126704990I0J230000D01*
G01*
G37*
X140500000Y126050000D03*
G04 #@! TD*
D10*
G04 #@! TO.C,D5*
X79800000Y126500000D03*
X79800000Y130500000D03*
G04 #@! TD*
D13*
G04 #@! TO.C,P53*
X55000000Y125500000D03*
G04 #@! TD*
G04 #@! TO.C,P67*
X123500000Y62300000D03*
G04 #@! TD*
G04 #@! TO.C,P60*
X55000000Y130000000D03*
G04 #@! TD*
G04 #@! TO.C,P52*
X58000000Y125500000D03*
G04 #@! TD*
D31*
G04 #@! TO.C,J2*
X163000000Y128000000D03*
G04 #@! TD*
D13*
G04 #@! TO.C,P45*
X61000000Y122500000D03*
G04 #@! TD*
G04 #@! TO.C,P65*
X123500000Y48900000D03*
G04 #@! TD*
G04 #@! TO.C,P7*
X119500000Y121000000D03*
G04 #@! TD*
G04 #@! TO.C,C2*
G36*
G01*
X48642000Y25499000D02*
X47962000Y25499000D01*
G75*
G02*
X47877000Y25584000I0J85000D01*
G01*
X47877000Y26264000D01*
G75*
G02*
X47962000Y26349000I85000J0D01*
G01*
X48642000Y26349000D01*
G75*
G02*
X48727000Y26264000I0J-85000D01*
G01*
X48727000Y25584000D01*
G75*
G02*
X48642000Y25499000I-85000J0D01*
G01*
G37*
G36*
G01*
X48642000Y27079002D02*
X47962000Y27079002D01*
G75*
G02*
X47877000Y27164002I0J85000D01*
G01*
X47877000Y27844002D01*
G75*
G02*
X47962000Y27929002I85000J0D01*
G01*
X48642000Y27929002D01*
G75*
G02*
X48727000Y27844002I0J-85000D01*
G01*
X48727000Y27164002D01*
G75*
G02*
X48642000Y27079002I-85000J0D01*
G01*
G37*
G04 #@! TD*
G04 #@! TO.C,R14*
G36*
G01*
X3625000Y49800000D02*
X3625000Y52650000D01*
G75*
G02*
X3875000Y52900000I250000J0D01*
G01*
X4600000Y52900000D01*
G75*
G02*
X4850000Y52650000I0J-250000D01*
G01*
X4850000Y49800000D01*
G75*
G02*
X4600000Y49550000I-250000J0D01*
G01*
X3875000Y49550000D01*
G75*
G02*
X3625000Y49800000I0J250000D01*
G01*
G37*
G36*
G01*
X9550000Y49800000D02*
X9550000Y52650000D01*
G75*
G02*
X9800000Y52900000I250000J0D01*
G01*
X10525000Y52900000D01*
G75*
G02*
X10775000Y52650000I0J-250000D01*
G01*
X10775000Y49800000D01*
G75*
G02*
X10525000Y49550000I-250000J0D01*
G01*
X9800000Y49550000D01*
G75*
G02*
X9550000Y49800000I0J250000D01*
G01*
G37*
G04 #@! TD*
G04 #@! TO.C,P63*
X123200000Y71200000D03*
G04 #@! TD*
G04 #@! TO.C,R12*
G36*
G01*
X3625000Y33800000D02*
X3625000Y36650000D01*
G75*
G02*
X3875000Y36900000I250000J0D01*
G01*
X4600000Y36900000D01*
G75*
G02*
X4850000Y36650000I0J-250000D01*
G01*
X4850000Y33800000D01*
G75*
G02*
X4600000Y33550000I-250000J0D01*
G01*
X3875000Y33550000D01*
G75*
G02*
X3625000Y33800000I0J250000D01*
G01*
G37*
G36*
G01*
X9550000Y33800000D02*
X9550000Y36650000D01*
G75*
G02*
X9800000Y36900000I250000J0D01*
G01*
X10525000Y36900000D01*
G75*
G02*
X10775000Y36650000I0J-250000D01*
G01*
X10775000Y33800000D01*
G75*
G02*
X10525000Y33550000I-250000J0D01*
G01*
X9800000Y33550000D01*
G75*
G02*
X9550000Y33800000I0J250000D01*
G01*
G37*
G04 #@! TD*
G04 #@! TO.C,P47*
X55000000Y121000000D03*
G04 #@! TD*
G04 #@! TO.C,P54*
X76000000Y130000000D03*
G04 #@! TD*
D11*
G04 #@! TO.C,Q6*
X5425000Y77765000D03*
D12*
X14575000Y75225000D03*
D11*
X5425000Y72685000D03*
G04 #@! TD*
D17*
G04 #@! TO.C,F6*
X41000000Y124040000D03*
X41000000Y118960000D03*
G04 #@! TD*
D13*
G04 #@! TO.C,P11*
X125500000Y125500000D03*
G04 #@! TD*
G04 #@! TO.C,G5*
X167670000Y113030000D03*
X167670000Y115570000D03*
X167670000Y118110000D03*
X167670000Y120650000D03*
X167670000Y123190000D03*
X170210000Y113030000D03*
X170210000Y115570000D03*
X170210000Y118110000D03*
X170210000Y120650000D03*
X170210000Y123190000D03*
X172750000Y113030000D03*
X172750000Y115570000D03*
X172750000Y118110000D03*
X172750000Y120650000D03*
X172750000Y123190000D03*
G04 #@! TD*
G04 #@! TO.C,P48*
X76000000Y125500000D03*
G04 #@! TD*
G04 #@! TO.C,P62*
X47900000Y130000000D03*
G04 #@! TD*
G04 #@! TO.C,R3*
G36*
G01*
X2590000Y113075000D02*
X1810000Y113075000D01*
G75*
G02*
X1740000Y113145000I0J70000D01*
G01*
X1740000Y113705000D01*
G75*
G02*
X1810000Y113775000I70000J0D01*
G01*
X2590000Y113775000D01*
G75*
G02*
X2660000Y113705000I0J-70000D01*
G01*
X2660000Y113145000D01*
G75*
G02*
X2590000Y113075000I-70000J0D01*
G01*
G37*
G36*
G01*
X2590000Y114675000D02*
X1810000Y114675000D01*
G75*
G02*
X1740000Y114745000I0J70000D01*
G01*
X1740000Y115305000D01*
G75*
G02*
X1810000Y115375000I70000J0D01*
G01*
X2590000Y115375000D01*
G75*
G02*
X2660000Y115305000I0J-70000D01*
G01*
X2660000Y114745000D01*
G75*
G02*
X2590000Y114675000I-70000J0D01*
G01*
G37*
G04 #@! TD*
D31*
G04 #@! TO.C,J1*
X19000000Y128000000D03*
G04 #@! TD*
D11*
G04 #@! TO.C,Q4*
X5425000Y61765000D03*
D12*
X14575000Y59225000D03*
D11*
X5425000Y56685000D03*
G04 #@! TD*
D13*
G04 #@! TO.C,P21*
X131500000Y130000000D03*
G04 #@! TD*
G04 #@! TO.C,P70*
X123200000Y74500000D03*
G04 #@! TD*
G04 #@! TO.C,P14*
X116500000Y125500000D03*
G04 #@! TD*
G04 #@! TO.C,P64*
X123500000Y57800000D03*
G04 #@! TD*
G04 #@! TO.C,P73*
X98200000Y32500000D03*
G04 #@! TD*
G04 #@! TO.C,P5*
X131500000Y118000000D03*
G04 #@! TD*
G04 #@! TO.C,P79*
X59212000Y80264000D03*
G04 #@! TD*
G04 #@! TO.C,P35*
X83000000Y130000000D03*
G04 #@! TD*
G04 #@! TO.C,R10*
G36*
G01*
X3625000Y97800000D02*
X3625000Y100650000D01*
G75*
G02*
X3875000Y100900000I250000J0D01*
G01*
X4600000Y100900000D01*
G75*
G02*
X4850000Y100650000I0J-250000D01*
G01*
X4850000Y97800000D01*
G75*
G02*
X4600000Y97550000I-250000J0D01*
G01*
X3875000Y97550000D01*
G75*
G02*
X3625000Y97800000I0J250000D01*
G01*
G37*
G36*
G01*
X9550000Y97800000D02*
X9550000Y100650000D01*
G75*
G02*
X9800000Y100900000I250000J0D01*
G01*
X10525000Y100900000D01*
G75*
G02*
X10775000Y100650000I0J-250000D01*
G01*
X10775000Y97800000D01*
G75*
G02*
X10525000Y97550000I-250000J0D01*
G01*
X9800000Y97550000D01*
G75*
G02*
X9550000Y97800000I0J250000D01*
G01*
G37*
G04 #@! TD*
G04 #@! TO.C,P37*
X73000000Y121000000D03*
G04 #@! TD*
G04 #@! TO.C,P27*
X83000000Y125500000D03*
G04 #@! TD*
D25*
G04 #@! TO.C,F2*
X64000000Y131450000D03*
G36*
G01*
X63100000Y130105010D02*
X63100000Y130795010D01*
G75*
G02*
X63330000Y131025010I230000J0D01*
G01*
X64670000Y131025010D01*
G75*
G02*
X64900000Y130795010I0J-230000D01*
G01*
X64900000Y130105010D01*
G75*
G02*
X64670000Y129875010I-230000J0D01*
G01*
X63330000Y129875010D01*
G75*
G02*
X63100000Y130105010I0J230000D01*
G01*
G37*
G36*
G01*
X63100000Y127204990D02*
X63100000Y127894990D01*
G75*
G02*
X63330000Y128124990I230000J0D01*
G01*
X64670000Y128124990D01*
G75*
G02*
X64900000Y127894990I0J-230000D01*
G01*
X64900000Y127204990D01*
G75*
G02*
X64670000Y126974990I-230000J0D01*
G01*
X63330000Y126974990D01*
G75*
G02*
X63100000Y127204990I0J230000D01*
G01*
G37*
X64000000Y126550000D03*
G04 #@! TD*
D13*
G04 #@! TO.C,G6*
X175290000Y92710000D03*
X172750000Y92710000D03*
X170210000Y92710000D03*
X167670000Y92710000D03*
X165130000Y92710000D03*
X175290000Y95250000D03*
X172750000Y95250000D03*
X170210000Y95250000D03*
X167670000Y95250000D03*
X165130000Y95250000D03*
X175290000Y97790000D03*
X172750000Y97790000D03*
X170210000Y97790000D03*
X167670000Y97790000D03*
X165130000Y97790000D03*
G04 #@! TD*
G04 #@! TO.C,P36*
X76000000Y118000000D03*
G04 #@! TD*
G04 #@! TO.C,P44*
X64000000Y113500000D03*
G04 #@! TD*
G04 #@! TO.C,P66*
X123500000Y53300000D03*
G04 #@! TD*
D11*
G04 #@! TO.C,Q5*
X5425000Y45765000D03*
D12*
X14575000Y43225000D03*
D11*
X5425000Y40685000D03*
G04 #@! TD*
D13*
G04 #@! TO.C,P51*
X61000000Y118000000D03*
G04 #@! TD*
G04 #@! TO.C,C3*
G36*
G01*
X73760000Y27015001D02*
X74440000Y27015001D01*
G75*
G02*
X74525000Y26930001I0J-85000D01*
G01*
X74525000Y26250001D01*
G75*
G02*
X74440000Y26165001I-85000J0D01*
G01*
X73760000Y26165001D01*
G75*
G02*
X73675000Y26250001I0J85000D01*
G01*
X73675000Y26930001D01*
G75*
G02*
X73760000Y27015001I85000J0D01*
G01*
G37*
G36*
G01*
X73760000Y25434999D02*
X74440000Y25434999D01*
G75*
G02*
X74525000Y25349999I0J-85000D01*
G01*
X74525000Y24669999D01*
G75*
G02*
X74440000Y24584999I-85000J0D01*
G01*
X73760000Y24584999D01*
G75*
G02*
X73675000Y24669999I0J85000D01*
G01*
X73675000Y25349999D01*
G75*
G02*
X73760000Y25434999I85000J0D01*
G01*
G37*
G04 #@! TD*
D17*
G04 #@! TO.C,F8*
X36000000Y124040000D03*
X36000000Y118960000D03*
G04 #@! TD*
G04 #@! TO.C,F5*
X51000000Y124040000D03*
X51000000Y118960000D03*
G04 #@! TD*
D13*
G04 #@! TO.C,P49*
X73000000Y125500000D03*
G04 #@! TD*
G04 #@! TO.C,P29*
X113000000Y122000000D03*
G04 #@! TD*
G04 #@! TO.C,P57*
X70000000Y130000000D03*
G04 #@! TD*
D24*
G04 #@! TO.C,U1*
X37826000Y22095000D03*
D32*
X41382000Y20195000D03*
X41382000Y22735000D03*
D24*
X37826000Y23365000D03*
D32*
X41382000Y25275000D03*
D24*
X37826000Y24635000D03*
D32*
X41382000Y27815000D03*
D24*
X37826000Y25905000D03*
X27983500Y25905000D03*
D32*
X24618000Y27815000D03*
X24618000Y25275000D03*
D24*
X27983500Y24635000D03*
D32*
X24618000Y22735000D03*
D24*
X27983500Y23365000D03*
X27983500Y22095000D03*
D32*
X24618000Y20195000D03*
G04 #@! TD*
D13*
G04 #@! TO.C,P33*
X105500000Y130000000D03*
G04 #@! TD*
G04 #@! TO.C,R6*
G36*
G01*
X73910000Y32550000D02*
X74690000Y32550000D01*
G75*
G02*
X74760000Y32480000I0J-70000D01*
G01*
X74760000Y31920000D01*
G75*
G02*
X74690000Y31850000I-70000J0D01*
G01*
X73910000Y31850000D01*
G75*
G02*
X73840000Y31920000I0J70000D01*
G01*
X73840000Y32480000D01*
G75*
G02*
X73910000Y32550000I70000J0D01*
G01*
G37*
G36*
G01*
X73910000Y30950000D02*
X74690000Y30950000D01*
G75*
G02*
X74760000Y30880000I0J-70000D01*
G01*
X74760000Y30320000D01*
G75*
G02*
X74690000Y30250000I-70000J0D01*
G01*
X73910000Y30250000D01*
G75*
G02*
X73840000Y30320000I0J70000D01*
G01*
X73840000Y30880000D01*
G75*
G02*
X73910000Y30950000I70000J0D01*
G01*
G37*
G04 #@! TD*
G04 #@! TO.C,P81*
X59200000Y77200000D03*
G04 #@! TD*
G04 #@! TO.C,R7*
G36*
G01*
X2590000Y65075000D02*
X1810000Y65075000D01*
G75*
G02*
X1740000Y65145000I0J70000D01*
G01*
X1740000Y65705000D01*
G75*
G02*
X1810000Y65775000I70000J0D01*
G01*
X2590000Y65775000D01*
G75*
G02*
X2660000Y65705000I0J-70000D01*
G01*
X2660000Y65145000D01*
G75*
G02*
X2590000Y65075000I-70000J0D01*
G01*
G37*
G36*
G01*
X2590000Y66675000D02*
X1810000Y66675000D01*
G75*
G02*
X1740000Y66745000I0J70000D01*
G01*
X1740000Y67305000D01*
G75*
G02*
X1810000Y67375000I70000J0D01*
G01*
X2590000Y67375000D01*
G75*
G02*
X2660000Y67305000I0J-70000D01*
G01*
X2660000Y66745000D01*
G75*
G02*
X2590000Y66675000I-70000J0D01*
G01*
G37*
G04 #@! TD*
G04 #@! TO.C,G7*
X160050000Y113030000D03*
X160050000Y115570000D03*
X160050000Y118110000D03*
X160050000Y120650000D03*
X160050000Y123190000D03*
X162590000Y113030000D03*
X162590000Y115570000D03*
X162590000Y118110000D03*
X162590000Y120650000D03*
X162590000Y123190000D03*
X165130000Y113030000D03*
X165130000Y115570000D03*
X165130000Y118110000D03*
X165130000Y120650000D03*
X165130000Y123190000D03*
G04 #@! TD*
G04 #@! TO.C,P26*
X86000000Y125500000D03*
G04 #@! TD*
G04 #@! TO.C,P3*
X147000000Y130000000D03*
G04 #@! TD*
G04 #@! TO.C,R8*
G36*
G01*
X2590000Y49075000D02*
X1810000Y49075000D01*
G75*
G02*
X1740000Y49145000I0J70000D01*
G01*
X1740000Y49705000D01*
G75*
G02*
X1810000Y49775000I70000J0D01*
G01*
X2590000Y49775000D01*
G75*
G02*
X2660000Y49705000I0J-70000D01*
G01*
X2660000Y49145000D01*
G75*
G02*
X2590000Y49075000I-70000J0D01*
G01*
G37*
G36*
G01*
X2590000Y50675000D02*
X1810000Y50675000D01*
G75*
G02*
X1740000Y50745000I0J70000D01*
G01*
X1740000Y51305000D01*
G75*
G02*
X1810000Y51375000I70000J0D01*
G01*
X2590000Y51375000D01*
G75*
G02*
X2660000Y51305000I0J-70000D01*
G01*
X2660000Y50745000D01*
G75*
G02*
X2590000Y50675000I-70000J0D01*
G01*
G37*
G04 #@! TD*
D33*
G04 #@! TO.C,BRD1*
X116450001Y58775000D03*
X30450001Y108175000D03*
X152050001Y108175000D03*
X66050001Y58775000D03*
X133950001Y43275000D03*
X30450001Y44775000D03*
X48550001Y109675000D03*
X114950001Y40675000D03*
X152050001Y44775000D03*
X48550001Y43275000D03*
X67550001Y40675000D03*
X133950001Y109675000D03*
D34*
X145250001Y54475000D03*
X145250001Y58475000D03*
X145250001Y62475000D03*
X145250001Y66475000D03*
X145250001Y70475000D03*
X145250001Y74475000D03*
X145250001Y78475000D03*
X145250001Y82475000D03*
X145250001Y86475000D03*
X145250001Y90475000D03*
X145250001Y94475000D03*
X145250001Y98475000D03*
X141250001Y56475000D03*
X141250001Y60475000D03*
X141250001Y64475000D03*
X141250001Y68475000D03*
X141250001Y72475000D03*
X141250001Y76475000D03*
X141250001Y80475000D03*
X141250001Y84475000D03*
X141250001Y88475000D03*
X141250001Y92475000D03*
X141250001Y96475000D03*
X137250001Y54475000D03*
X137250001Y58475000D03*
X137250001Y62475000D03*
X137250001Y66475000D03*
X137250001Y70475000D03*
X137250001Y74475000D03*
X137250001Y78475000D03*
X137250001Y82475000D03*
X137250001Y86475000D03*
X137250001Y90475000D03*
X137250001Y94475000D03*
X137250001Y98475000D03*
X77250001Y47475000D03*
X81250001Y47475000D03*
X85250001Y47475000D03*
X89250001Y47475000D03*
X93250001Y47475000D03*
X97250001Y47475000D03*
X101250001Y47475000D03*
X105250001Y47475000D03*
X79250001Y51475000D03*
X83250001Y51475000D03*
X87250001Y51475000D03*
X91250001Y51475000D03*
X95250001Y51475000D03*
X99250001Y51475000D03*
X103250001Y51475000D03*
X77250001Y55475000D03*
X81250001Y55475000D03*
X85250001Y55475000D03*
X89250001Y55475000D03*
X93250001Y55475000D03*
X97250001Y55475000D03*
X101250001Y55475000D03*
X105250001Y55475000D03*
X37250001Y98475000D03*
X37250001Y94475000D03*
X37250001Y90475000D03*
X37250001Y86475000D03*
X37250001Y82475000D03*
X37250001Y78475000D03*
X37250001Y74475000D03*
X37250001Y70475000D03*
X37250001Y66475000D03*
X37250001Y62475000D03*
X37250001Y58475000D03*
X37250001Y54475000D03*
X41250001Y96475000D03*
X41250001Y92475000D03*
X41250001Y88475000D03*
X41250001Y84475000D03*
X41250001Y80475000D03*
X41250001Y76475000D03*
X41250001Y72475000D03*
X41250001Y68475000D03*
X41250001Y64475000D03*
X41250001Y60475000D03*
X41250001Y56475000D03*
X45250001Y98475000D03*
X45250001Y94475000D03*
X45250001Y90475000D03*
X45250001Y86475000D03*
X45250001Y82475000D03*
X45250001Y78475000D03*
X45250001Y74475000D03*
X45250001Y70475000D03*
X45250001Y66475000D03*
X45250001Y62475000D03*
X45250001Y58475000D03*
X45250001Y54475000D03*
G04 #@! TD*
D13*
G04 #@! TO.C,P75*
X92232000Y32512000D03*
G04 #@! TD*
G04 #@! TO.C,J10*
G36*
G01*
X79300000Y17625000D02*
X79300000Y19075000D01*
G75*
G02*
X79550000Y19325000I250000J0D01*
G01*
X80750000Y19325000D01*
G75*
G02*
X81000000Y19075000I0J-250000D01*
G01*
X81000000Y17625000D01*
G75*
G02*
X80750000Y17375000I-250000J0D01*
G01*
X79550000Y17375000D01*
G75*
G02*
X79300000Y17625000I0J250000D01*
G01*
G37*
D35*
X82650000Y18350000D03*
X85150000Y18350000D03*
X87650000Y18350000D03*
X90150000Y18350000D03*
X92650000Y18350000D03*
X95150000Y18350000D03*
X97650000Y18350000D03*
X100150000Y18350000D03*
X102650000Y18350000D03*
G04 #@! TD*
D14*
G04 #@! TO.C,J4*
X155000000Y6500000D03*
G04 #@! TD*
D17*
G04 #@! TO.C,F4*
X26000000Y124040000D03*
X26000000Y118960000D03*
G04 #@! TD*
G04 #@! TO.C,R9*
G36*
G01*
X2590000Y81075000D02*
X1810000Y81075000D01*
G75*
G02*
X1740000Y81145000I0J70000D01*
G01*
X1740000Y81705000D01*
G75*
G02*
X1810000Y81775000I70000J0D01*
G01*
X2590000Y81775000D01*
G75*
G02*
X2660000Y81705000I0J-70000D01*
G01*
X2660000Y81145000D01*
G75*
G02*
X2590000Y81075000I-70000J0D01*
G01*
G37*
G36*
G01*
X2590000Y82675000D02*
X1810000Y82675000D01*
G75*
G02*
X1740000Y82745000I0J70000D01*
G01*
X1740000Y83305000D01*
G75*
G02*
X1810000Y83375000I70000J0D01*
G01*
X2590000Y83375000D01*
G75*
G02*
X2660000Y83305000I0J-70000D01*
G01*
X2660000Y82745000D01*
G75*
G02*
X2590000Y82675000I-70000J0D01*
G01*
G37*
G04 #@! TD*
D13*
G04 #@! TO.C,P12*
X122500000Y125500000D03*
G04 #@! TD*
G04 #@! TO.C,P18*
X122500000Y130000000D03*
G04 #@! TD*
D10*
G04 #@! TO.C,D4*
X89500000Y126500000D03*
X89500000Y130500000D03*
G04 #@! TD*
D13*
G04 #@! TO.C,P43*
X64000000Y122500000D03*
G04 #@! TD*
G04 #@! TO.C,P69*
X123220000Y77376000D03*
G04 #@! TD*
G04 #@! TO.C,P10*
X128500000Y125500000D03*
G04 #@! TD*
G04 #@! TO.C,P32*
X79500000Y121000000D03*
G04 #@! TD*
G04 #@! TO.C,P42*
X67000000Y121000000D03*
G04 #@! TD*
G04 #@! TO.C,R15*
G36*
G01*
X3625000Y81800000D02*
X3625000Y84650000D01*
G75*
G02*
X3875000Y84900000I250000J0D01*
G01*
X4600000Y84900000D01*
G75*
G02*
X4850000Y84650000I0J-250000D01*
G01*
X4850000Y81800000D01*
G75*
G02*
X4600000Y81550000I-250000J0D01*
G01*
X3875000Y81550000D01*
G75*
G02*
X3625000Y81800000I0J250000D01*
G01*
G37*
G36*
G01*
X9550000Y81800000D02*
X9550000Y84650000D01*
G75*
G02*
X9800000Y84900000I250000J0D01*
G01*
X10525000Y84900000D01*
G75*
G02*
X10775000Y84650000I0J-250000D01*
G01*
X10775000Y81800000D01*
G75*
G02*
X10525000Y81550000I-250000J0D01*
G01*
X9800000Y81550000D01*
G75*
G02*
X9550000Y81800000I0J250000D01*
G01*
G37*
G04 #@! TD*
G04 #@! TO.C,P40*
X64000000Y118000000D03*
G04 #@! TD*
G04 #@! TO.C,P9*
X131500000Y121000000D03*
G04 #@! TD*
G04 #@! TO.C,P19*
X119500000Y130000000D03*
G04 #@! TD*
G04 #@! TO.C,P25*
X93000000Y130000000D03*
G04 #@! TD*
M02*
