M48
; DRILL file {KiCad (5.99.0-13086-gffd1139cfe)} date Sun Nov 14 02:18:32 2021
; FORMAT={2:4/ absolute / inch / suppress leading zeros}
; #@! TF.CreationDate,2021-11-14T02:18:32+03:00
; #@! TF.GenerationSoftware,Kicad,Pcbnew,(5.99.0-13086-gffd1139cfe)
; #@! TF.FileFunction,MixedPlating,1,4
FMAT,2
INCH,TZ
; #@! TA.AperFunction,Plated,PTH,ComponentDrill
T1C0.0118
; #@! TA.AperFunction,Plated,PTH,ViaDrill
T2C0.0118
; #@! TA.AperFunction,Plated,PTH,ComponentDrill
T3C0.0118
; #@! TA.AperFunction,Plated,PTH,ComponentDrill
T4C0.0320
; #@! TA.AperFunction,Plated,PTH,ComponentDrill
T5C0.0374
; #@! TA.AperFunction,Plated,PTH,ComponentDrill
T6C0.0394
; #@! TA.AperFunction,Plated,PTH,ComponentDrill
T7C0.0433
; #@! TA.AperFunction,Plated,PTH,ComponentDrill
T8C0.0492
; #@! TA.AperFunction,Plated,PTH,ComponentDrill
T9C0.0650
; #@! TA.AperFunction,Plated,PTH,ComponentDrill
T10C0.0689
; #@! TA.AperFunction,Plated,PTH,ComponentDrill
T11C0.0925
; #@! TA.AperFunction,Plated,PTH,ComponentDrill
T12C0.1200
; #@! TA.AperFunction,Plated,PTH,ComponentDrill
T13C0.1516
; #@! TA.AperFunction,NonPlated,NPTH,ComponentDrill
T14C0.0787
; #@! TA.AperFunction,NonPlated,NPTH,ComponentDrill
T15C0.1378
; #@! TA.AperFunction,NonPlated,NPTH,ComponentDrill
T16C0.1772
; #@! TA.AperFunction,NonPlated,NPTH,ComponentDrill
T17C0.2165
%
G90
G05
T1
X59838Y8725
X61236Y8755
X61531Y8292
X61738Y8637
T2
X394Y28583
X512Y4724
X551Y50748
X663Y22306
X709Y41220
X709Y34921
X709Y15984
X906Y9685
X1220Y45276
X1220Y38976
X1220Y13819
X1240Y32677
X1260Y26378
X1260Y20079
X2126Y41693
X2126Y40709
X2126Y35394
X2126Y29134
X2126Y28110
X2126Y22835
X2126Y21850
X2126Y16496
X2126Y15551
X2126Y10276
X2126Y9173
X2402Y34252
X3228Y35433
X4291Y4921
X4662Y48142
X6220Y45315
X6260Y51890
X7087Y3031
X7644Y5271
X7835Y53150
X8465Y8189
X8780Y57598
X8898Y47835
X9685Y13465
X10433Y16417
X10669Y41457
X12087Y22913
X12402Y472
X12598Y29921
X13189Y5394
X13767Y61995
X14094Y44803
X14173Y9055
X14252Y9646
X16260Y3465
X16535Y14252
X16614Y19173
X16693Y11654
X17087Y9882
X17480Y6063
X17913Y41417
X18268Y10157
X18277Y62149
X18701Y472
X19016Y11260
X19528Y10512
X19685Y13307
X19882Y27008
X19921Y30906
X20000Y32874
X20079Y35512
X20079Y33583
X20079Y31929
X20118Y28425
X20157Y29646
X20157Y25236
X20197Y38386
X20945Y39528
X20945Y16535
X21220Y26378
X21614Y21890
X21776Y46407
X21969Y44094
X22362Y37244
X22874Y38425
X22953Y40000
X23268Y41181
X23442Y62149
X23543Y39961
X23661Y35669
X24016Y42677
X24055Y45079
X24134Y40591
X24213Y41457
X24213Y20315
X24331Y5512
X24567Y39744
X24567Y24803
X24724Y30984
X24803Y38465
X24843Y33740
X24952Y28074
X24961Y43307
X25079Y40669
X25116Y41627
X25394Y9685
X25433Y14528
X25709Y24331
X26024Y40472
X26220Y31929
X26260Y25748
X26378Y27835
X26417Y45000
X26470Y41713
X26496Y43071
X26496Y40787
X26535Y9409
X26732Y62126
X27126Y40217
X27172Y38458
X27362Y35551
X27474Y17165
X27520Y44094
X27559Y42402
X27559Y41614
X27559Y472
X27600Y40839
X27677Y46575
X27677Y33740
X27717Y22598
X27874Y31654
X27992Y34843
X27992Y2835
X28680Y40839
X28780Y45354
X28780Y38425
X28780Y28819
X28819Y43228
X28819Y41575
X28858Y35555
X29252Y11693
X29331Y20354
X29606Y10469
X29606Y9843
X29724Y25394
X29882Y16693
X30157Y11654
X30197Y30669
X30197Y28307
X30197Y27992
X30197Y27697
X30433Y41378
X30512Y5315
X30709Y29331
X30768Y31024
X30984Y40906
X31181Y42795
X31220Y41142
X31417Y40669
X31516Y52126
X31521Y15469
X31736Y31729
X31772Y35945
X31772Y29370
X31811Y33937
X31960Y62111
X32008Y41162
X32283Y38504
X32362Y40453
X32795Y41693
X32795Y40453
X32913Y45669
X33031Y38465
X33189Y17087
X33346Y45000
X33370Y29376
X33386Y32579
X33543Y24311
X33622Y25551
X33661Y38425
X33701Y44685
X33740Y33858
X33780Y41693
X33780Y31575
X33898Y34803
X34094Y40237
X34135Y47303
X34135Y46654
X34291Y36496
X34331Y52756
X34409Y15118
X34567Y24311
X34568Y48429
X34961Y52047
X34961Y35974
X34961Y33976
X35236Y33042
X35315Y53031
X35354Y25433
X35551Y44567
X35591Y46142
X35591Y38465
X35591Y512
X35618Y41695
X35689Y47165
X36024Y36939
X36628Y44608
X36772Y41693
X36811Y38425
X36969Y33976
X37047Y25394
X37087Y62111
X37244Y40689
X37321Y31855
X37638Y39488
X37638Y28622
X37953Y40237
X38189Y39124
X38346Y41693
X38386Y44646
X38425Y38504
X38661Y15197
X38780Y35601
X38819Y52205
X38863Y29205
X39016Y34016
X39016Y25669
X39016Y17244
X39046Y31740
X39213Y38465
X39370Y40591
X39370Y40236
X39882Y23878
X40157Y15000
X41457Y25512
X41535Y41693
X41535Y40354
X41545Y38526
X41575Y31535
X41575Y28858
X41614Y44567
X41654Y2835
X42008Y24075
X42205Y5433
X42244Y7677
X42244Y7283
X42244Y6890
X42244Y6299
X42323Y40945
X42402Y11181
X42441Y33976
X42677Y24764
X42756Y23898
X42819Y52102
X42874Y11654
X42913Y39832
X43100Y61841
X43228Y33346
X43307Y52598
X43386Y5157
X43425Y31693
X43583Y40206
X43614Y29193
X43780Y33189
X43819Y51457
X44252Y11575
X44291Y46535
X44291Y33898
X44370Y44528
X44370Y38780
X44409Y41693
X44457Y40942
X45000Y27244
X45175Y19466
X45354Y591
X45630Y38543
X45669Y41693
X45709Y46693
X45748Y44449
X45748Y5157
X45906Y33465
X46069Y29536
X46161Y31638
X46254Y20263
X46339Y11614
X46457Y34803
X46772Y15000
X46969Y41732
X47008Y46732
X47126Y44449
X47441Y41162
X47874Y46772
X48031Y44528
X48071Y40984
X48110Y41732
X48110Y38425
X48346Y5197
X48583Y41417
X48661Y33465
X49016Y11614
X49449Y48031
X49854Y41130
X50276Y20394
X50693Y43751
X50709Y46181
X51001Y61880
X51181Y30709
X51181Y5157
X51486Y32915
X51811Y11535
X51892Y41233
X52205Y2402
X52677Y29843
X53150Y47913
X53937Y11438
X53937Y5157
X54959Y43871
X55945Y512
X56220Y21181
X56260Y17165
X56299Y44016
X56417Y5157
X57087Y48622
X57323Y52323
X57362Y11438
X57520Y41299
X57953Y23976
X58110Y27913
X58209Y11102
X58346Y6496
X58386Y8268
X58386Y7756
X58465Y61693
X59016Y5197
X59094Y6457
X59134Y12992
X59134Y9528
X59764Y52047
X60276Y34685
X60315Y10433
X60354Y19449
X60394Y28976
X60630Y25118
X60695Y40024
X61457Y5433
X61535Y49882
X62520Y56260
X62559Y512
X62598Y6457
X62677Y9409
X64370Y52441
X64921Y9961
X65433Y3543
X66142Y17520
X66654Y25039
X67260Y49337
X67913Y13031
X70787Y50157
X71260Y4724
X71299Y26142
X71378Y16457
X71392Y35900
T3
X42843Y10699
X42843Y10305
X42843Y9911
X42843Y9518
X57902Y9085
X57902Y8691
X57902Y7293
X57902Y6900
T4
X21476Y12642
X22476Y12642
X23476Y12642
X24016Y51341
X24016Y49841
X24476Y12642
X25197Y51752
X25197Y49823
X25476Y12642
X26476Y12642
X55315Y51555
X55315Y49626
T5
X31555Y7224
X32539Y7224
X33524Y7224
X34508Y7224
X35492Y7224
X36476Y7224
X37461Y7224
X38445Y7224
X39429Y7224
X40413Y7224
T6
X16142Y51181
X18858Y51181
X21654Y51181
X21654Y49409
X21654Y47638
X22835Y51181
X22835Y49409
X22835Y47638
X23268Y24606
X23307Y30394
X23312Y34000
X23312Y32800
X23312Y31600
X23312Y27800
X24016Y48228
X24016Y46457
X25197Y48228
X25197Y46457
X25197Y44685
X26378Y51181
X26378Y49409
X26378Y47638
X26378Y46457
X27559Y51181
X27559Y49409
X27559Y47638
X28740Y51181
X28740Y49409
X28740Y47638
X29921Y51181
X29921Y49409
X29921Y47638
X29921Y46457
X31299Y47638
X31299Y46457
X31299Y44094
X32677Y51181
X32677Y49409
X33858Y51181
X33858Y49409
X35112Y12800
X36312Y12800
X36614Y51181
X37512Y12800
X38661Y12795
X38976Y48031
X40312Y12800
X41512Y12800
X41535Y51181
X41535Y49409
X41535Y47638
X41535Y46457
X44488Y48031
X45866Y51181
X45866Y49409
X45866Y47638
X47047Y51181
X47047Y49409
X47047Y47638
X48228Y51181
X48228Y49409
X48504Y29331
X48504Y28031
X48512Y31663
X48512Y30463
X48622Y26260
X48622Y24528
X48622Y22756
X48622Y20984
X48622Y19252
X49409Y51181
X49409Y49409
X50591Y51181
X50591Y49409
X50591Y47638
X51772Y51181
X51772Y49409
X51772Y47638
X51772Y46457
X52343Y12500
X53343Y12500
X53740Y51181
X53740Y49409
X54343Y12500
X55343Y12500
X56343Y12500
X56693Y51181
X57343Y12500
X57874Y51181
X63012Y48500
X63012Y47500
X63012Y46500
X63012Y45500
X63012Y44500
X63012Y43500
X63012Y42500
X63012Y41500
X63012Y40500
X63012Y39500
X64012Y48500
X64012Y47500
X64012Y46500
X64012Y45500
X64012Y44500
X64012Y43500
X64012Y42500
X64012Y41500
X64012Y40500
X64012Y39500
X65012Y48500
X65012Y47500
X65012Y46500
X65012Y45500
X65012Y44500
X65012Y43500
X65012Y42500
X65012Y41500
X65012Y40500
X65012Y39500
X65012Y38500
X65012Y37500
X65012Y36500
X66012Y48500
X66012Y47500
X66012Y46500
X66012Y45500
X66012Y44500
X66012Y43500
X66012Y42500
X66012Y41500
X66012Y40500
X66012Y39500
X66012Y38500
X66012Y37500
X66012Y36500
X67012Y48500
X67012Y47500
X67012Y46500
X67012Y45500
X67012Y44500
X67012Y43500
X67012Y42500
X67012Y41500
X67012Y40500
X67012Y39500
X67012Y38500
X67012Y37500
X67012Y36500
X68012Y48500
X68012Y47500
X68012Y46500
X68012Y45500
X68012Y44500
X68012Y43500
X68012Y42500
X68012Y41500
X68012Y40500
X68012Y39500
X68012Y38500
X68012Y37500
X68012Y36500
X69012Y48500
X69012Y47500
X69012Y46500
X69012Y45500
X69012Y44500
X69012Y43500
X69012Y42500
X69012Y41500
X69012Y40500
X69012Y39500
X69012Y38500
X69012Y37500
X69012Y36500
X70012Y48500
X70012Y47500
X70012Y46500
X70012Y45500
X70012Y44500
X70012Y43500
X70012Y42500
X70012Y41500
X70012Y40500
X70012Y39500
X71012Y48500
X71012Y47500
X71012Y46500
X71012Y45500
X71012Y44500
X71012Y43500
X71012Y42500
X71012Y41500
X71012Y40500
X71012Y39500
T7
X10236Y48835
X10236Y46835
X12205Y48835
X12205Y46835
X14173Y48835
X14173Y46835
X16142Y48835
X16142Y46835
X18110Y48835
X18110Y46835
X20079Y48835
X20079Y46835
T8
X20567Y58386
X20567Y57386
X20567Y55004
X20567Y54004
X21567Y58386
X21567Y57386
X21567Y55004
X21567Y54004
X22567Y58386
X22567Y57386
X22567Y55004
X22567Y54004
X23567Y58386
X23567Y57386
X23567Y55004
X23567Y54004
X24567Y58386
X24567Y57386
X24567Y55004
X24567Y54004
X25567Y58386
X25567Y57386
X25567Y55004
X25567Y54004
X26567Y58386
X26567Y57386
X26567Y55004
X26567Y54004
X27567Y58386
X27567Y57386
X27567Y55004
X27567Y54004
X28567Y58386
X28567Y57386
X28567Y55004
X28567Y54004
X29567Y58386
X29567Y57386
X29567Y55004
X29567Y54004
X31819Y58386
X31819Y57386
X31819Y55004
X31819Y54004
X32819Y58386
X32819Y57386
X32819Y55004
X32819Y54004
X33819Y58386
X33819Y57386
X33819Y55004
X33819Y54004
X34819Y58386
X34819Y57386
X34819Y55004
X34819Y54004
X35819Y58386
X35819Y57386
X35819Y55004
X35819Y54004
X36819Y58386
X36819Y57386
X36819Y55004
X36819Y54004
X37819Y58386
X37819Y57386
X37819Y55004
X37819Y54004
X38819Y58386
X38819Y57386
X38819Y55004
X38819Y54004
X39819Y58386
X39819Y57386
X39819Y55004
X39819Y54004
X40819Y58386
X40819Y57386
X40819Y55004
X40819Y54004
X41819Y58386
X41819Y57386
X41819Y55004
X41819Y54004
X42819Y58386
X42819Y57386
X42819Y55004
X42819Y54004
X43819Y58386
X43819Y57386
X43819Y55004
X43819Y54004
X46063Y58386
X46063Y57386
X46063Y55004
X46063Y54004
X47063Y58386
X47063Y57386
X47063Y55004
X47063Y54004
X48063Y58386
X48063Y57386
X48063Y55004
X48063Y54004
X49063Y58386
X49063Y57386
X49063Y55004
X49063Y54004
X50063Y58386
X50063Y57386
X50063Y55004
X50063Y54004
X51063Y58386
X51063Y57386
X51063Y55004
X51063Y54004
T9
X13898Y58150
X13898Y55906
X13898Y53661
X15866Y58150
X15866Y55906
X15866Y53661
X17835Y58150
X17835Y55906
X17835Y53661
X53756Y53661
X53819Y58150
X53819Y55906
X55787Y58150
X55787Y55906
X55787Y53661
X57756Y58150
X57756Y55906
X57756Y53661
T10
X14665Y38770
X14665Y37195
X14665Y35620
X14665Y34045
X14665Y32470
X14665Y30896
X14665Y29321
X14665Y27746
X14665Y26171
X14665Y24596
X14665Y23022
X14665Y21447
X16240Y37982
X16240Y36407
X16240Y34833
X16240Y33258
X16240Y31683
X16240Y30108
X16240Y28533
X16240Y26959
X16240Y25384
X16240Y23809
X16240Y22234
X17815Y38770
X17815Y37195
X17815Y35620
X17815Y34045
X17815Y32470
X17815Y30896
X17815Y29321
X17815Y27746
X17815Y26171
X17815Y24596
X17815Y23022
X17815Y21447
X30413Y21841
X30413Y18691
X31201Y20266
X31988Y21841
X31988Y18691
X32776Y20266
X33563Y21841
X33563Y18691
X34350Y20266
X35138Y21841
X35138Y18691
X35925Y20266
X36713Y21841
X36713Y18691
X37500Y20266
X38287Y21841
X38287Y18691
X39075Y20266
X39862Y21841
X39862Y18691
X40650Y20266
X41437Y21841
X41437Y18691
X54035Y38770
X54035Y37195
X54035Y35620
X54035Y34045
X54035Y32470
X54035Y30896
X54035Y29321
X54035Y27746
X54035Y26171
X54035Y24596
X54035Y23022
X54035Y21447
X55610Y37982
X55610Y36407
X55610Y34833
X55610Y33258
X55610Y31683
X55610Y30108
X55610Y28533
X55610Y26959
X55610Y25384
X55610Y23809
X55610Y22234
X57185Y38770
X57185Y37195
X57185Y35620
X57185Y34045
X57185Y32470
X57185Y30896
X57185Y29321
X57185Y27746
X57185Y26171
X57185Y24596
X57185Y23022
X57185Y21447
T11
X10079Y59016
X61575Y59016
T12
X19476Y7642
X28476Y7642
T13
X10886Y60945
X60768Y60945
T14
X11988Y42589
X11988Y17628
X19114Y43179
X19114Y17037
X26004Y23140
X26594Y16014
X45256Y16014
X45846Y23140
X52736Y43179
X52736Y17037
X59862Y42589
X59862Y17628
T15
X7480Y50394
X64173Y50394
T16
X35827Y29528
T17
X10630Y2559
X61024Y2559
T0
M30
