G04 #@! TF.GenerationSoftware,KiCad,Pcbnew,(5.99.0-13086-gffd1139cfe)*
G04 #@! TF.CreationDate,2021-11-14T02:18:31+03:00*
G04 #@! TF.ProjectId,proteusM54,70726f74-6575-4734-9d35-342e6b696361,a*
G04 #@! TF.SameCoordinates,PX4d3f640PYcfb5d40*
G04 #@! TF.FileFunction,Profile,NP*
%FSLAX46Y46*%
G04 Gerber Fmt 4.6, Leading zero omitted, Abs format (unit mm)*
G04 Created by KiCad (PCBNEW (5.99.0-13086-gffd1139cfe)) date 2021-11-14 02:18:31*
%MOMM*%
%LPD*%
G01*
G04 APERTURE LIST*
G04 #@! TA.AperFunction,Profile*
%ADD10C,0.200000*%
G04 #@! TD*
G04 APERTURE END LIST*
D10*
X14000000Y10000000D02*
G75*
G03*
X13000000Y11000000I-999999J1D01*
G01*
X0Y12000000D02*
G75*
G03*
X1000000Y11000000I999999J-1D01*
G01*
X23000000Y153000000D02*
X23000000Y157000000D01*
X16051317Y133846051D02*
G75*
G03*
X21000000Y141000000I-2716347J7167589D01*
G01*
X169000000Y11000000D02*
G75*
G03*
X168000000Y10000000I-1J-999999D01*
G01*
X168000000Y131000000D02*
G75*
G03*
X169000000Y130000000I999999J-1D01*
G01*
X24300000Y158500000D02*
G75*
G03*
X23000000Y157000000I215384J-1499999D01*
G01*
X1000000Y130000000D02*
G75*
G03*
X0Y129000000I-1J-999999D01*
G01*
X159000000Y153000000D02*
X159000000Y157000000D01*
X21503849Y2000000D02*
G75*
G03*
X24000000Y0I2496151J557692D01*
G01*
X13000000Y11000000D02*
X1000000Y11000000D01*
X22000000Y152000000D02*
G75*
G03*
X21000000Y151000000I-1J-999999D01*
G01*
X157700000Y158500000D02*
X148000000Y160000000D01*
X158000000Y0D02*
G75*
G03*
X160496151Y2000000I0J2557692D01*
G01*
X181000000Y11000000D02*
X169000000Y11000000D01*
X24300000Y158500000D02*
X34000000Y160000000D01*
X161000000Y141000000D02*
G75*
G03*
X165948683Y133846051I7665030J13640D01*
G01*
X22000000Y152000000D02*
G75*
G03*
X23000000Y153000000I1J999999D01*
G01*
X13000000Y130000000D02*
X1000000Y130000000D01*
X181000000Y11000000D02*
G75*
G03*
X182000000Y12000000I1J999999D01*
G01*
X182000000Y12000000D02*
X182000000Y129000000D01*
X21000000Y141000000D02*
X21000000Y151000000D01*
X166000000Y7503848D02*
G75*
G03*
X160496152Y2000000I1999998J-7503846D01*
G01*
X0Y129000000D02*
X0Y12000000D01*
X16051317Y133846050D02*
G75*
G03*
X14000000Y131000000I948685J-2846051D01*
G01*
X166000000Y7503849D02*
G75*
G03*
X168000000Y10000000I-557694J2496152D01*
G01*
X148000000Y160000000D02*
X34000000Y160000000D01*
X159000000Y157000000D02*
G75*
G03*
X157700000Y158500000I-1515384J1D01*
G01*
X168000000Y131000000D02*
G75*
G03*
X165948683Y133846050I-3000002J-1D01*
G01*
X161000000Y151000000D02*
G75*
G03*
X160000000Y152000000I-999999J1D01*
G01*
X13999999Y10000000D02*
G75*
G03*
X16000000Y7503848I2557695J1D01*
G01*
X159000000Y153000000D02*
G75*
G03*
X160000000Y152000000I999999J-1D01*
G01*
X21503848Y2000000D02*
G75*
G03*
X16000000Y7503848I-7503846J-1999998D01*
G01*
X161000000Y141000000D02*
X161000000Y151000000D01*
X181000000Y130000000D02*
X169000000Y130000000D01*
X182000000Y129000000D02*
G75*
G03*
X181000000Y130000000I-999999J1D01*
G01*
X24000000Y0D02*
X158000000Y0D01*
X13000000Y130000000D02*
G75*
G03*
X14000000Y131000000I1J999999D01*
G01*
M02*
