G04 #@! TF.GenerationSoftware,KiCad,Pcbnew,(5.99.0-13086-gffd1139cfe)*
G04 #@! TF.CreationDate,2021-11-14T02:18:31+03:00*
G04 #@! TF.ProjectId,proteusM54,70726f74-6575-4734-9d35-342e6b696361,a*
G04 #@! TF.SameCoordinates,PX4d3f640PYcfb5d40*
G04 #@! TF.FileFunction,Paste,Top*
G04 #@! TF.FilePolarity,Positive*
%FSLAX46Y46*%
G04 Gerber Fmt 4.6, Leading zero omitted, Abs format (unit mm)*
G04 Created by KiCad (PCBNEW (5.99.0-13086-gffd1139cfe)) date 2021-11-14 02:18:31*
%MOMM*%
%LPD*%
G01*
G04 APERTURE LIST*
%ADD10R,1.800000X2.500000*%
%ADD11R,4.550000X5.250000*%
%ADD12R,4.600000X1.100000*%
%ADD13R,1.350000X0.690000*%
%ADD14R,2.000000X1.500000*%
%ADD15R,2.000000X3.800000*%
%ADD16O,0.000001X0.000001*%
%ADD17R,2.540000X1.520000*%
G04 APERTURE END LIST*
D10*
G04 #@! TO.C,D2*
X109000000Y126500000D03*
X109000000Y130500000D03*
G04 #@! TD*
D11*
G04 #@! TO.C,Q1*
X17000000Y88450000D03*
X17000000Y94000000D03*
X12150000Y88450000D03*
X12150000Y94000000D03*
D12*
X5425000Y93765000D03*
X5425000Y88685000D03*
G04 #@! TD*
D11*
G04 #@! TO.C,Q3*
X17000000Y24450000D03*
X17000000Y30000000D03*
X12150000Y30000000D03*
X12150000Y24450000D03*
D12*
X5425000Y29765000D03*
X5425000Y24685000D03*
G04 #@! TD*
G04 #@! TO.C,R11*
G36*
G01*
X3625000Y113800000D02*
X3625000Y116650000D01*
G75*
G02*
X3875000Y116900000I250000J0D01*
G01*
X4600000Y116900000D01*
G75*
G02*
X4850000Y116650000I0J-250000D01*
G01*
X4850000Y113800000D01*
G75*
G02*
X4600000Y113550000I-250000J0D01*
G01*
X3875000Y113550000D01*
G75*
G02*
X3625000Y113800000I0J250000D01*
G01*
G37*
G36*
G01*
X9550000Y113800000D02*
X9550000Y116650000D01*
G75*
G02*
X9800000Y116900000I250000J0D01*
G01*
X10525000Y116900000D01*
G75*
G02*
X10775000Y116650000I0J-250000D01*
G01*
X10775000Y113800000D01*
G75*
G02*
X10525000Y113550000I-250000J0D01*
G01*
X9800000Y113550000D01*
G75*
G02*
X9550000Y113800000I0J250000D01*
G01*
G37*
G04 #@! TD*
G04 #@! TO.C,R16*
G36*
G01*
X87185000Y121720000D02*
X86815000Y121720000D01*
G75*
G02*
X86680000Y121855000I0J135000D01*
G01*
X86680000Y122125000D01*
G75*
G02*
X86815000Y122260000I135000J0D01*
G01*
X87185000Y122260000D01*
G75*
G02*
X87320000Y122125000I0J-135000D01*
G01*
X87320000Y121855000D01*
G75*
G02*
X87185000Y121720000I-135000J0D01*
G01*
G37*
G36*
G01*
X87185000Y122740000D02*
X86815000Y122740000D01*
G75*
G02*
X86680000Y122875000I0J135000D01*
G01*
X86680000Y123145000D01*
G75*
G02*
X86815000Y123280000I135000J0D01*
G01*
X87185000Y123280000D01*
G75*
G02*
X87320000Y123145000I0J-135000D01*
G01*
X87320000Y122875000D01*
G75*
G02*
X87185000Y122740000I-135000J0D01*
G01*
G37*
G04 #@! TD*
G04 #@! TO.C,R2*
G36*
G01*
X2590000Y97075000D02*
X1810000Y97075000D01*
G75*
G02*
X1740000Y97145000I0J70000D01*
G01*
X1740000Y97705000D01*
G75*
G02*
X1810000Y97775000I70000J0D01*
G01*
X2590000Y97775000D01*
G75*
G02*
X2660000Y97705000I0J-70000D01*
G01*
X2660000Y97145000D01*
G75*
G02*
X2590000Y97075000I-70000J0D01*
G01*
G37*
G36*
G01*
X2590000Y98675000D02*
X1810000Y98675000D01*
G75*
G02*
X1740000Y98745000I0J70000D01*
G01*
X1740000Y99305000D01*
G75*
G02*
X1810000Y99375000I70000J0D01*
G01*
X2590000Y99375000D01*
G75*
G02*
X2660000Y99305000I0J-70000D01*
G01*
X2660000Y98745000D01*
G75*
G02*
X2590000Y98675000I-70000J0D01*
G01*
G37*
G04 #@! TD*
G04 #@! TO.C,C4*
G36*
G01*
X76940000Y30184999D02*
X76260000Y30184999D01*
G75*
G02*
X76175000Y30269999I0J85000D01*
G01*
X76175000Y30949999D01*
G75*
G02*
X76260000Y31034999I85000J0D01*
G01*
X76940000Y31034999D01*
G75*
G02*
X77025000Y30949999I0J-85000D01*
G01*
X77025000Y30269999D01*
G75*
G02*
X76940000Y30184999I-85000J0D01*
G01*
G37*
G36*
G01*
X76940000Y31765001D02*
X76260000Y31765001D01*
G75*
G02*
X76175000Y31850001I0J85000D01*
G01*
X76175000Y32530001D01*
G75*
G02*
X76260000Y32615001I85000J0D01*
G01*
X76940000Y32615001D01*
G75*
G02*
X77025000Y32530001I0J-85000D01*
G01*
X77025000Y31850001D01*
G75*
G02*
X76940000Y31765001I-85000J0D01*
G01*
G37*
G04 #@! TD*
D10*
G04 #@! TO.C,D3*
X99000000Y126500000D03*
X99000000Y130500000D03*
G04 #@! TD*
G04 #@! TO.C,R13*
G36*
G01*
X3625000Y65800000D02*
X3625000Y68650000D01*
G75*
G02*
X3875000Y68900000I250000J0D01*
G01*
X4600000Y68900000D01*
G75*
G02*
X4850000Y68650000I0J-250000D01*
G01*
X4850000Y65800000D01*
G75*
G02*
X4600000Y65550000I-250000J0D01*
G01*
X3875000Y65550000D01*
G75*
G02*
X3625000Y65800000I0J250000D01*
G01*
G37*
G36*
G01*
X9550000Y65800000D02*
X9550000Y68650000D01*
G75*
G02*
X9800000Y68900000I250000J0D01*
G01*
X10525000Y68900000D01*
G75*
G02*
X10775000Y68650000I0J-250000D01*
G01*
X10775000Y65800000D01*
G75*
G02*
X10525000Y65550000I-250000J0D01*
G01*
X9800000Y65550000D01*
G75*
G02*
X9550000Y65800000I0J250000D01*
G01*
G37*
G04 #@! TD*
G04 #@! TO.C,R5*
G36*
G01*
X44312000Y27764001D02*
X45092000Y27764001D01*
G75*
G02*
X45162000Y27694001I0J-70000D01*
G01*
X45162000Y27134001D01*
G75*
G02*
X45092000Y27064001I-70000J0D01*
G01*
X44312000Y27064001D01*
G75*
G02*
X44242000Y27134001I0J70000D01*
G01*
X44242000Y27694001D01*
G75*
G02*
X44312000Y27764001I70000J0D01*
G01*
G37*
G36*
G01*
X44312000Y26164001D02*
X45092000Y26164001D01*
G75*
G02*
X45162000Y26094001I0J-70000D01*
G01*
X45162000Y25534001D01*
G75*
G02*
X45092000Y25464001I-70000J0D01*
G01*
X44312000Y25464001D01*
G75*
G02*
X44242000Y25534001I0J70000D01*
G01*
X44242000Y26094001D01*
G75*
G02*
X44312000Y26164001I70000J0D01*
G01*
G37*
G04 #@! TD*
D13*
G04 #@! TO.C,U2*
X56000000Y25100000D03*
X56000000Y23830000D03*
X56000000Y22560000D03*
X56000000Y21290000D03*
X65842500Y21290000D03*
X65842500Y25100000D03*
X65842500Y23830000D03*
X65842500Y22560000D03*
G04 #@! TD*
D14*
G04 #@! TO.C,Q7*
X89350000Y123300000D03*
X89350000Y121000000D03*
X89350000Y118700000D03*
D15*
X95650000Y121000000D03*
G04 #@! TD*
G04 #@! TO.C,R4*
G36*
G01*
X2590000Y33075000D02*
X1810000Y33075000D01*
G75*
G02*
X1740000Y33145000I0J70000D01*
G01*
X1740000Y33705000D01*
G75*
G02*
X1810000Y33775000I70000J0D01*
G01*
X2590000Y33775000D01*
G75*
G02*
X2660000Y33705000I0J-70000D01*
G01*
X2660000Y33145000D01*
G75*
G02*
X2590000Y33075000I-70000J0D01*
G01*
G37*
G36*
G01*
X2590000Y34675000D02*
X1810000Y34675000D01*
G75*
G02*
X1740000Y34745000I0J70000D01*
G01*
X1740000Y35305000D01*
G75*
G02*
X1810000Y35375000I70000J0D01*
G01*
X2590000Y35375000D01*
G75*
G02*
X2660000Y35305000I0J-70000D01*
G01*
X2660000Y34745000D01*
G75*
G02*
X2590000Y34675000I-70000J0D01*
G01*
G37*
G04 #@! TD*
D10*
G04 #@! TO.C,D1*
X113000000Y126500000D03*
X113000000Y130500000D03*
G04 #@! TD*
G04 #@! TO.C,R1*
G36*
G01*
X60375000Y129950001D02*
X61625000Y129950001D01*
G75*
G02*
X61725000Y129850001I0J-100000D01*
G01*
X61725000Y129050001D01*
G75*
G02*
X61625000Y128950001I-100000J0D01*
G01*
X60375000Y128950001D01*
G75*
G02*
X60275000Y129050001I0J100000D01*
G01*
X60275000Y129850001D01*
G75*
G02*
X60375000Y129950001I100000J0D01*
G01*
G37*
G36*
G01*
X60375000Y128049979D02*
X61625000Y128049979D01*
G75*
G02*
X61725000Y127949979I0J-100000D01*
G01*
X61725000Y127149979D01*
G75*
G02*
X61625000Y127049979I-100000J0D01*
G01*
X60375000Y127049979D01*
G75*
G02*
X60275000Y127149979I0J100000D01*
G01*
X60275000Y127949979D01*
G75*
G02*
X60375000Y128049979I100000J0D01*
G01*
G37*
G04 #@! TD*
G04 #@! TO.C,C1*
G36*
G01*
X44362000Y24729002D02*
X45042000Y24729002D01*
G75*
G02*
X45127000Y24644002I0J-85000D01*
G01*
X45127000Y23964002D01*
G75*
G02*
X45042000Y23879002I-85000J0D01*
G01*
X44362000Y23879002D01*
G75*
G02*
X44277000Y23964002I0J85000D01*
G01*
X44277000Y24644002D01*
G75*
G02*
X44362000Y24729002I85000J0D01*
G01*
G37*
G36*
G01*
X44362000Y23149000D02*
X45042000Y23149000D01*
G75*
G02*
X45127000Y23064000I0J-85000D01*
G01*
X45127000Y22384000D01*
G75*
G02*
X45042000Y22299000I-85000J0D01*
G01*
X44362000Y22299000D01*
G75*
G02*
X44277000Y22384000I0J85000D01*
G01*
X44277000Y23064000D01*
G75*
G02*
X44362000Y23149000I85000J0D01*
G01*
G37*
G04 #@! TD*
D11*
G04 #@! TO.C,Q2*
X12150000Y104450000D03*
X17000000Y110000000D03*
X17000000Y104450000D03*
X12150000Y110000000D03*
D12*
X5425000Y109765000D03*
X5425000Y104685000D03*
G04 #@! TD*
D16*
G04 #@! TO.C,M2*
X157913334Y20612501D03*
G04 #@! TD*
G04 #@! TO.C,F1*
G36*
G01*
X139600000Y129605010D02*
X139600000Y130295010D01*
G75*
G02*
X139830000Y130525010I230000J0D01*
G01*
X141170000Y130525010D01*
G75*
G02*
X141400000Y130295010I0J-230000D01*
G01*
X141400000Y129605010D01*
G75*
G02*
X141170000Y129375010I-230000J0D01*
G01*
X139830000Y129375010D01*
G75*
G02*
X139600000Y129605010I0J230000D01*
G01*
G37*
G36*
G01*
X139600000Y126704990D02*
X139600000Y127394990D01*
G75*
G02*
X139830000Y127624990I230000J0D01*
G01*
X141170000Y127624990D01*
G75*
G02*
X141400000Y127394990I0J-230000D01*
G01*
X141400000Y126704990D01*
G75*
G02*
X141170000Y126474990I-230000J0D01*
G01*
X139830000Y126474990D01*
G75*
G02*
X139600000Y126704990I0J230000D01*
G01*
G37*
G04 #@! TD*
D10*
G04 #@! TO.C,D5*
X79800000Y126500000D03*
X79800000Y130500000D03*
G04 #@! TD*
G04 #@! TO.C,C2*
G36*
G01*
X48642000Y25499000D02*
X47962000Y25499000D01*
G75*
G02*
X47877000Y25584000I0J85000D01*
G01*
X47877000Y26264000D01*
G75*
G02*
X47962000Y26349000I85000J0D01*
G01*
X48642000Y26349000D01*
G75*
G02*
X48727000Y26264000I0J-85000D01*
G01*
X48727000Y25584000D01*
G75*
G02*
X48642000Y25499000I-85000J0D01*
G01*
G37*
G36*
G01*
X48642000Y27079002D02*
X47962000Y27079002D01*
G75*
G02*
X47877000Y27164002I0J85000D01*
G01*
X47877000Y27844002D01*
G75*
G02*
X47962000Y27929002I85000J0D01*
G01*
X48642000Y27929002D01*
G75*
G02*
X48727000Y27844002I0J-85000D01*
G01*
X48727000Y27164002D01*
G75*
G02*
X48642000Y27079002I-85000J0D01*
G01*
G37*
G04 #@! TD*
G04 #@! TO.C,R14*
G36*
G01*
X3625000Y49800000D02*
X3625000Y52650000D01*
G75*
G02*
X3875000Y52900000I250000J0D01*
G01*
X4600000Y52900000D01*
G75*
G02*
X4850000Y52650000I0J-250000D01*
G01*
X4850000Y49800000D01*
G75*
G02*
X4600000Y49550000I-250000J0D01*
G01*
X3875000Y49550000D01*
G75*
G02*
X3625000Y49800000I0J250000D01*
G01*
G37*
G36*
G01*
X9550000Y49800000D02*
X9550000Y52650000D01*
G75*
G02*
X9800000Y52900000I250000J0D01*
G01*
X10525000Y52900000D01*
G75*
G02*
X10775000Y52650000I0J-250000D01*
G01*
X10775000Y49800000D01*
G75*
G02*
X10525000Y49550000I-250000J0D01*
G01*
X9800000Y49550000D01*
G75*
G02*
X9550000Y49800000I0J250000D01*
G01*
G37*
G04 #@! TD*
G04 #@! TO.C,R12*
G36*
G01*
X3625000Y33800000D02*
X3625000Y36650000D01*
G75*
G02*
X3875000Y36900000I250000J0D01*
G01*
X4600000Y36900000D01*
G75*
G02*
X4850000Y36650000I0J-250000D01*
G01*
X4850000Y33800000D01*
G75*
G02*
X4600000Y33550000I-250000J0D01*
G01*
X3875000Y33550000D01*
G75*
G02*
X3625000Y33800000I0J250000D01*
G01*
G37*
G36*
G01*
X9550000Y33800000D02*
X9550000Y36650000D01*
G75*
G02*
X9800000Y36900000I250000J0D01*
G01*
X10525000Y36900000D01*
G75*
G02*
X10775000Y36650000I0J-250000D01*
G01*
X10775000Y33800000D01*
G75*
G02*
X10525000Y33550000I-250000J0D01*
G01*
X9800000Y33550000D01*
G75*
G02*
X9550000Y33800000I0J250000D01*
G01*
G37*
G04 #@! TD*
D11*
G04 #@! TO.C,Q6*
X12150000Y78000000D03*
X17000000Y72450000D03*
X17000000Y78000000D03*
X12150000Y72450000D03*
D12*
X5425000Y77765000D03*
X5425000Y72685000D03*
G04 #@! TD*
G04 #@! TO.C,R3*
G36*
G01*
X2590000Y113075000D02*
X1810000Y113075000D01*
G75*
G02*
X1740000Y113145000I0J70000D01*
G01*
X1740000Y113705000D01*
G75*
G02*
X1810000Y113775000I70000J0D01*
G01*
X2590000Y113775000D01*
G75*
G02*
X2660000Y113705000I0J-70000D01*
G01*
X2660000Y113145000D01*
G75*
G02*
X2590000Y113075000I-70000J0D01*
G01*
G37*
G36*
G01*
X2590000Y114675000D02*
X1810000Y114675000D01*
G75*
G02*
X1740000Y114745000I0J70000D01*
G01*
X1740000Y115305000D01*
G75*
G02*
X1810000Y115375000I70000J0D01*
G01*
X2590000Y115375000D01*
G75*
G02*
X2660000Y115305000I0J-70000D01*
G01*
X2660000Y114745000D01*
G75*
G02*
X2590000Y114675000I-70000J0D01*
G01*
G37*
G04 #@! TD*
D11*
G04 #@! TO.C,Q4*
X17000000Y62000000D03*
X12150000Y62000000D03*
X12150000Y56450000D03*
X17000000Y56450000D03*
D12*
X5425000Y61765000D03*
X5425000Y56685000D03*
G04 #@! TD*
G04 #@! TO.C,R10*
G36*
G01*
X3625000Y97800000D02*
X3625000Y100650000D01*
G75*
G02*
X3875000Y100900000I250000J0D01*
G01*
X4600000Y100900000D01*
G75*
G02*
X4850000Y100650000I0J-250000D01*
G01*
X4850000Y97800000D01*
G75*
G02*
X4600000Y97550000I-250000J0D01*
G01*
X3875000Y97550000D01*
G75*
G02*
X3625000Y97800000I0J250000D01*
G01*
G37*
G36*
G01*
X9550000Y97800000D02*
X9550000Y100650000D01*
G75*
G02*
X9800000Y100900000I250000J0D01*
G01*
X10525000Y100900000D01*
G75*
G02*
X10775000Y100650000I0J-250000D01*
G01*
X10775000Y97800000D01*
G75*
G02*
X10525000Y97550000I-250000J0D01*
G01*
X9800000Y97550000D01*
G75*
G02*
X9550000Y97800000I0J250000D01*
G01*
G37*
G04 #@! TD*
G04 #@! TO.C,F2*
G36*
G01*
X63100000Y130105010D02*
X63100000Y130795010D01*
G75*
G02*
X63330000Y131025010I230000J0D01*
G01*
X64670000Y131025010D01*
G75*
G02*
X64900000Y130795010I0J-230000D01*
G01*
X64900000Y130105010D01*
G75*
G02*
X64670000Y129875010I-230000J0D01*
G01*
X63330000Y129875010D01*
G75*
G02*
X63100000Y130105010I0J230000D01*
G01*
G37*
G36*
G01*
X63100000Y127204990D02*
X63100000Y127894990D01*
G75*
G02*
X63330000Y128124990I230000J0D01*
G01*
X64670000Y128124990D01*
G75*
G02*
X64900000Y127894990I0J-230000D01*
G01*
X64900000Y127204990D01*
G75*
G02*
X64670000Y126974990I-230000J0D01*
G01*
X63330000Y126974990D01*
G75*
G02*
X63100000Y127204990I0J230000D01*
G01*
G37*
G04 #@! TD*
D11*
G04 #@! TO.C,Q5*
X12150000Y46000000D03*
X17000000Y40450000D03*
X12150000Y40450000D03*
X17000000Y46000000D03*
D12*
X5425000Y45765000D03*
X5425000Y40685000D03*
G04 #@! TD*
G04 #@! TO.C,C3*
G36*
G01*
X73760000Y27015001D02*
X74440000Y27015001D01*
G75*
G02*
X74525000Y26930001I0J-85000D01*
G01*
X74525000Y26250001D01*
G75*
G02*
X74440000Y26165001I-85000J0D01*
G01*
X73760000Y26165001D01*
G75*
G02*
X73675000Y26250001I0J85000D01*
G01*
X73675000Y26930001D01*
G75*
G02*
X73760000Y27015001I85000J0D01*
G01*
G37*
G36*
G01*
X73760000Y25434999D02*
X74440000Y25434999D01*
G75*
G02*
X74525000Y25349999I0J-85000D01*
G01*
X74525000Y24669999D01*
G75*
G02*
X74440000Y24584999I-85000J0D01*
G01*
X73760000Y24584999D01*
G75*
G02*
X73675000Y24669999I0J85000D01*
G01*
X73675000Y25349999D01*
G75*
G02*
X73760000Y25434999I85000J0D01*
G01*
G37*
G04 #@! TD*
D13*
G04 #@! TO.C,U1*
X37826000Y22095000D03*
D17*
X41382000Y20195000D03*
X41382000Y22735000D03*
D13*
X37826000Y23365000D03*
D17*
X41382000Y25275000D03*
D13*
X37826000Y24635000D03*
D17*
X41382000Y27815000D03*
D13*
X37826000Y25905000D03*
X27983500Y25905000D03*
D17*
X24618000Y27815000D03*
X24618000Y25275000D03*
D13*
X27983500Y24635000D03*
D17*
X24618000Y22735000D03*
D13*
X27983500Y23365000D03*
X27983500Y22095000D03*
D17*
X24618000Y20195000D03*
G04 #@! TD*
G04 #@! TO.C,R6*
G36*
G01*
X73910000Y32550000D02*
X74690000Y32550000D01*
G75*
G02*
X74760000Y32480000I0J-70000D01*
G01*
X74760000Y31920000D01*
G75*
G02*
X74690000Y31850000I-70000J0D01*
G01*
X73910000Y31850000D01*
G75*
G02*
X73840000Y31920000I0J70000D01*
G01*
X73840000Y32480000D01*
G75*
G02*
X73910000Y32550000I70000J0D01*
G01*
G37*
G36*
G01*
X73910000Y30950000D02*
X74690000Y30950000D01*
G75*
G02*
X74760000Y30880000I0J-70000D01*
G01*
X74760000Y30320000D01*
G75*
G02*
X74690000Y30250000I-70000J0D01*
G01*
X73910000Y30250000D01*
G75*
G02*
X73840000Y30320000I0J70000D01*
G01*
X73840000Y30880000D01*
G75*
G02*
X73910000Y30950000I70000J0D01*
G01*
G37*
G04 #@! TD*
G04 #@! TO.C,R7*
G36*
G01*
X2590000Y65075000D02*
X1810000Y65075000D01*
G75*
G02*
X1740000Y65145000I0J70000D01*
G01*
X1740000Y65705000D01*
G75*
G02*
X1810000Y65775000I70000J0D01*
G01*
X2590000Y65775000D01*
G75*
G02*
X2660000Y65705000I0J-70000D01*
G01*
X2660000Y65145000D01*
G75*
G02*
X2590000Y65075000I-70000J0D01*
G01*
G37*
G36*
G01*
X2590000Y66675000D02*
X1810000Y66675000D01*
G75*
G02*
X1740000Y66745000I0J70000D01*
G01*
X1740000Y67305000D01*
G75*
G02*
X1810000Y67375000I70000J0D01*
G01*
X2590000Y67375000D01*
G75*
G02*
X2660000Y67305000I0J-70000D01*
G01*
X2660000Y66745000D01*
G75*
G02*
X2590000Y66675000I-70000J0D01*
G01*
G37*
G04 #@! TD*
G04 #@! TO.C,R8*
G36*
G01*
X2590000Y49075000D02*
X1810000Y49075000D01*
G75*
G02*
X1740000Y49145000I0J70000D01*
G01*
X1740000Y49705000D01*
G75*
G02*
X1810000Y49775000I70000J0D01*
G01*
X2590000Y49775000D01*
G75*
G02*
X2660000Y49705000I0J-70000D01*
G01*
X2660000Y49145000D01*
G75*
G02*
X2590000Y49075000I-70000J0D01*
G01*
G37*
G36*
G01*
X2590000Y50675000D02*
X1810000Y50675000D01*
G75*
G02*
X1740000Y50745000I0J70000D01*
G01*
X1740000Y51305000D01*
G75*
G02*
X1810000Y51375000I70000J0D01*
G01*
X2590000Y51375000D01*
G75*
G02*
X2660000Y51305000I0J-70000D01*
G01*
X2660000Y50745000D01*
G75*
G02*
X2590000Y50675000I-70000J0D01*
G01*
G37*
G04 #@! TD*
G04 #@! TO.C,R9*
G36*
G01*
X2590000Y81075000D02*
X1810000Y81075000D01*
G75*
G02*
X1740000Y81145000I0J70000D01*
G01*
X1740000Y81705000D01*
G75*
G02*
X1810000Y81775000I70000J0D01*
G01*
X2590000Y81775000D01*
G75*
G02*
X2660000Y81705000I0J-70000D01*
G01*
X2660000Y81145000D01*
G75*
G02*
X2590000Y81075000I-70000J0D01*
G01*
G37*
G36*
G01*
X2590000Y82675000D02*
X1810000Y82675000D01*
G75*
G02*
X1740000Y82745000I0J70000D01*
G01*
X1740000Y83305000D01*
G75*
G02*
X1810000Y83375000I70000J0D01*
G01*
X2590000Y83375000D01*
G75*
G02*
X2660000Y83305000I0J-70000D01*
G01*
X2660000Y82745000D01*
G75*
G02*
X2590000Y82675000I-70000J0D01*
G01*
G37*
G04 #@! TD*
D10*
G04 #@! TO.C,D4*
X89500000Y126500000D03*
X89500000Y130500000D03*
G04 #@! TD*
G04 #@! TO.C,R15*
G36*
G01*
X3625000Y81800000D02*
X3625000Y84650000D01*
G75*
G02*
X3875000Y84900000I250000J0D01*
G01*
X4600000Y84900000D01*
G75*
G02*
X4850000Y84650000I0J-250000D01*
G01*
X4850000Y81800000D01*
G75*
G02*
X4600000Y81550000I-250000J0D01*
G01*
X3875000Y81550000D01*
G75*
G02*
X3625000Y81800000I0J250000D01*
G01*
G37*
G36*
G01*
X9550000Y81800000D02*
X9550000Y84650000D01*
G75*
G02*
X9800000Y84900000I250000J0D01*
G01*
X10525000Y84900000D01*
G75*
G02*
X10775000Y84650000I0J-250000D01*
G01*
X10775000Y81800000D01*
G75*
G02*
X10525000Y81550000I-250000J0D01*
G01*
X9800000Y81550000D01*
G75*
G02*
X9550000Y81800000I0J250000D01*
G01*
G37*
G04 #@! TD*
M02*
